{
.appVersion = "1064";
copyright = "Copyright (c) 2014 by Matthieu Cortat. All rights reserved.";
customParameters = (
{
name = vendorID;
value = "";
},
{
name = panose;
value = (
2,
11,
6,
0,
3,
0,
4,
2,
0,
4
);
},
{
name = unicodeRanges;
value = (
0,
1
);
},
{
name = codePageRanges;
value = (
1252,
1254
);
},
{
name = glyphOrder;
value = (
.notdef,
uni0000,
uni000D,
space,
exclam,
quotedbl,
numbersign,
dollar,
percent,
ampersand,
quotesingle,
parenleft,
parenright,
asterisk,
plus,
comma,
hyphen,
period,
slash,
zero,
one,
two,
three,
four,
five,
six,
seven,
eight,
nine,
colon,
semicolon,
less,
equal,
greater,
question,
at,
A,
B,
C,
D,
E,
F,
G,
H,
I,
J,
K,
L,
M,
N,
O,
P,
Q,
R,
S,
T,
U,
V,
W,
X,
Y,
Z,
bracketleft,
backslash,
bracketright,
asciicircum,
underscore,
grave,
a,
b,
c,
d,
e,
f,
g,
h,
i,
j,
k,
l,
m,
n,
o,
p,
q,
r,
s,
t,
u,
v,
w,
x,
y,
z,
braceleft,
bar,
braceright,
asciitilde,
exclamdown,
cent,
sterling,
yen,
brokenbar,
section,
dieresis,
copyright,
ordfeminine,
guillemotleft,
logicalnot,
uni00AD,
registered,
macron,
degree,
plusminus,
twosuperior,
threesuperior,
acute,
mu,
paragraph,
periodcentered,
cedilla,
onesuperior,
ordmasculine,
guillemotright,
onequarter,
onehalf,
threequarters,
questiondown,
Agrave,
Aacute,
Acircumflex,
Atilde,
Adieresis,
Aring,
AE,
Ccedilla,
Egrave,
Eacute,
Ecircumflex,
Edieresis,
Igrave,
Iacute,
Icircumflex,
Idieresis,
Eth,
Ntilde,
Ograve,
Oacute,
Ocircumflex,
Otilde,
Odieresis,
multiply,
Oslash,
Ugrave,
Uacute,
Ucircumflex,
Udieresis,
Yacute,
Thorn,
germandbls,
agrave,
aacute,
acircumflex,
atilde,
adieresis,
aring,
ae,
ccedilla,
egrave,
eacute,
ecircumflex,
edieresis,
igrave,
iacute,
icircumflex,
idieresis,
eth,
ntilde,
ograve,
oacute,
ocircumflex,
otilde,
odieresis,
divide,
oslash,
ugrave,
uacute,
ucircumflex,
udieresis,
yacute,
thorn,
ydieresis,
Gbreve,
gbreve,
dotlessI,
dotlessi,
Lslash,
lslash,
OE,
oe,
Scedilla,
scedilla,
Scaron,
scaron,
Ydieresis,
Zcaron,
zcaron,
florin,
dotlessj,
circumflex,
caron,
breve,
dotaccent,
ring,

glyphs = (
{
glyphname = exclam;
lastChange = "2017-11-01 11:13:03 +0000";
layers = (
{
layerId = "A6EA9C16-C626-4B38-A32D-13618352FA56";
paths = (
{
closed = 1;
nodes = (
"119 185 LINE",
"161 185 LINE",
"183 714 LINE",
"97 714 LINE"
);
},
{
closed = 1;
nodes = (
"87 12 OFFCURVE",
"112 -10 OFFCURVE",
"140 -10 CURVE SMOOTH",
"168 -10 OFFCURVE",
"193 12 OFFCURVE",
"193 43 CURVE SMOOTH",
"193 76 OFFCURVE",
"169 97 OFFCURVE",
"140 97 CURVE SMOOTH",
"111 97 OFFCURVE",
"87 76 OFFCURVE",
"87 43 CURVE SMOOTH"
);
}
);
width = 280;
}
);
note = exclam;
unicode = 0021;
},
{
glyphname = quotedbl;
lastChange = "2017-11-01 11:13:03 +0000";
layers = (
{
layerId = "A6EA9C16-C626-4B38-A32D-13618352FA56";
paths = (
{
closed = 1;
nodes = (
"163 493 LINE",
"181 714 LINE",
"100 714 LINE",
"118 493 LINE"
);
},
{
closed = 1;
nodes = (
"324 493 LINE",
"342 714 LINE",
"261 714 LINE",
"279 493 LINE"
);
}
);
width = 442;
}
);
note = quotedbl;
unicode = 0022;
},
{
glyphname = numbersign;
lastChange = "2017-11-01 11:13:03 +0000";
layers = (
{
layerId = "A6EA9C16-C626-4B38-A32D-13618352FA56";
paths = (
{
closed = 1;
nodes = (
"214 439 LINE",
"180 273 LINE",
"37 273 LINE",
"37 212 LINE",
"170 212 LINE",
"129 0 LINE",
"194 0 LINE",
"234 212 LINE",
"383 212 LINE",
"342 0 LINE",
"405 0 LINE",
"445 212 LINE",
"600 212 LINE",
"600 273 LINE",
"457 273 LINE",
"491 439 LINE",
"636 439 LINE",
"636 498 LINE",
"501 498 LINE",
"542 714 LINE",
"480 714 LINE",
"438 498 LINE",
"288 498 LINE",
"329 714 LINE",
"265 714 LINE",
"225 498 LINE",
"74 498 LINE",
"74 439 LINE"
);
},
{
closed = 1;
nodes = (
"392 273 LINE",
"244 273 LINE",
"277 439 LINE",
"426 439 LINE"
);
}
);
width = 673;
}
);
note = numbersign;
unicode = 0023;
},
{
glyphname = dollar;
lastChange = "2017-11-01 11:13:03 +0000";
layers = (
{
layerId = "A6EA9C16-C626-4B38-A32D-13618352FA56";
paths = (
{
closed = 1;
nodes = (
"272 722 LINE",
"155 710 OFFCURVE",
"78 635 OFFCURVE",
"78 539 CURVE SMOOTH",
"78 451 OFFCURVE",
"123 401 OFFCURVE",
"222 358 CURVE SMOOTH",
"272 337 LINE",
"272 56 LINE",
"205 56 OFFCURVE",
"140 76 OFFCURVE",
"76 115 CURVE",
"67 38 LINE",
"131 6 OFFCURVE",
"199 -10 OFFCURVE",
"272 -10 CURVE",
"272 -140 LINE",
"330 -140 LINE",
"330 -5 LINE",
"447 11 OFFCURVE",
"514 79 OFFCURVE",
"514 179 CURVE SMOOTH",
"514 270 OFFCURVE",
"467 335 OFFCURVE",
"373 373 CURVE SMOOTH",
"330 391 LINE",
"330 657 LINE",
"379 652 OFFCURVE",
"428 636 OFFCURVE",
"475 609 CURVE",
"491 683 LINE",
"440 707 OFFCURVE",
"386 720 OFFCURVE",
"330 723 CURVE",
"330 853 LINE",
"272 853 LINE"
);
},
{
closed = 1;
nodes = (
"203 638 OFFCURVE",
"233 651 OFFCURVE",
"272 656 CURVE",
"272 415 LINE",
"255 422 LINE SMOOTH",
"186 450 OFFCURVE",
"150 479 OFFCURVE",
"150 539 CURVE SMOOTH",
"150 569 OFFCURVE",
"161 595 OFFCURVE",
"182 617 CURVE SMOOTH"
);
},
{
closed = 1;
nodes = (
"408 280 OFFCURVE",
"441 237 OFFCURVE",
"441 178 CURVE SMOOTH",
"441 119 OFFCURVE",
"402 74 OFFCURVE",
"330 61 CURVE",
"330 313 LINE",
"343 308 LINE"
);
}
);
width = 575;
}
);
note = dollar;
unicode = 0024;
},
{
glyphname = percent;
lastChange = "2017-11-01 11:13:03 +0000";
layers = (
{
layerId = "A6EA9C16-C626-4B38-A32D-13618352FA56";
paths = (
{
closed = 1;
nodes = (
"352 653 OFFCURVE",
"288 724 OFFCURVE",
"197 724 CURVE SMOOTH",
"105 724 OFFCURVE",
"44 656 OFFCURVE",
"44 521 CURVE SMOOTH",
"44 389 OFFCURVE",
"108 316 OFFCURVE",
"197 316 CURVE SMOOTH",
"289 316 OFFCURVE",
"352 386 OFFCURVE",
"352 521 CURVE SMOOTH"
);
},
{
closed = 1;
nodes = (
"292 422 OFFCURVE",
"254 373 OFFCURVE",
"197 373 CURVE SMOOTH",
"140 373 OFFCURVE",
"104 422 OFFCURVE",
"104 521 CURVE SMOOTH",
"104 620 OFFCURVE",
"141 667 OFFCURVE",
"198 667 CURVE SMOOTH",
"254 667 OFFCURVE",
"292 618 OFFCURVE",
"292 521 CURVE SMOOTH"
);
},
{
closed = 1;
nodes = (
"568 714 LINE",
"262 0 LINE",
"331 0 LINE",
"637 714 LINE"
);
},
{
closed = 1;
nodes = (
"853 328 OFFCURVE",
"789 399 OFFCURVE",
"698 399 CURVE SMOOTH",
"606 399 OFFCURVE",
"545 331 OFFCURVE",
"545 196 CURVE SMOOTH",
"545 64 OFFCURVE",
"609 -9 OFFCURVE",
"698 -9 CURVE SMOOTH",
"790 -9 OFFCURVE",
"853 61 OFFCURVE",
"853 196 CURVE SMOOTH"
);
},
{
closed = 1;
nodes = (
"793 97 OFFCURVE",
"755 48 OFFCURVE",
"698 48 CURVE SMOOTH",
"641 48 OFFCURVE",
"605 97 OFFCURVE",
"605 196 CURVE SMOOTH",
"605 295 OFFCURVE",
"642 342 OFFCURVE",
"699 342 CURVE SMOOTH",
"755 342 OFFCURVE",
"793 293 OFFCURVE",
"793 196 CURVE SMOOTH"
);
}
);
width = 897;
}
);
note = percent;
unicode = 0025;
},
{
glyphname = ampersand;
lastChange = "2017-11-01 11:13:03 +0000";
layers = (
{
layerId = "A6EA9C16-C626-4B38-A32D-13618352FA56";
paths = (
{
closed = 1;
nodes = (
"199 623 OFFCURVE",
"244 658 OFFCURVE",
"305 658 CURVE SMOOTH",
"365 658 OFFCURVE",
"406 619 OFFCURVE",
"406 564 CURVE SMOOTH",
"406 507 OFFCURVE",
"379 480 OFFCURVE",
"312 443 CURVE SMOOTH",
"285 428 LINE",
"261 452 LINE SMOOTH",
"218 496 OFFCURVE",
"199 523 OFFCURVE",
"199 563 CURVE SMOOTH"
);
},
{
closed = 1;
nodes = (
"201 56 OFFCURVE",
"137 110 OFFCURVE",
"137 191 CURVE SMOOTH",
"137 260 OFFCURVE",
"179 315 OFFCURVE",
"262 356 CURVE",
"483 142 LINE",
"429 85 OFFCURVE",
"365 56 OFFCURVE",
"292 56 CURVE SMOOTH"
);
},
{
closed = 1;
nodes = (
"63 70 OFFCURVE",
"154 -10 OFFCURVE",
"291 -10 CURVE SMOOTH",
"390 -10 OFFCURVE",
"460 26 OFFCURVE",
"529 98 CURVE",
"632 0 LINE",
"730 0 LINE",
"573 152 LINE",
"622 220 OFFCURVE",
"653 291 OFFCURVE",
"665 365 CURVE",
"591 365 LINE",
"582 307 OFFCURVE",
"560 251 OFFCURVE",
"525 198 CURVE",
"328 386 LINE",
"356 400 LINE SMOOTH",
"441 444 OFFCURVE",
"479 491 OFFCURVE",
"479 563 CURVE SMOOTH",
"479 656 OFFCURVE",
"407 724 OFFCURVE",
"304 724 CURVE SMOOTH",
"203 724 OFFCURVE",
"127 656 OFFCURVE",
"127 563 CURVE SMOOTH",
"127 514 OFFCURVE",
"150 466 OFFCURVE",
"197 419 CURVE SMOOTH",
"216 400 LINE",
"114 352 OFFCURVE",
"63 282 OFFCURVE",
"63 189 CURVE SMOOTH"
);
}
);
width = 755;
}
);
note = ampersand;
unicode = 0026;
},
{
glyphname = quotesingle;
lastChange = "2017-11-01 11:13:03 +0000";
layers = (
{
layerId = "A6EA9C16-C626-4B38-A32D-13618352FA56";
paths = (
{
closed = 1;
nodes = (
"163 493 LINE",
"181 714 LINE",
"100 714 LINE",
"118 493 LINE"
);
}
);
width = 280;
}
);
note = quotesingle;
unicode = 0027;
},
{
glyphname = parenleft;
lastChange = "2017-11-01 11:13:03 +0000";
layers = (
{
layerId = "A6EA9C16-C626-4B38-A32D-13618352FA56";
paths = (
{
closed = 1;
nodes = (
"142 450 OFFCURVE",
"193 607 OFFCURVE",
"295 742 CURVE",
"232 742 LINE",
"132 622 OFFCURVE",
"69 456 OFFCURVE",
"69 271 CURVE SMOOTH",
"69 86 OFFCURVE",
"132 -80 OFFCURVE",
"232 -200 CURVE",
"295 -200 LINE",
"193 -65 OFFCURVE",
"142 93 OFFCURVE",
"142 272 CURVE SMOOTH"
);
}
);
width = 320;
}
);
note = parenleft;
unicode = 0028;
},
{
glyphname = parenright;
lastChange = "2017-11-01 11:13:03 +0000";
layers = (
{
layerId = "A6EA9C16-C626-4B38-A32D-13618352FA56";
paths = (
{
closed = 1;
nodes = (
"178 92 OFFCURVE",
"127 -65 OFFCURVE",
"26 -200 CURVE",
"89 -200 LINE",
"189 -80 OFFCURVE",
"251 86 OFFCURVE",
"251 271 CURVE SMOOTH",
"251 456 OFFCURVE",
"189 622 OFFCURVE",
"89 742 CURVE",
"26 742 LINE",
"127 607 OFFCURVE",
"178 451 OFFCURVE",
"178 272 CURVE SMOOTH"
);
}
);
width = 320;
}
);
note = parenright;
unicode = 0029;
},
{
glyphname = asterisk;
lastChange = "2017-11-01 11:13:03 +0000";
layers = (
{
layerId = "A6EA9C16-C626-4B38-A32D-13618352FA56";
paths = (
{
closed = 1;
nodes = (
"477 288 LINE",
"342 460 LINE",
"550 492 LINE",
"534 567 LINE",
"326 500 LINE",
"344 714 LINE",
"265 714 LINE",
"283 500 LINE",
"77 567 LINE",
"61 492 LINE",
"267 460 LINE",
"134 288 LINE",
"204 247 LINE",
"304 435 LINE",
"409 247 LINE"
);
}
);
width = 610;
}
);
note = asterisk;
unicode = 002A;
},
{
glyphname = plus;
lastChange = "2017-11-01 11:13:03 +0000";
layers = (
{
layerId = "A6EA9C16-C626-4B38-A32D-13618352FA56";
paths = (
{
closed = 1;
nodes = (
"255 387 LINE",
"51 387 LINE",
"51 328 LINE",
"255 328 LINE",
"255 116 LINE",
"315 116 LINE",
"315 328 LINE",
"520 328 LINE",
"520 387 LINE",
"315 387 LINE",
"315 600 LINE",
"255 600 LINE"
);
}
);
width = 572;
}
);
note = plus;
unicode = 002B;
},
{
glyphname = comma;
lastChange = "2017-11-01 11:13:03 +0000";
layers = (
{
layerId = "A6EA9C16-C626-4B38-A32D-13618352FA56";
paths = (
{
closed = 1;
nodes = (
"117 -128 LINE",
"200 97 LINE",
"115 97 LINE",
"66 -128 LINE"
);
}
);
width = 280;
}
);
note = comma;
unicode = 002C;
},
{
glyphname = hyphen;
lastChange = "2017-11-01 11:13:03 +0000";
layers = (
{
layerId = "A6EA9C16-C626-4B38-A32D-13618352FA56";
paths = (
{
closed = 1;
nodes = (
"315 299 LINE",
"55 299 LINE",
"55 236 LINE",
"315 236 LINE"
);
}
);
width = 370;
}
);
note = hyphen;
unicode = 002D;
},
{
glyphname = period;
lastChange = "2017-11-01 11:13:03 +0000";
layers = (
{
layerId = "A6EA9C16-C626-4B38-A32D-13618352FA56";
paths = (
{
closed = 1;
nodes = (
"87 11 OFFCURVE",
"112 -10 OFFCURVE",
"141 -10 CURVE SMOOTH",
"169 -10 OFFCURVE",
"193 11 OFFCURVE",
"193 43 CURVE SMOOTH",
"193 76 OFFCURVE",
"169 97 OFFCURVE",
"141 97 CURVE SMOOTH",
"112 97 OFFCURVE",
"87 76 OFFCURVE",
"87 43 CURVE SMOOTH"
);
}
);
width = 280;
}
);
note = period;
unicode = 002E;
},
{
glyphname = slash;
lastChange = "2017-11-01 11:13:03 +0000";
layers = (
{
layerId = "A6EA9C16-C626-4B38-A32D-13618352FA56";
paths = (
{
closed = 1;
nodes = (
"334 714 LINE",
"28 0 LINE",
"97 0 LINE",
"403 714 LINE"
);
}
);
width = 431;
}
);
note = slash;
unicode = 002F;
},
{
glyphname = zero;
lastChange = "2017-11-01 11:13:03 +0000";
layers = (
{
layerId = "A6EA9C16-C626-4B38-A32D-13618352FA56";
paths = (
{
closed = 1;
nodes = (
"419 693 OFFCURVE",
"361 724 OFFCURVE",
"286 724 CURVE SMOOTH",
"137 724 OFFCURVE",
"49 599 OFFCURVE",
"49 358 CURVE SMOOTH",
"49 117 OFFCURVE",
"138 -10 OFFCURVE",
"286 -10 CURVE SMOOTH",
"435 -10 OFFCURVE",
"523 117 OFFCURVE",
"523 358 CURVE SMOOTH",
"523 479 OFFCURVE",
"502 570 OFFCURVE",
"461 632 CURVE SMOOTH"
);
},
{
closed = 1;
nodes = (
"452 151 OFFCURVE",
"390 56 OFFCURVE",
"286 56 CURVE SMOOTH",
"183 56 OFFCURVE",
"122 151 OFFCURVE",
"122 358 CURVE SMOOTH",
"122 565 OFFCURVE",
"184 658 OFFCURVE",
"287 658 CURVE SMOOTH",
"397 658 OFFCURVE",
"452 558 OFFCURVE",
"452 358 CURVE SMOOTH"
);
}
);
width = 572;
}
);
note = zero;
unicode = 0030;
},
{
glyphname = one;
lastChange = "2017-11-01 11:13:03 +0000";
layers = (
{
layerId = "A6EA9C16-C626-4B38-A32D-13618352FA56";
paths = (
{
closed = 1;
nodes = (
"106 545 LINE",
"144 492 LINE",
"210 542 LINE",
"322 631 LINE",
"322 0 LINE",
"390 0 LINE",
"390 714 LINE",
"328 714 LINE"
);
}
);
width = 572;
}
);
note = one;
unicode = 0031;
},
{
glyphname = two;
lastChange = "2017-11-01 11:13:03 +0000";
layers = (
{
layerId = "A6EA9C16-C626-4B38-A32D-13618352FA56";
paths = (
{
closed = 1;
nodes = (
"153 637 OFFCURVE",
"214 657 OFFCURVE",
"275 657 CURVE SMOOTH",
"362 657 OFFCURVE",
"417 606 OFFCURVE",
"417 521 CURVE SMOOTH",
"417 485 OFFCURVE",
"406 449 OFFCURVE",
"383 412 CURVE SMOOTH",
"360 375 OFFCURVE",
"314 322 OFFCURVE",
"246 253 CURVE SMOOTH",
"57 60 LINE",
"57 0 LINE",
"518 0 LINE",
"518 64 LINE",
"144 64 LINE",
"306 222 LINE SMOOTH",
"450 361 OFFCURVE",
"491 426 OFFCURVE",
"491 519 CURVE SMOOTH",
"491 642 OFFCURVE",
"402 724 OFFCURVE",
"275 724 CURVE SMOOTH",
"202 724 OFFCURVE",
"138 705 OFFCURVE",
"81 667 CURVE",
"92 597 LINE"
);
}
);
width = 572;
}
);
note = two;
unicode = 0032;
},
{
glyphname = three;
lastChange = "2017-11-01 11:13:03 +0000";
layers = (
{
layerId = "A6EA9C16-C626-4B38-A32D-13618352FA56";
paths = (
{
closed = 1;
nodes = (
"123 12 OFFCURVE",
"193 -10 OFFCURVE",
"270 -10 CURVE SMOOTH",
"418 -10 OFFCURVE",
"513 67 OFFCURVE",
"513 192 CURVE SMOOTH",
"513 291 OFFCURVE",
"442 363 OFFCURVE",
"334 376 CURVE",
"443 404 OFFCURVE",
"491 456 OFFCURVE",
"491 541 CURVE SMOOTH",
"491 649 OFFCURVE",
"397 724 OFFCURVE",
"274 724 CURVE SMOOTH",
"205 724 OFFCURVE",
"140 705 OFFCURVE",
"80 666 CURVE",
"91 598 LINE",
"152 637 OFFCURVE",
"213 657 OFFCURVE",
"273 657 CURVE SMOOTH",
"362 657 OFFCURVE",
"418 609 OFFCURVE",
"418 538 CURVE SMOOTH",
"418 462 OFFCURVE",
"348 406 OFFCURVE",
"216 406 CURVE SMOOTH",
"163 406 LINE",
"163 343 LINE",
"226 343 LINE SMOOTH",
"369 343 OFFCURVE",
"440 282 OFFCURVE",
"440 195 CURVE SMOOTH",
"440 111 OFFCURVE",
"379 56 OFFCURVE",
"270 56 CURVE SMOOTH",
"199 56 OFFCURVE",
"136 79 OFFCURVE",
"79 125 CURVE",
"60 55 LINE"
);
}
);
width = 572;
}
);
note = three;
unicode = 0033;
},
{
glyphname = four;
lastChange = "2017-11-01 11:13:03 +0000";
layers = (
{
layerId = "A6EA9C16-C626-4B38-A32D-13618352FA56";
paths = (
{
closed = 1;
nodes = (
"449 714 LINE",
"372 714 LINE",
"25 227 LINE",
"25 165 LINE",
"380 165 LINE",
"380 0 LINE",
"449 0 LINE",
"449 165 LINE",
"553 165 LINE",
"553 231 LINE",
"449 231 LINE"
);
},
{
closed = 1;
nodes = (
"380 626 LINE",
"380 231 LINE",
"109 231 LINE",
"257 443 LINE"
);
}
);
width = 572;
}
);
note = four;
unicode = 0034;
},
{
glyphname = five;
lastChange = "2017-11-01 11:13:03 +0000";
layers = (
{
layerId = "A6EA9C16-C626-4B38-A32D-13618352FA56";
paths = (
{
closed = 1;
nodes = (
"120 8 OFFCURVE",
"189 -10 OFFCURVE",
"265 -10 CURVE SMOOTH",
"420 -10 OFFCURVE",
"518 92 OFFCURVE",
"518 224 CURVE SMOOTH",
"518 359 OFFCURVE",
"419 449 OFFCURVE",
"267 449 CURVE SMOOTH",
"239 449 OFFCURVE",
"201 444 OFFCURVE",
"154 434 CURVE",
"172 650 LINE",
"450 650 LINE",
"462 714 LINE",
"115 714 LINE",
"86 358 LINE",
"143 377 OFFCURVE",
"199 387 OFFCURVE",
"254 387 CURVE SMOOTH",
"371 387 OFFCURVE",
"444 323 OFFCURVE",
"444 226 CURVE SMOOTH",
"444 126 OFFCURVE",
"378 55 OFFCURVE",
"265 55 CURVE SMOOTH",
"193 55 OFFCURVE",
"129 75 OFFCURVE",
"72 116 CURVE",
"58 44 LINE"
);
}
);
width = 572;
}
);
note = five;
unicode = 0035;
},
{
glyphname = six;
lastChange = "2017-11-01 11:13:03 +0000";
layers = (
{
layerId = "A6EA9C16-C626-4B38-A32D-13618352FA56";
paths = (
{
closed = 1;
nodes = (
"448 715 OFFCURVE",
"399 724 OFFCURVE",
"349 724 CURVE SMOOTH",
"177 724 OFFCURVE",
"60 579 OFFCURVE",
"60 308 CURVE SMOOTH",
"60 204 OFFCURVE",
"79 127 OFFCURVE",
"117 77 CURVE SMOOTH",
"157 24 OFFCURVE",
"225 -10 OFFCURVE",
"302 -10 CURVE SMOOTH",
"434 -10 OFFCURVE",
"529 92 OFFCURVE",
"529 221 CURVE SMOOTH",
"529 352 OFFCURVE",
"431 448 OFFCURVE",
"310 448 CURVE SMOOTH",
"231 448 OFFCURVE",
"172 415 OFFCURVE",
"133 350 CURVE",
"138 553 OFFCURVE",
"224 658 OFFCURVE",
"349 658 CURVE SMOOTH",
"396 658 OFFCURVE",
"442 647 OFFCURVE",
"486 625 CURVE",
"495 696 LINE"
);
},
{
closed = 1;
nodes = (
"136 317 OFFCURVE",
"203 382 OFFCURVE",
"298 382 CURVE SMOOTH",
"393 382 OFFCURVE",
"457 314 OFFCURVE",
"457 222 CURVE SMOOTH",
"457 129 OFFCURVE",
"397 55 OFFCURVE",
"301 55 CURVE SMOOTH",
"201 55 OFFCURVE",
"136 129 OFFCURVE",
"136 225 CURVE SMOOTH"
);
}
);
width = 572;
}
);
note = six;
unicode = 0036;
},
{
glyphname = seven;
lastChange = "2017-11-01 11:13:03 +0000";
layers = (
{
layerId = "A6EA9C16-C626-4B38-A32D-13618352FA56";
paths = (
{
closed = 1;
nodes = (
"523 714 LINE",
"54 714 LINE",
"54 650 LINE",
"457 650 LINE",
"353 437 LINE",
"145 0 LINE",
"229 0 LINE",
"523 660 LINE"
);
}
);
width = 572;
}
);
note = seven;
unicode = 0037;
},
{
glyphname = eight;
lastChange = "2017-11-01 11:13:03 +0000";
layers = (
{
layerId = "A6EA9C16-C626-4B38-A32D-13618352FA56";
paths = (
{
closed = 1;
nodes = (
"57 71 OFFCURVE",
"147 -10 OFFCURVE",
"288 -10 CURVE SMOOTH",
"425 -10 OFFCURVE",
"517 73 OFFCURVE",
"517 182 CURVE SMOOTH",
"517 274 OFFCURVE",
"466 327 OFFCURVE",
"367 372 CURVE",
"354 377 LINE",
"353 378 LINE",
"444 414 OFFCURVE",
"491 463 OFFCURVE",
"491 543 CURVE SMOOTH",
"491 651 OFFCURVE",
"405 724 OFFCURVE",
"284 724 CURVE SMOOTH",
"168 724 OFFCURVE",
"80 647 OFFCURVE",
"80 543 CURVE SMOOTH",
"80 472 OFFCURVE",
"122 416 OFFCURVE",
"205 377 CURVE",
"106 337 OFFCURVE",
"57 273 OFFCURVE",
"57 184 CURVE SMOOTH"
);
},
{
closed = 1;
nodes = (
"411 280 OFFCURVE",
"446 242 OFFCURVE",
"446 183 CURVE SMOOTH",
"446 110 OFFCURVE",
"381 55 OFFCURVE",
"288 55 CURVE SMOOTH",
"192 55 OFFCURVE",
"127 110 OFFCURVE",
"127 187 CURVE SMOOTH",
"127 258 OFFCURVE",
"173 311 OFFCURVE",
"265 348 CURVE",
"334 316 LINE SMOOTH"
);
},
{
closed = 1;
nodes = (
"150 610 OFFCURVE",
"204 658 OFFCURVE",
"284 658 CURVE SMOOTH",
"365 658 OFFCURVE",
"421 611 OFFCURVE",
"421 543 CURVE SMOOTH",
"421 484 OFFCURVE",
"378 439 OFFCURVE",
"291 407 CURVE",
"244 428 LINE SMOOTH",
"181 457 OFFCURVE",
"150 495 OFFCURVE",
"150 543 CURVE SMOOTH"
);
}
);
width = 572;
}
);
note = eight;
unicode = 0038;
},
{
glyphname = nine;
lastChange = "2017-11-01 11:13:03 +0000";
layers = (
{
layerId = "A6EA9C16-C626-4B38-A32D-13618352FA56";
paths = (
{
closed = 1;
nodes = (
"124 -1 OFFCURVE",
"173 -10 OFFCURVE",
"223 -10 CURVE SMOOTH",
"313 -10 OFFCURVE",
"381 22 OFFCURVE",
"427 85 CURVE SMOOTH",
"484 160 OFFCURVE",
"512 267 OFFCURVE",
"512 406 CURVE SMOOTH",
"512 611 OFFCURVE",
"429 724 OFFCURVE",
"270 724 CURVE SMOOTH",
"138 724 OFFCURVE",
"43 622 OFFCURVE",
"43 493 CURVE SMOOTH",
"43 362 OFFCURVE",
"141 266 OFFCURVE",
"262 266 CURVE SMOOTH",
"341 266 OFFCURVE",
"400 299 OFFCURVE",
"439 364 CURVE",
"434 157 OFFCURVE",
"348 56 OFFCURVE",
"223 56 CURVE SMOOTH",
"176 56 OFFCURVE",
"130 67 OFFCURVE",
"86 89 CURVE",
"77 18 LINE"
);
},
{
closed = 1;
nodes = (
"436 397 OFFCURVE",
"369 332 OFFCURVE",
"274 332 CURVE SMOOTH",
"179 332 OFFCURVE",
"115 400 OFFCURVE",
"115 492 CURVE SMOOTH",
"115 585 OFFCURVE",
"175 659 OFFCURVE",
"271 659 CURVE SMOOTH",
"371 659 OFFCURVE",
"436 585 OFFCURVE",
"436 489 CURVE SMOOTH"
);
}
);
width = 572;
}
);
note = nine;
unicode = 0039;
},
{
glyphname = colon;
lastChange = "2017-11-01 11:13:03 +0000";
layers = (
{
layerId = "A6EA9C16-C626-4B38-A32D-13618352FA56";
paths = (
{
closed = 1;
nodes = (
"87 11 OFFCURVE",
"112 -10 OFFCURVE",
"141 -10 CURVE SMOOTH",
"169 -10 OFFCURVE",
"193 11 OFFCURVE",
"193 43 CURVE SMOOTH",
"193 76 OFFCURVE",
"169 97 OFFCURVE",
"141 97 CURVE SMOOTH",
"112 97 OFFCURVE",
"87 76 OFFCURVE",
"87 43 CURVE SMOOTH"
);
},
{
closed = 1;
nodes = (
"87 479 OFFCURVE",
"112 458 OFFCURVE",
"141 458 CURVE SMOOTH",
"169 458 OFFCURVE",
"193 479 OFFCURVE",
"193 511 CURVE SMOOTH",
"193 544 OFFCURVE",
"169 565 OFFCURVE",
"141 565 CURVE SMOOTH",
"112 565 OFFCURVE",
"87 544 OFFCURVE",
"87 511 CURVE SMOOTH"
);
}
);
width = 280;
}
);
note = colon;
unicode = 003A;
},
{
glyphname = semicolon;
lastChange = "2017-11-01 11:13:03 +0000";
layers = (
{
layerId = "A6EA9C16-C626-4B38-A32D-13618352FA56";
paths = (
{
closed = 1;
nodes = (
"117 -128 LINE",
"200 97 LINE",
"115 97 LINE",
"66 -128 LINE"
);
},
{
closed = 1;
nodes = (
"90 479 OFFCURVE",
"115 458 OFFCURVE",
"144 458 CURVE SMOOTH",
"172 458 OFFCURVE",
"196 479 OFFCURVE",
"196 511 CURVE SMOOTH",
"196 544 OFFCURVE",
"172 565 OFFCURVE",
"144 565 CURVE SMOOTH",
"115 565 OFFCURVE",
"90 544 OFFCURVE",
"90 511 CURVE SMOOTH"
);
}
);
width = 280;
}
);
note = semicolon;
unicode = 003B;
},
{
glyphname = less;
lastChange = "2017-11-01 11:13:03 +0000";
layers = (
{
layerId = "A6EA9C16-C626-4B38-A32D-13618352FA56";
paths = (
{
closed = 1;
nodes = (
"520 197 LINE",
"132 358 LINE",
"520 519 LINE",
"520 588 LINE",
"51 380 LINE",
"51 336 LINE",
"520 128 LINE"
);
}
);
width = 572;
}
);
note = less;
unicode = 003C;
},
{
glyphname = equal;
lastChange = "2017-11-01 11:13:03 +0000";
layers = (
{
layerId = "A6EA9C16-C626-4B38-A32D-13618352FA56";
paths = (
{
closed = 1;
nodes = (
"520 219 LINE",
"520 278 LINE",
"51 278 LINE",
"51 219 LINE"
);
},
{
closed = 1;
nodes = (
"520 428 LINE",
"520 487 LINE",
"51 487 LINE",
"51 428 LINE"
);
}
);
width = 572;
}
);
note = equal;
unicode = 003D;
},
{
glyphname = greater;
lastChange = "2017-11-01 11:13:03 +0000";
layers = (
{
layerId = "A6EA9C16-C626-4B38-A32D-13618352FA56";
paths = (
{
closed = 1;
nodes = (
"51 519 LINE",
"439 358 LINE",
"51 197 LINE",
"51 128 LINE",
"520 336 LINE",
"520 380 LINE",
"51 588 LINE"
);
}
);
width = 572;
}
);
note = greater;
unicode = 003E;
},
{
glyphname = question;
lastChange = "2017-11-01 11:13:03 +0000";
layers = (
{
layerId = "A6EA9C16-C626-4B38-A32D-13618352FA56";
paths = (
{
closed = 1;
nodes = (
"418 644 OFFCURVE",
"337 724 OFFCURVE",
"206 724 CURVE SMOOTH",
"145 724 OFFCURVE",
"87 707 OFFCURVE",
"30 674 CURVE",
"44 607 LINE",
"95 642 OFFCURVE",
"149 659 OFFCURVE",
"205 659 CURVE SMOOTH",
"301 659 OFFCURVE",
"349 610 OFFCURVE",
"349 541 CURVE SMOOTH",
"349 502 OFFCURVE",
"325 459 OFFCURVE",
"278 414 CURVE SMOOTH",
"215 354 LINE SMOOTH",
"179 320 OFFCURVE",
"161 282 OFFCURVE",
"161 241 CURVE SMOOTH",
"161 218 OFFCURVE",
"166 198 OFFCURVE",
"175 181 CURVE",
"220 181 LINE",
"215 198 OFFCURVE",
"213 213 OFFCURVE",
"213 225 CURVE SMOOTH",
"213 255 OFFCURVE",
"228 284 OFFCURVE",
"258 312 CURVE SMOOTH",
"346 393 LINE SMOOTH",
"394 438 OFFCURVE",
"418 488 OFFCURVE",
"418 541 CURVE SMOOTH"
);
},
{
closed = 1;
nodes = (
"142 12 OFFCURVE",
"166 -10 OFFCURVE",
"195 -10 CURVE SMOOTH",
"223 -10 OFFCURVE",
"248 12 OFFCURVE",
"248 43 CURVE SMOOTH",
"248 76 OFFCURVE",
"224 97 OFFCURVE",
"195 97 CURVE SMOOTH",
"166 97 OFFCURVE",
"142 76 OFFCURVE",
"142 43 CURVE SMOOTH"
);
}
);
width = 457;
}
);
note = question;
unicode = 003F;
},
{
glyphname = at;
lastChange = "2017-11-01 11:13:03 +0000";
layers = (
{
layerId = "A6EA9C16-C626-4B38-A32D-13618352FA56";
paths = (
{
closed = 1;
nodes = (
"918 562 OFFCURVE",
"759 725 OFFCURVE",
"535 725 CURVE SMOOTH",
"267 725 OFFCURVE",
"77 542 OFFCURVE",
"77 267 CURVE SMOOTH",
"77 16 OFFCURVE",
"233 -138 OFFCURVE",
"488 -138 CURVE SMOOTH",
"571 -138 OFFCURVE",
"650 -123 OFFCURVE",
"724 -94 CURVE",
"717 -27 LINE",
"645 -57 OFFCURVE",
"569 -72 OFFCURVE",
"488 -72 CURVE SMOOTH",
"275 -72 OFFCURVE",
"148 58 OFFCURVE",
"148 267 CURVE SMOOTH",
"148 507 OFFCURVE",
"305 660 OFFCURVE",
"536 660 CURVE SMOOTH",
"721 660 OFFCURVE",
"846 531 OFFCURVE",
"846 342 CURVE SMOOTH",
"846 222 OFFCURVE",
"806 140 OFFCURVE",
"739 140 CURVE SMOOTH",
"688 140 OFFCURVE",
"665 171 OFFCURVE",
"665 252 CURVE SMOOTH",
"665 291 OFFCURVE",
"670 371 OFFCURVE",
"679 491 CURVE",
"620 506 OFFCURVE",
"569 514 OFFCURVE",
"527 514 CURVE SMOOTH",
"390 514 OFFCURVE",
"296 414 OFFCURVE",
"296 273 CURVE SMOOTH",
"296 149 OFFCURVE",
"363 75 OFFCURVE",
"456 75 CURVE SMOOTH",
"525 75 OFFCURVE",
"575 110 OFFCURVE",
"606 179 CURVE",
"618 115 OFFCURVE",
"668 75 OFFCURVE",
"739 75 CURVE SMOOTH",
"843 75 OFFCURVE",
"918 173 OFFCURVE",
"918 341 CURVE SMOOTH"
);
},
{
closed = 1;
nodes = (
"370 377 OFFCURVE",
"433 449 OFFCURVE",
"524 449 CURVE SMOOTH",
"553 449 OFFCURVE",
"580 446 OFFCURVE",
"607 439 CURVE",
"598 302 LINE SMOOTH",
"591 201 OFFCURVE",
"538 140 OFFCURVE",
"465 140 CURVE SMOOTH",
"405 140 OFFCURVE",
"370 184 OFFCURVE",
"370 272 CURVE SMOOTH"
);
}
);
width = 985;
}
);
note = at;
unicode = 0040;
},
{
glyphname = A;
lastChange = "2017-11-01 11:13:03 +0000";
layers = (
{
layerId = "A6EA9C16-C626-4B38-A32D-13618352FA56";
paths = (
{
closed = 1;
nodes = (
"500 190 LINE",
"574 0 LINE",
"649 0 LINE",
"368 714 LINE",
"304 714 LINE",
"23 0 LINE",
"95 0 LINE",
"170 190 LINE"
);
},
{
closed = 1;
nodes = (
"194 254 LINE",
"261 428 LINE",
"336 632 LINE",
"414 419 LINE",
"476 254 LINE"
);
}
);
width = 672;
}
);
note = A;
unicode = 0041;
},
{
glyphname = B;
lastChange = "2017-11-01 11:13:03 +0000";
layers = (
{
layerId = "A6EA9C16-C626-4B38-A32D-13618352FA56";
paths = (
{
closed = 1;
nodes = (
"471 0 OFFCURVE",
"563 74 OFFCURVE",
"563 201 CURVE SMOOTH",
"563 297 OFFCURVE",
"506 361 OFFCURVE",
"403 376 CURVE",
"492 390 OFFCURVE",
"537 442 OFFCURVE",
"537 532 CURVE SMOOTH",
"537 636 OFFCURVE",
"463 714 OFFCURVE",
"314 714 CURVE SMOOTH",
"115 714 LINE",
"115 0 LINE",
"318 0 LINE SMOOTH"
);
},
{
closed = 1;
nodes = (
"309 650 LINE SMOOTH",
"414 650 OFFCURVE",
"466 609 OFFCURVE",
"466 527 CURVE SMOOTH",
"466 446 OFFCURVE",
"412 406 OFFCURVE",
"303 406 CURVE SMOOTH",
"279 406 LINE",
"279 343 LINE",
"307 343 LINE SMOOTH",
"428 343 OFFCURVE",
"490 293 OFFCURVE",
"490 202 CURVE SMOOTH",
"490 110 OFFCURVE",
"427 64 OFFCURVE",
"300 64 CURVE SMOOTH",
"185 64 LINE",
"185 650 LINE"
);
}
);
width = 637;
}
);
note = B;
unicode = 0042;
},
{
glyphname = C;
lastChange = "2017-11-01 11:13:03 +0000";
layers = (
{
layerId = "A6EA9C16-C626-4B38-A32D-13618352FA56";
paths = (
{
closed = 1;
nodes = (
"496 -10 OFFCURVE",
"559 1 OFFCURVE",
"611 23 CURVE",
"602 95 LINE",
"549 69 OFFCURVE",
"491 56 OFFCURVE",
"428 56 CURVE SMOOTH",
"269 56 OFFCURVE",
"151 167 OFFCURVE",
"151 354 CURVE SMOOTH",
"151 554 OFFCURVE",
"261 658 OFFCURVE",
"426 658 CURVE SMOOTH",
"486 658 OFFCURVE",
"542 646 OFFCURVE",
"593 621 CURVE",
"602 696 LINE",
"551 715 OFFCURVE",
"492 724 OFFCURVE",
"425 724 CURVE SMOOTH",
"218 724 OFFCURVE",
"76 581 OFFCURVE",
"76 356 CURVE SMOOTH",
"76 132 OFFCURVE",
"227 -10 OFFCURVE",
"423 -10 CURVE SMOOTH"
);
}
);
width = 661;
}
);
note = C;
unicode = 0043;
},
{
glyphname = D;
lastChange = "2017-11-01 11:13:03 +0000";
layers = (
{
layerId = "A6EA9C16-C626-4B38-A32D-13618352FA56";
paths = (
{
closed = 1;
nodes = (
"295 0 LINE SMOOTH",
"506 0 OFFCURVE",
"650 135 OFFCURVE",
"650 356 CURVE SMOOTH",
"650 577 OFFCURVE",
"517 714 OFFCURVE",
"306 714 CURVE SMOOTH",
"116 714 LINE",
"116 0 LINE"
);
},
{
closed = 1;
nodes = (
"475 652 OFFCURVE",
"575 550 OFFCURVE",
"575 354 CURVE SMOOTH",
"575 169 OFFCURVE",
"466 62 OFFCURVE",
"295 62 CURVE SMOOTH",
"185 62 LINE",
"185 652 LINE",
"311 652 LINE SMOOTH"
);
}
);
width = 728;
}
);
note = D;
unicode = 0044;
},
{
glyphname = E;
lastChange = "2017-11-01 11:13:03 +0000";
layers = (
{
layerId = "A6EA9C16-C626-4B38-A32D-13618352FA56";
paths = (
{
closed = 1;
nodes = (
"185 343 LINE",
"476 343 LINE",
"476 406 LINE",
"185 406 LINE",
"185 650 LINE",
"495 650 LINE",
"495 714 LINE",
"116 714 LINE",
"116 0 LINE",
"505 0 LINE",
"505 64 LINE",
"185 64 LINE"
);
}
);
width = 585;
}
);
note = E;
unicode = 0045;
},
{
glyphname = F;
lastChange = "2017-11-01 11:13:03 +0000";
layers = (
{
layerId = "A6EA9C16-C626-4B38-A32D-13618352FA56";
paths = (
{
closed = 1;
nodes = (
"466 406 LINE",
"185 406 LINE",
"185 650 LINE",
"505 650 LINE",
"505 714 LINE",
"116 714 LINE",
"116 0 LINE",
"185 0 LINE",
"185 343 LINE",
"466 343 LINE"
);
}
);
width = 544;
}
);
note = F;
unicode = 0046;
},
{
glyphname = G;
lastChange = "2017-11-01 11:13:03 +0000";
layers = (
{
layerId = "A6EA9C16-C626-4B38-A32D-13618352FA56";
paths = (
{
closed = 1;
nodes = (
"424 295 LINE",
"579 295 LINE",
"579 69 LINE",
"535 60 OFFCURVE",
"494 56 OFFCURVE",
"455 56 CURVE SMOOTH",
"272 56 OFFCURVE",
"152 165 OFFCURVE",
"152 354 CURVE SMOOTH",
"152 553 OFFCURVE",
"263 658 OFFCURVE",
"427 658 CURVE SMOOTH",
"484 658 OFFCURVE",
"539 646 OFFCURVE",
"594 622 CURVE",
"603 696 LINE",
"552 715 OFFCURVE",
"493 724 OFFCURVE",
"426 724 CURVE SMOOTH",
"223 724 OFFCURVE",
"78 580 OFFCURVE",
"78 356 CURVE SMOOTH",
"78 129 OFFCURVE",
"231 -10 OFFCURVE",
"456 -10 CURVE SMOOTH",
"518 -10 OFFCURVE",
"581 0 OFFCURVE",
"646 21 CURVE",
"646 358 LINE",
"424 358 LINE"
);
}
);
width = 747;
}
);
note = G;
unicode = 0047;
},
{
glyphname = H;
lastChange = "2017-11-01 11:13:03 +0000";
layers = (
{
layerId = "A6EA9C16-C626-4B38-A32D-13618352FA56";
paths = (
{
closed = 1;
nodes = (
"562 405 LINE",
"185 405 LINE",
"185 714 LINE",
"115 714 LINE",
"115 0 LINE",
"185 0 LINE",
"185 342 LINE",
"562 342 LINE",
"562 0 LINE",
"632 0 LINE",
"632 714 LINE",
"562 714 LINE"
);
}
);
width = 747;
}
);
note = H;
unicode = 0048;
},
{
glyphname = I;
lastChange = "2017-11-01 11:13:03 +0000";
layers = (
{
layerId = "A6EA9C16-C626-4B38-A32D-13618352FA56";
paths = (
{
closed = 1;
nodes = (
"116 714 LINE",
"116 0 LINE",
"185 0 LINE",
"185 714 LINE"
);
}
);
width = 301;
}
);
note = I;
unicode = 0049;
},
{
glyphname = J;
lastChange = "2017-11-01 11:13:03 +0000";
layers = (
{
layerId = "A6EA9C16-C626-4B38-A32D-13618352FA56";
paths = (
{
closed = 1;
nodes = (
"287 235 LINE SMOOTH",
"287 127 OFFCURVE",
"220 56 OFFCURVE",
"120 56 CURVE SMOOTH",
"98 56 OFFCURVE",
"79 58 OFFCURVE",
"62 63 CURVE",
"57 -3 LINE",
"78 -8 OFFCURVE",
"97 -10 OFFCURVE",
"114 -10 CURVE SMOOTH",
"262 -10 OFFCURVE",
"357 85 OFFCURVE",
"357 240 CURVE SMOOTH",
"357 714 LINE",
"63 714 LINE",
"63 650 LINE",
"287 650 LINE"
);
}
);
width = 459;
}
);
note = J;
unicode = 004A;
},
{
glyphname = K;
lastChange = "2017-11-01 11:13:03 +0000";
layers = (
{
layerId = "A6EA9C16-C626-4B38-A32D-13618352FA56";
paths = (
{
closed = 1;
nodes = (
"115 0 LINE",
"185 0 LINE",
"185 714 LINE",
"115 714 LINE"
);
},
{
closed = 1;
nodes = (
"310 394 LINE",
"610 714 LINE",
"523 714 LINE",
"223 395 LINE",
"534 0 LINE",
"621 0 LINE"
);
}
);
width = 641;
}
);
note = K;
unicode = 004B;
},
{
glyphname = L;
lastChange = "2017-11-01 11:13:03 +0000";
layers = (
{
layerId = "A6EA9C16-C626-4B38-A32D-13618352FA56";
paths = (
{
closed = 1;
nodes = (
"185 65 LINE",
"185 714 LINE",
"116 714 LINE",
"116 0 LINE",
"505 0 LINE",
"505 65 LINE"
);
}
);
width = 547;
}
);
note = L;
unicode = 004C;
},
{
glyphname = M;
lastChange = "2017-11-01 11:13:03 +0000";
layers = (
{
layerId = "A6EA9C16-C626-4B38-A32D-13618352FA56";
paths = (
{
closed = 1;
nodes = (
"606 157 LINE",
"606 0 LINE",
"676 0 LINE",
"676 714 LINE",
"599 714 LINE",
"393 295 LINE",
"192 714 LINE",
"115 714 LINE",
"115 0 LINE",
"180 0 LINE",
"180 151 LINE",
"175 599 LINE",
"363 203 LINE",
"421 203 LINE",
"612 598 LINE"
);
}
);
width = 791;
}
);
note = M;
unicode = 004D;
},
{
glyphname = N;
lastChange = "2017-11-01 11:13:03 +0000";
layers = (
{
layerId = "A6EA9C16-C626-4B38-A32D-13618352FA56";
paths = (
{
closed = 1;
nodes = (
"602 714 LINE",
"602 407 LINE",
"606 143 LINE",
"185 714 LINE",
"115 714 LINE",
"115 0 LINE",
"182 0 LINE",
"182 367 LINE",
"178 611 LINE",
"620 0 LINE",
"669 0 LINE",
"669 714 LINE"
);
}
);
width = 784;
}
);
note = N;
unicode = 004E;
},
{
glyphname = O;
lastChange = "2017-11-01 11:13:03 +0000";
layers = (
{
layerId = "A6EA9C16-C626-4B38-A32D-13618352FA56";
paths = (
{
closed = 1;
nodes = (
"729 568 OFFCURVE",
"603 724 OFFCURVE",
"404 724 CURVE SMOOTH",
"204 724 OFFCURVE",
"78 578 OFFCURVE",
"78 357 CURVE SMOOTH",
"78 141 OFFCURVE",
"214 -10 OFFCURVE",
"402 -10 CURVE SMOOTH",
"603 -10 OFFCURVE",
"729 137 OFFCURVE",
"729 357 CURVE SMOOTH"
);
},
{
closed = 1;
nodes = (
"655 176 OFFCURVE",
"559 56 OFFCURVE",
"408 56 CURVE SMOOTH",
"257 56 OFFCURVE",
"153 173 OFFCURVE",
"153 354 CURVE SMOOTH",
"153 547 OFFCURVE",
"246 658 OFFCURVE",
"399 658 CURVE SMOOTH",
"548 658 OFFCURVE",
"655 541 OFFCURVE",
"655 361 CURVE SMOOTH"
);
}
);
width = 807;
}
);
note = O;
unicode = 004F;
},
{
glyphname = P;
lastChange = "2017-11-01 11:13:03 +0000";
layers = (
{
layerId = "A6EA9C16-C626-4B38-A32D-13618352FA56";
paths = (
{
closed = 1;
nodes = (
"462 288 OFFCURVE",
"561 360 OFFCURVE",
"561 501 CURVE SMOOTH",
"561 632 OFFCURVE",
"469 714 OFFCURVE",
"305 714 CURVE SMOOTH",
"116 714 LINE",
"116 0 LINE",
"185 0 LINE",
"185 288 LINE",
"285 288 LINE SMOOTH"
);
},
{
closed = 1;
nodes = (
"422 650 OFFCURVE",
"488 597 OFFCURVE",
"488 502 CURVE SMOOTH",
"488 401 OFFCURVE",
"421 351 OFFCURVE",
"286 351 CURVE SMOOTH",
"185 351 LINE",
"185 650 LINE",
"297 650 LINE SMOOTH"
);
}
);
width = 624;
}
);
note = P;
unicode = 0050;
},
{
glyphname = Q;
lastChange = "2017-11-01 11:13:03 +0000";
layers = (
{
layerId = "A6EA9C16-C626-4B38-A32D-13618352FA56";
paths = (
{
closed = 1;
nodes = (
"729 568 OFFCURVE",
"603 724 OFFCURVE",
"404 724 CURVE SMOOTH",
"204 724 OFFCURVE",
"78 578 OFFCURVE",
"78 357 CURVE SMOOTH",
"78 141 OFFCURVE",
"214 -10 OFFCURVE",
"402 -10 CURVE SMOOTH",
"479 -10 OFFCURVE",
"544 10 OFFCURVE",
"598 51 CURVE",
"642 0 LINE",
"727 0 LINE",
"645 95 LINE",
"701 162 OFFCURVE",
"729 249 OFFCURVE",
"729 357 CURVE SMOOTH"
);
},
{
closed = 1;
nodes = (
"512 72 OFFCURVE",
"464 56 OFFCURVE",
"408 56 CURVE SMOOTH",
"257 56 OFFCURVE",
"153 173 OFFCURVE",
"153 354 CURVE SMOOTH",
"153 547 OFFCURVE",
"246 658 OFFCURVE",
"399 658 CURVE SMOOTH",
"548 658 OFFCURVE",
"655 541 OFFCURVE",
"655 361 CURVE SMOOTH",
"655 274 OFFCURVE",
"635 204 OFFCURVE",
"596 150 CURVE",
"480 283 LINE",
"396 283 LINE",
"553 103 LINE"
);
}
);
width = 807;
}
);
note = Q;
unicode = 0051;
},
{
glyphname = R;
lastChange = "2017-11-01 11:13:03 +0000";
layers = (
{
layerId = "A6EA9C16-C626-4B38-A32D-13618352FA56";
paths = (
{
closed = 1;
nodes = (
"511 334 OFFCURVE",
"561 400 OFFCURVE",
"561 501 CURVE SMOOTH",
"561 632 OFFCURVE",
"469 714 OFFCURVE",
"304 714 CURVE SMOOTH",
"115 714 LINE",
"115 0 LINE",
"185 0 LINE",
"185 288 LINE",
"284 288 LINE SMOOTH",
"311 288 OFFCURVE",
"330 289 OFFCURVE",
"342 290 CURVE",
"523 0 LINE",
"606 0 LINE",
"410 304 LINE"
);
},
{
closed = 1;
nodes = (
"421 650 OFFCURVE",
"488 597 OFFCURVE",
"488 502 CURVE SMOOTH",
"488 401 OFFCURVE",
"420 351 OFFCURVE",
"285 351 CURVE SMOOTH",
"185 351 LINE",
"185 650 LINE",
"296 650 LINE SMOOTH"
);
}
);
width = 651;
}
);
note = R;
unicode = 0052;
},
{
glyphname = S;
lastChange = "2017-11-01 11:13:03 +0000";
layers = (
{
layerId = "A6EA9C16-C626-4B38-A32D-13618352FA56";
paths = (
{
closed = 1;
nodes = (
"514 270 OFFCURVE",
"467 335 OFFCURVE",
"373 373 CURVE SMOOTH",
"247 425 LINE SMOOTH",
"183 450 OFFCURVE",
"150 480 OFFCURVE",
"150 539 CURVE SMOOTH",
"150 607 OFFCURVE",
"208 658 OFFCURVE",
"305 658 CURVE SMOOTH",
"363 658 OFFCURVE",
"420 642 OFFCURVE",
"475 609 CURVE",
"491 683 LINE",
"430 710 OFFCURVE",
"368 724 OFFCURVE",
"304 724 CURVE SMOOTH",
"171 724 OFFCURVE",
"78 644 OFFCURVE",
"78 539 CURVE SMOOTH",
"78 452 OFFCURVE",
"123 401 OFFCURVE",
"222 358 CURVE SMOOTH",
"343 308 LINE SMOOTH",
"408 280 OFFCURVE",
"441 237 OFFCURVE",
"441 178 CURVE SMOOTH",
"441 105 OFFCURVE",
"379 56 OFFCURVE",
"271 56 CURVE SMOOTH",
"207 56 OFFCURVE",
"142 76 OFFCURVE",
"76 115 CURVE",
"67 38 LINE",
"131 6 OFFCURVE",
"198 -10 OFFCURVE",
"268 -10 CURVE SMOOTH",
"423 -10 OFFCURVE",
"514 63 OFFCURVE",
"514 179 CURVE SMOOTH"
);
}
);
width = 575;
}
);
note = S;
unicode = 0053;
},
{
glyphname = T;
lastChange = "2017-11-01 11:13:03 +0000";
layers = (
{
layerId = "A6EA9C16-C626-4B38-A32D-13618352FA56";
paths = (
{
closed = 1;
nodes = (
"498 714 LINE",
"30 714 LINE",
"30 650 LINE",
"229 650 LINE",
"229 0 LINE",
"299 0 LINE",
"299 650 LINE",
"498 650 LINE"
);
}
);
width = 528;
}
);
note = T;
unicode = 0054;
},
{
glyphname = U;
lastChange = "2017-11-01 11:13:03 +0000";
layers = (
{
layerId = "A6EA9C16-C626-4B38-A32D-13618352FA56";
paths = (
{
closed = 1;
nodes = (
"550 126 OFFCURVE",
"475 56 OFFCURVE",
"360 56 CURVE SMOOTH",
"247 56 OFFCURVE",
"172 125 OFFCURVE",
"172 246 CURVE SMOOTH",
"172 714 LINE",
"102 714 LINE",
"102 252 LINE SMOOTH",
"102 87 OFFCURVE",
"204 -10 OFFCURVE",
"360 -10 CURVE SMOOTH",
"516 -10 OFFCURVE",
"618 86 OFFCURVE",
"618 253 CURVE SMOOTH",
"618 714 LINE",
"550 714 LINE",
"550 247 LINE SMOOTH"
);
}
);
width = 720;
}
);
note = U;
unicode = 0055;
},
{
glyphname = V;
lastChange = "2017-11-01 11:13:03 +0000";
layers = (
{
layerId = "A6EA9C16-C626-4B38-A32D-13618352FA56";
paths = (
{
closed = 1;
nodes = (
"239 342 LINE",
"105 714 LINE",
"30 714 LINE",
"291 0 LINE",
"356 0 LINE",
"618 714 LINE",
"542 714 LINE",
"409 341 LINE",
"324 92 LINE"
);
}
);
width = 648;
}
);
note = V;
unicode = 0056;
},
{
glyphname = W;
lastChange = "2017-11-01 11:13:03 +0000";
layers = (
{
layerId = "A6EA9C16-C626-4B38-A32D-13618352FA56";
paths = (
{
closed = 1;
nodes = (
"604 120 OFFCURVE",
"590 160 OFFCURVE",
"571 213 CURVE SMOOTH",
"552 266 OFFCURVE",
"537 305 OFFCURVE",
"528 332 CURVE",
"495 420 LINE",
"605 714 LINE",
"535 714 LINE",
"460 495 LINE",
"381 714 LINE",
"312 714 LINE",
"421 423 LINE",
"390 334 LINE SMOOTH",
"371 281 OFFCURVE",
"342 200 OFFCURVE",
"305 92 CURVE",
"103 714 LINE",
"29 714 LINE",
"271 0 LINE",
"335 0 LINE",
"457 337 LINE",
"580 0 LINE",
"645 0 LINE",
"888 714 LINE",
"813 714 LINE",
"689 335 LINE",
"613 93 LINE"
);
}
);
width = 917;
}
);
note = W;
unicode = 0057;
},
{
glyphname = X;
lastChange = "2017-11-01 11:13:03 +0000";
layers = (
{
layerId = "A6EA9C16-C626-4B38-A32D-13618352FA56";
paths = (
{
closed = 1;
nodes = (
"482 714 LINE",
"303 425 LINE",
"121 714 LINE",
"41 714 LINE",
"260 374 LINE",
"24 0 LINE",
"105 0 LINE",
"300 320 LINE",
"498 0 LINE",
"580 0 LINE",
"342 373 LINE",
"561 714 LINE"
);
}
);
width = 603;
}
);
note = X;
unicode = 0058;
},
{
glyphname = Y;
lastChange = "2017-11-01 11:13:03 +0000";
layers = (
{
layerId = "A6EA9C16-C626-4B38-A32D-13618352FA56";
paths = (
{
closed = 1;
nodes = (
"267 304 LINE",
"267 0 LINE",
"337 0 LINE",
"337 308 LINE",
"575 714 LINE",
"499 714 LINE",
"302 375 LINE",
"106 714 LINE",
"29 714 LINE"
);
}
);
width = 604;
}
);
note = Y;
unicode = 0059;
},
{
glyphname = Z;
lastChange = "2017-11-01 11:13:03 +0000";
layers = (
{
layerId = "A6EA9C16-C626-4B38-A32D-13618352FA56";
paths = (
{
closed = 1;
nodes = (
"533 655 LINE",
"533 714 LINE",
"71 714 LINE",
"71 650 LINE",
"449 650 LINE",
"58 59 LINE",
"58 0 LINE",
"544 0 LINE",
"544 64 LINE",
"142 64 LINE"
);
}
);
width = 601;
}
);
note = Z;
unicode = 005A;
},
{
glyphname = bracketleft;
lastChange = "2017-11-01 11:13:03 +0000";
layers = (
{
layerId = "A6EA9C16-C626-4B38-A32D-13618352FA56";
paths = (
{
closed = 1;
nodes = (
"287 -200 LINE",
"287 -142 LINE",
"141 -142 LINE",
"141 682 LINE",
"287 682 LINE",
"287 741 LINE",
"82 741 LINE",
"82 -200 LINE"
);
}
);
width = 320;
}
);
note = bracketleft;
unicode = 005B;
},
{
glyphname = backslash;
lastChange = "2017-11-01 11:13:03 +0000";
layers = (
{
layerId = "A6EA9C16-C626-4B38-A32D-13618352FA56";
paths = (
{
closed = 1;
nodes = (
"28 714 LINE",
"334 0 LINE",
"403 0 LINE",
"97 714 LINE"
);
}
);
width = 431;
}
);
note = backslash;
unicode = 005C;
},
{
glyphname = bracketright;
lastChange = "2017-11-01 11:13:03 +0000";
layers = (
{
layerId = "A6EA9C16-C626-4B38-A32D-13618352FA56";
paths = (
{
closed = 1;
nodes = (
"179 683 LINE",
"179 -142 LINE",
"34 -142 LINE",
"34 -200 LINE",
"238 -200 LINE",
"238 742 LINE",
"34 742 LINE",
"34 683 LINE"
);
}
);
width = 320;
}
);
note = bracketright;
unicode = 005D;
},
{
glyphname = asciicircum;
lastChange = "2017-11-01 11:13:03 +0000";
layers = (
{
layerId = "A6EA9C16-C626-4B38-A32D-13618352FA56";
paths = (
{
closed = 1;
nodes = (
"140 245 LINE",
"302 633 LINE",
"463 245 LINE",
"532 245 LINE",
"324 714 LINE",
"279 714 LINE",
"72 245 LINE"
);
}
);
width = 602;
}
);
note = asciicircum;
unicode = 005E;
},
{
glyphname = underscore;
lastChange = "2017-11-01 11:13:03 +0000";
layers = (
{
layerId = "A6EA9C16-C626-4B38-A32D-13618352FA56";
paths = (
{
closed = 1;
nodes = (
"515 -143 LINE",
"515 -83 LINE",
"15 -83 LINE",
"15 -143 LINE"
);
}
);
width = 530;
}
);
note = underscore;
unicode = 005F;
},
{
glyphname = grave;
lastChange = "2017-11-01 11:13:03 +0000";
layers = (
{
layerId = "A6EA9C16-C626-4B38-A32D-13618352FA56";
paths = (
{
closed = 1;
nodes = (
"291 602 LINE",
"339 602 LINE",
"272 782 LINE",
"181 782 LINE"
);
}
);
width = 530;
}
);
note = grave;
unicode = 0060;
},
{
glyphname = a;
lastChange = "2017-11-01 11:13:03 +0000";
layers = (
{
layerId = "A6EA9C16-C626-4B38-A32D-13618352FA56";
paths = (
{
closed = 1;
nodes = (
"414 56 OFFCURVE",
"420 26 OFFCURVE",
"428 0 CURVE",
"504 0 LINE",
"489 47 OFFCURVE",
"481 95 OFFCURVE",
"481 144 CURVE SMOOTH",
"481 363 LINE SMOOTH",
"481 496 OFFCURVE",
"404 562 OFFCURVE",
"284 562 CURVE SMOOTH",
"225 562 OFFCURVE",
"164 546 OFFCURVE",
"99 515 CURVE",
"109 446 LINE",
"170 479 OFFCURVE",
"227 495 OFFCURVE",
"280 495 CURVE SMOOTH",
"368 495 OFFCURVE",
"411 454 OFFCURVE",
"411 359 CURVE SMOOTH",
"411 333 LINE",
"255 308 LINE SMOOTH",
"127 288 OFFCURVE",
"62 236 OFFCURVE",
"62 143 CURVE SMOOTH",
"62 48 OFFCURVE",
"127 -10 OFFCURVE",
"230 -10 CURVE SMOOTH",
"309 -10 OFFCURVE",
"369 24 OFFCURVE",
"411 91 CURVE"
);
},
{
closed = 1;
nodes = (
"411 135 OFFCURVE",
"353 53 OFFCURVE",
"245 53 CURVE SMOOTH",
"178 53 OFFCURVE",
"136 87 OFFCURVE",
"136 146 CURVE SMOOTH",
"136 206 OFFCURVE",
"179 235 OFFCURVE",
"268 250 CURVE SMOOTH",
"411 275 LINE",
"411 260 LINE SMOOTH"
);
}
);
width = 585;
}
);
note = a;
unicode = 0061;
},
{
glyphname = b;
lastChange = "2017-11-01 11:13:03 +0000";
layers = (
{
layerId = "A6EA9C16-C626-4B38-A32D-13618352FA56";
paths = (
{
closed = 1;
nodes = (
"174 416 OFFCURVE",
"245 497 OFFCURVE",
"354 497 CURVE SMOOTH",
"466 497 OFFCURVE",
"530 411 OFFCURVE",
"530 275 CURVE SMOOTH",
"530 136 OFFCURVE",
"459 55 OFFCURVE",
"351 55 CURVE SMOOTH",
"240 55 OFFCURVE",
"174 132 OFFCURVE",
"174 279 CURVE SMOOTH"
);
},
{
closed = 1;
nodes = (
"217 26 OFFCURVE",
"280 -10 OFFCURVE",
"363 -10 CURVE SMOOTH",
"512 -10 OFFCURVE",
"606 109 OFFCURVE",
"606 277 CURVE SMOOTH",
"606 453 OFFCURVE",
"514 562 OFFCURVE",
"363 562 CURVE SMOOTH",
"286 562 OFFCURVE",
"216 524 OFFCURVE",
"176 456 CURVE",
"176 742 LINE",
"106 742 LINE",
"106 0 LINE",
"176 0 LINE",
"176 97 LINE"
);
}
);
width = 679;
}
);
note = b;
unicode = 0062;
},
{
glyphname = c;
lastChange = "2017-11-01 11:13:03 +0000";
layers = (
{
layerId = "A6EA9C16-C626-4B38-A32D-13618352FA56";
paths = (
{
closed = 1;
nodes = (
"407 -10 OFFCURVE",
"457 -2 OFFCURVE",
"496 15 CURVE",
"487 83 LINE",
"445 65 OFFCURVE",
"400 56 OFFCURVE",
"352 56 CURVE SMOOTH",
"225 56 OFFCURVE",
"141 140 OFFCURVE",
"141 273 CURVE SMOOTH",
"141 417 OFFCURVE",
"218 496 OFFCURVE",
"350 496 CURVE SMOOTH",
"390 496 OFFCURVE",
"433 487 OFFCURVE",
"480 470 CURVE",
"489 540 LINE",
"450 555 OFFCURVE",
"404 562 OFFCURVE",
"349 562 CURVE SMOOTH",
"180 562 OFFCURVE",
"65 450 OFFCURVE",
"65 275 CURVE SMOOTH",
"65 100 OFFCURVE",
"187 -10 OFFCURVE",
"347 -10 CURVE SMOOTH"
);
}
);
width = 537;
}
);
note = c;
unicode = 0063;
},
{
glyphname = d;
lastChange = "2017-11-01 11:13:03 +0000";
layers = (
{
layerId = "A6EA9C16-C626-4B38-A32D-13618352FA56";
paths = (
{
closed = 1;
nodes = (
"505 132 OFFCURVE",
"439 55 OFFCURVE",
"328 55 CURVE SMOOTH",
"220 55 OFFCURVE",
"149 136 OFFCURVE",
"149 275 CURVE SMOOTH",
"149 411 OFFCURVE",
"214 497 OFFCURVE",
"325 497 CURVE SMOOTH",
"434 497 OFFCURVE",
"505 416 OFFCURVE",
"505 279 CURVE SMOOTH"
);
},
{
closed = 1;
nodes = (
"578 45 OFFCURVE",
"574 93 OFFCURVE",
"574 144 CURVE SMOOTH",
"574 742 LINE",
"503 742 LINE",
"503 456 LINE",
"463 524 OFFCURVE",
"394 562 OFFCURVE",
"317 562 CURVE SMOOTH",
"166 562 OFFCURVE",
"73 452 OFFCURVE",
"73 277 CURVE SMOOTH",
"73 109 OFFCURVE",
"166 -10 OFFCURVE",
"317 -10 CURVE SMOOTH",
"400 -10 OFFCURVE",
"462 26 OFFCURVE",
"503 97 CURVE",
"503 92 OFFCURVE",
"508 27 OFFCURVE",
"512 0 CURVE",
"587 0 LINE"
);
}
);
width = 683;
}
);
note = d;
unicode = 0064;
},
{
glyphname = e;
lastChange = "2017-11-01 11:13:03 +0000";
layers = (
{
layerId = "A6EA9C16-C626-4B38-A32D-13618352FA56";
paths = (
{
closed = 1;
nodes = (
"410 -10 OFFCURVE",
"465 -1 OFFCURVE",
"516 18 CURVE",
"509 90 LINE",
"454 67 OFFCURVE",
"402 55 OFFCURVE",
"351 55 CURVE SMOOTH",
"226 55 OFFCURVE",
"144 138 OFFCURVE",
"144 277 CURVE",
"538 277 LINE",
"541 290 OFFCURVE",
"543 308 OFFCURVE",
"543 330 CURVE SMOOTH",
"543 473 OFFCURVE",
"462 562 OFFCURVE",
"321 562 CURVE SMOOTH",
"184 562 OFFCURVE",
"70 450 OFFCURVE",
"70 277 CURVE SMOOTH",
"70 97 OFFCURVE",
"180 -10 OFFCURVE",
"351 -10 CURVE SMOOTH"
);
},
{
closed = 1;
nodes = (
"414 497 OFFCURVE",
"470 440 OFFCURVE",
"470 337 CURVE",
"149 337 LINE",
"160 430 OFFCURVE",
"231 497 OFFCURVE",
"322 497 CURVE SMOOTH"
);
}
);
width = 607;
}
);
note = e;
unicode = 0065;
},
{
glyphname = f;
lastChange = "2017-11-01 11:13:03 +0000";
layers = (
{
layerId = "A6EA9C16-C626-4B38-A32D-13618352FA56";
paths = (
{
closed = 1;
nodes = (
"30 492 LINE",
"141 492 LINE",
"141 0 LINE",
"211 0 LINE",
"211 492 LINE",
"385 492 LINE",
"394 552 LINE",
"211 552 LINE",
"211 582 LINE SMOOTH",
"211 658 OFFCURVE",
"246 696 OFFCURVE",
"317 696 CURVE SMOOTH",
"348 696 OFFCURVE",
"373 692 OFFCURVE",
"394 684 CURVE",
"399 751 LINE",
"373 758 OFFCURVE",
"345 762 OFFCURVE",
"316 762 CURVE SMOOTH",
"207 762 OFFCURVE",
"141 694 OFFCURVE",
"141 582 CURVE SMOOTH",
"141 552 LINE",
"30 552 LINE"
);
}
);
width = 406;
}
);
note = f;
unicode = 0066;
},
{
glyphname = g;
lastChange = "2017-11-01 11:13:03 +0000";
layers = (
{
layerId = "A6EA9C16-C626-4B38-A32D-13618352FA56";
paths = (
{
closed = 1;
nodes = (
"175 446 OFFCURVE",
"228 497 OFFCURVE",
"311 497 CURVE SMOOTH",
"386 497 OFFCURVE",
"441 442 OFFCURVE",
"441 365 CURVE SMOOTH",
"441 289 OFFCURVE",
"389 235 OFFCURVE",
"310 235 CURVE SMOOTH",
"233 235 OFFCURVE",
"175 286 OFFCURVE",
"175 365 CURVE SMOOTH"
);
},
{
closed = 1;
nodes = (
"234 -8 OFFCURVE",
"266 -6 OFFCURVE",
"311 -3 CURVE SMOOTH",
"356 0 OFFCURVE",
"388 2 OFFCURVE",
"409 2 CURVE SMOOTH",
"460 2 OFFCURVE",
"486 -21 OFFCURVE",
"486 -66 CURVE SMOOTH",
"486 -129 OFFCURVE",
"423 -177 OFFCURVE",
"310 -177 CURVE SMOOTH",
"201 -177 OFFCURVE",
"150 -138 OFFCURVE",
"150 -82 CURVE SMOOTH",
"150 -49 OFFCURVE",
"163 -24 OFFCURVE",
"190 -6 CURVE",
"197 -7 OFFCURVE",
"205 -8 OFFCURVE",
"215 -8 CURVE SMOOTH"
);
},
{
closed = 1;
nodes = (
"458 -240 OFFCURVE",
"554 -160 OFFCURVE",
"554 -59 CURVE SMOOTH",
"554 17 OFFCURVE",
"501 70 OFFCURVE",
"413 70 CURVE SMOOTH",
"392 70 OFFCURVE",
"359 68 OFFCURVE",
"313 65 CURVE SMOOTH",
"266 62 OFFCURVE",
"235 60 OFFCURVE",
"218 60 CURVE SMOOTH",
"201 60 OFFCURVE",
"187 64 OFFCURVE",
"176 72 CURVE SMOOTH",
"153 88 OFFCURVE",
"149 113 OFFCURVE",
"158 141 CURVE",
"163 162 OFFCURVE",
"178 180 OFFCURVE",
"203 194 CURVE",
"234 177 OFFCURVE",
"270 169 OFFCURVE",
"311 169 CURVE SMOOTH",
"427 169 OFFCURVE",
"514 248 OFFCURVE",
"514 355 CURVE SMOOTH",
"514 420 OFFCURVE",
"491 468 OFFCURVE",
"446 499 CURVE",
"591 492 LINE",
"600 552 LINE",
"486 552 LINE SMOOTH",
"460 552 OFFCURVE",
"430 554 OFFCURVE",
"396 557 CURVE SMOOTH",
"362 560 OFFCURVE",
"334 562 OFFCURVE",
"313 562 CURVE SMOOTH",
"188 562 OFFCURVE",
"103 484 OFFCURVE",
"103 364 CURVE SMOOTH",
"103 310 OFFCURVE",
"122 263 OFFCURVE",
"160 224 CURVE",
"111 197 OFFCURVE",
"87 159 OFFCURVE",
"87 112 CURVE SMOOTH",
"87 67 OFFCURVE",
"107 33 OFFCURVE",
"146 10 CURVE",
"103 -15 OFFCURVE",
"82 -51 OFFCURVE",
"82 -98 CURVE SMOOTH",
"82 -179 OFFCURVE",
"158 -240 OFFCURVE",
"295 -240 CURVE SMOOTH"
);
}
);
width = 626;
}
);
note = g;
unicode = 0067;
},
{
glyphname = h;
lastChange = "2017-11-01 11:13:03 +0000";
layers = (
{
layerId = "A6EA9C16-C626-4B38-A32D-13618352FA56";
paths = (
{
closed = 1;
nodes = (
"561 436 OFFCURVE",
"532 503 OFFCURVE",
"473 537 CURVE SMOOTH",
"444 554 OFFCURVE",
"407 562 OFFCURVE",
"362 562 CURVE SMOOTH",
"278 562 OFFCURVE",
"216 525 OFFCURVE",
"176 451 CURVE",
"176 741 LINE",
"106 741 LINE",
"106 0 LINE",
"176 0 LINE",
"176 248 LINE SMOOTH",
"176 392 OFFCURVE",
"218 497 OFFCURVE",
"354 497 CURVE SMOOTH",
"447 497 OFFCURVE",
"491 445 OFFCURVE",
"491 332 CURVE SMOOTH",
"491 0 LINE",
"561 0 LINE",
"561 335 LINE SMOOTH"
);
}
);
width = 662;
}
);
note = h;
unicode = 0068;
},
{
glyphname = i;
lastChange = "2017-11-01 11:13:03 +0000";
layers = (
{
layerId = "A6EA9C16-C626-4B38-A32D-13618352FA56";
paths = (
{
closed = 1;
nodes = (
"106 552 LINE",
"106 0 LINE",
"175 0 LINE",
"175 552 LINE"
);
},
{
closed = 1;
nodes = (
"95 667 OFFCURVE",
"114 650 OFFCURVE",
"141 650 CURVE SMOOTH",
"166 650 OFFCURVE",
"186 667 OFFCURVE",
"186 696 CURVE SMOOTH",
"186 727 OFFCURVE",
"166 742 OFFCURVE",
"141 742 CURVE SMOOTH",
"114 742 OFFCURVE",
"95 727 OFFCURVE",
"95 696 CURVE SMOOTH"
);
}
);
width = 281;
}
);
note = i;
unicode = 0069;
},
{
glyphname = j;
lastChange = "2017-11-01 11:13:03 +0000";
layers = (
{
layerId = "A6EA9C16-C626-4B38-A32D-13618352FA56";
paths = (
{
closed = 1;
nodes = (
"117 -132 OFFCURVE",
"91 -161 OFFCURVE",
"38 -161 CURVE SMOOTH",
"23 -161 OFFCURVE",
"6 -159 OFFCURVE",
"-12 -156 CURVE",
"-12 -218 LINE",
"5 -223 OFFCURVE",
"23 -226 OFFCURVE",
"41 -226 CURVE SMOOTH",
"134 -226 OFFCURVE",
"186 -174 OFFCURVE",
"186 -75 CURVE SMOOTH",
"186 552 LINE",
"117 552 LINE",
"117 -74 LINE SMOOTH"
);
},
{
closed = 1;
nodes = (
"106 667 OFFCURVE",
"125 650 OFFCURVE",
"152 650 CURVE SMOOTH",
"177 650 OFFCURVE",
"197 667 OFFCURVE",
"197 696 CURVE SMOOTH",
"197 727 OFFCURVE",
"177 742 OFFCURVE",
"152 742 CURVE SMOOTH",
"125 742 OFFCURVE",
"106 727 OFFCURVE",
"106 696 CURVE SMOOTH"
);
}
);
width = 289;
}
);
note = j;
unicode = 006A;
},
{
glyphname = k;
lastChange = "2017-11-01 11:13:03 +0000";
layers = (
{
layerId = "A6EA9C16-C626-4B38-A32D-13618352FA56";
paths = (
{
closed = 1;
nodes = (
"293 316 LINE",
"530 552 LINE",
"440 552 LINE",
"206 316 LINE",
"465 0 LINE",
"556 0 LINE"
);
},
{
closed = 1;
nodes = (
"106 0 LINE",
"175 0 LINE",
"175 741 LINE",
"106 741 LINE"
);
}
);
width = 573;
}
);
note = k;
unicode = 006B;
},
{
glyphname = l;
lastChange = "2017-11-01 11:13:03 +0000";
layers = (
{
layerId = "A6EA9C16-C626-4B38-A32D-13618352FA56";
paths = (
{
closed = 1;
nodes = (
"106 746 LINE",
"106 0 LINE",
"175 0 LINE",
"175 746 LINE"
);
}
);
width = 280;
}
);
note = l;
unicode = 006C;
},
{
glyphname = m;
lastChange = "2017-11-01 11:13:03 +0000";
layers = (
{
layerId = "A6EA9C16-C626-4B38-A32D-13618352FA56";
paths = (
{
closed = 1;
nodes = (
"500 409 OFFCURVE",
"537 497 OFFCURVE",
"645 497 CURVE SMOOTH",
"718 497 OFFCURVE",
"755 453 OFFCURVE",
"755 364 CURVE SMOOTH",
"755 0 LINE",
"825 0 LINE",
"825 369 LINE SMOOTH",
"825 444 OFFCURVE",
"805 498 OFFCURVE",
"764 531 CURVE",
"735 552 OFFCURVE",
"700 562 OFFCURVE",
"658 562 CURVE SMOOTH",
"582 562 OFFCURVE",
"525 527 OFFCURVE",
"488 456 CURVE",
"463 532 OFFCURVE",
"411 562 OFFCURVE",
"332 562 CURVE SMOOTH",
"266 562 OFFCURVE",
"214 530 OFFCURVE",
"175 467 CURVE",
"175 552 LINE",
"106 552 LINE",
"106 0 LINE",
"176 0 LINE",
"176 289 LINE SMOOTH",
"176 409 OFFCURVE",
"213 497 OFFCURVE",
"320 497 CURVE SMOOTH",
"396 497 OFFCURVE",
"431 455 OFFCURVE",
"431 364 CURVE SMOOTH",
"431 0 LINE",
"500 0 LINE",
"500 289 LINE SMOOTH"
);
}
);
width = 925;
}
);
note = m;
unicode = 006D;
},
{
glyphname = n;
lastChange = "2017-11-01 11:13:03 +0000";
layers = (
{
layerId = "A6EA9C16-C626-4B38-A32D-13618352FA56";
paths = (
{
closed = 1;
nodes = (
"561 435 OFFCURVE",
"532 502 OFFCURVE",
"473 536 CURVE SMOOTH",
"444 553 OFFCURVE",
"407 562 OFFCURVE",
"362 562 CURVE SMOOTH",
"278 562 OFFCURVE",
"216 525 OFFCURVE",
"175 451 CURVE",
"175 552 LINE",
"106 552 LINE",
"106 0 LINE",
"176 0 LINE",
"176 248 LINE SMOOTH",
"176 392 OFFCURVE",
"218 497 OFFCURVE",
"354 497 CURVE SMOOTH",
"447 497 OFFCURVE",
"491 445 OFFCURVE",
"491 332 CURVE SMOOTH",
"491 0 LINE",
"561 0 LINE",
"561 335 LINE SMOOTH"
);
}
);
width = 662;
}
);
note = n;
unicode = 006E;
},
{
glyphname = o;
lastChange = "2017-11-01 11:13:03 +0000";
layers = (
{
layerId = "A6EA9C16-C626-4B38-A32D-13618352FA56";
paths = (
{
closed = 1;
nodes = (
"149 421 OFFCURVE",
"210 497 OFFCURVE",
"322 497 CURVE SMOOTH",
"431 497 OFFCURVE",
"504 416 OFFCURVE",
"504 279 CURVE SMOOTH",
"504 142 OFFCURVE",
"438 55 OFFCURVE",
"329 55 CURVE SMOOTH",
"220 55 OFFCURVE",
"149 136 OFFCURVE",
"149 273 CURVE SMOOTH"
);
},
{
closed = 1;
nodes = (
"579 441 OFFCURVE",
"480 562 OFFCURVE",
"327 562 CURVE SMOOTH",
"172 562 OFFCURVE",
"73 452 OFFCURVE",
"73 276 CURVE SMOOTH",
"73 101 OFFCURVE",
"184 -10 OFFCURVE",
"324 -10 CURVE SMOOTH",
"480 -10 OFFCURVE",
"579 101 OFFCURVE",
"579 276 CURVE SMOOTH"
);
}
);
width = 652;
}
);
note = o;
unicode = 006F;
},
{
glyphname = p;
lastChange = "2017-11-01 11:13:03 +0000";
layers = (
{
layerId = "A6EA9C16-C626-4B38-A32D-13618352FA56";
paths = (
{
closed = 1;
nodes = (
"174 420 OFFCURVE",
"240 497 OFFCURVE",
"351 497 CURVE SMOOTH",
"459 497 OFFCURVE",
"530 416 OFFCURVE",
"530 277 CURVE SMOOTH",
"530 141 OFFCURVE",
"466 55 OFFCURVE",
"354 55 CURVE SMOOTH",
"245 55 OFFCURVE",
"174 136 OFFCURVE",
"174 273 CURVE SMOOTH"
);
},
{
closed = 1;
nodes = (
"106 -220 LINE",
"176 -220 LINE",
"176 96 LINE",
"216 28 OFFCURVE",
"286 -10 OFFCURVE",
"363 -10 CURVE SMOOTH",
"514 -10 OFFCURVE",
"606 99 OFFCURVE",
"606 275 CURVE SMOOTH",
"606 443 OFFCURVE",
"512 562 OFFCURVE",
"363 562 CURVE SMOOTH",
"280 562 OFFCURVE",
"217 526 OFFCURVE",
"176 455 CURVE",
"176 552 LINE",
"106 552 LINE"
);
}
);
width = 679;
}
);
note = p;
unicode = 0070;
},
{
glyphname = q;
lastChange = "2017-11-01 11:13:03 +0000";
layers = (
{
layerId = "A6EA9C16-C626-4B38-A32D-13618352FA56";
paths = (
{
closed = 1;
nodes = (
"505 136 OFFCURVE",
"434 55 OFFCURVE",
"325 55 CURVE SMOOTH",
"214 55 OFFCURVE",
"149 141 OFFCURVE",
"149 277 CURVE SMOOTH",
"149 416 OFFCURVE",
"220 497 OFFCURVE",
"328 497 CURVE SMOOTH",
"439 497 OFFCURVE",
"505 420 OFFCURVE",
"505 273 CURVE SMOOTH"
);
},
{
closed = 1;
nodes = (
"462 526 OFFCURVE",
"400 562 OFFCURVE",
"317 562 CURVE SMOOTH",
"166 562 OFFCURVE",
"73 443 OFFCURVE",
"73 275 CURVE SMOOTH",
"73 100 OFFCURVE",
"166 -10 OFFCURVE",
"317 -10 CURVE SMOOTH",
"394 -10 OFFCURVE",
"463 28 OFFCURVE",
"503 96 CURVE",
"503 -220 LINE",
"574 -220 LINE",
"574 552 LINE",
"503 552 LINE",
"503 455 LINE"
);
}
);
width = 681;
}
);
note = q;
unicode = 0071;
},
{
glyphname = r;
lastChange = "2017-11-01 11:13:03 +0000";
layers = (
{
layerId = "A6EA9C16-C626-4B38-A32D-13618352FA56";
paths = (
{
closed = 1;
nodes = (
"418 559 OFFCURVE",
"395 562 OFFCURVE",
"372 562 CURVE SMOOTH",
"285 562 OFFCURVE",
"220 521 OFFCURVE",
"175 440 CURVE",
"175 552 LINE",
"106 552 LINE",
"106 0 LINE",
"176 0 LINE",
"176 227 LINE SMOOTH",
"176 376 OFFCURVE",
"208 492 OFFCURVE",
"367 492 CURVE SMOOTH",
"389 492 OFFCURVE",
"412 488 OFFCURVE",
"436 480 CURVE",
"443 554 LINE"
);
}
);
width = 478;
}
);
note = r;
unicode = 0072;
},
{
glyphname = s;
lastChange = "2017-11-01 11:13:03 +0000";
layers = (
{
layerId = "A6EA9C16-C626-4B38-A32D-13618352FA56";
paths = (
{
closed = 1;
nodes = (
"455 207 OFFCURVE",
"423 257 OFFCURVE",
"336 293 CURVE SMOOTH",
"214 342 LINE SMOOTH",
"166 362 OFFCURVE",
"142 389 OFFCURVE",
"142 422 CURVE SMOOTH",
"142 467 OFFCURVE",
"183 496 OFFCURVE",
"264 496 CURVE SMOOTH",
"314 496 OFFCURVE",
"364 481 OFFCURVE",
"415 451 CURVE",
"424 527 LINE",
"381 550 OFFCURVE",
"328 562 OFFCURVE",
"263 562 CURVE SMOOTH",
"146 562 OFFCURVE",
"72 505 OFFCURVE",
"72 420 CURVE SMOOTH",
"72 355 OFFCURVE",
"110 307 OFFCURVE",
"187 276 CURVE SMOOTH",
"307 227 LINE SMOOTH",
"366 203 OFFCURVE",
"382 179 OFFCURVE",
"382 139 CURVE SMOOTH",
"382 84 OFFCURVE",
"342 56 OFFCURVE",
"261 56 CURVE SMOOTH",
"203 56 OFFCURVE",
"143 74 OFFCURVE",
"81 111 CURVE",
"70 34 LINE",
"125 5 OFFCURVE",
"189 -10 OFFCURVE",
"263 -10 CURVE SMOOTH",
"384 -10 OFFCURVE",
"455 43 OFFCURVE",
"455 138 CURVE SMOOTH"
);
}
);
width = 516;
}
);
note = s;
unicode = 0073;
},
{
glyphname = t;
lastChange = "2017-11-01 11:13:03 +0000";
layers = (
{
layerId = "A6EA9C16-C626-4B38-A32D-13618352FA56";
paths = (
{
closed = 1;
nodes = (
"402 552 LINE",
"199 552 LINE",
"199 689 LINE",
"129 665 LINE",
"129 552 LINE",
"18 552 LINE",
"18 493 LINE",
"129 493 LINE",
"129 167 LINE SMOOTH",
"129 49 OFFCURVE",
"190 -10 OFFCURVE",
"311 -10 CURVE SMOOTH",
"348 -10 OFFCURVE",
"380 -6 OFFCURVE",
"408 3 CURVE",
"405 72 LINE",
"370 61 OFFCURVE",
"340 56 OFFCURVE",
"313 56 CURVE SMOOTH",
"237 56 OFFCURVE",
"199 96 OFFCURVE",
"199 177 CURVE SMOOTH",
"199 493 LINE",
"392 493 LINE"
);
}
);
width = 447;
}
);
note = t;
unicode = 0074;
},
{
glyphname = u;
lastChange = "2017-11-01 11:13:03 +0000";
layers = (
{
layerId = "A6EA9C16-C626-4B38-A32D-13618352FA56";
paths = (
{
closed = 1;
nodes = (
"101 66 OFFCURVE",
"168 -10 OFFCURVE",
"301 -10 CURVE SMOOTH",
"382 -10 OFFCURVE",
"442 27 OFFCURVE",
"483 101 CURVE",
"483 0 LINE",
"552 0 LINE",
"552 552 LINE",
"482 552 LINE",
"482 304 LINE SMOOTH",
"482 143 OFFCURVE",
"422 55 OFFCURVE",
"310 55 CURVE SMOOTH",
"215 55 OFFCURVE",
"171 108 OFFCURVE",
"171 220 CURVE SMOOTH",
"171 552 LINE",
"101 552 LINE",
"101 217 LINE SMOOTH"
);
}
);
width = 658;
}
);
note = u;
unicode = 0075;
},
{
glyphname = v;
lastChange = "2017-11-01 11:13:03 +0000";
layers = (
{
layerId = "A6EA9C16-C626-4B38-A32D-13618352FA56";
paths = (
{
closed = 1;
nodes = (
"454 552 LINE",
"355 290 LINE",
"279 87 LINE",
"203 290 LINE",
"104 552 LINE",
"24 552 LINE",
"244 0 LINE",
"312 0 LINE",
"531 552 LINE"
);
}
);
width = 555;
}
);
note = v;
unicode = 0076;
},
{
glyphname = w;
lastChange = "2017-11-01 11:13:03 +0000";
layers = (
{
layerId = "A6EA9C16-C626-4B38-A32D-13618352FA56";
paths = (
{
closed = 1;
nodes = (
"714 552 LINE",
"544 87 LINE",
"447 337 LINE",
"534 552 LINE",
"464 552 LINE",
"409 408 LINE",
"355 552 LINE",
"283 552 LINE",
"369 342 LINE",
"348 283 LINE SMOOTH",
"331 239 OFFCURVE",
"307 174 OFFCURVE",
"275 87 CURVE",
"104 552 LINE",
"24 552 LINE",
"240 0 LINE",
"307 0 LINE",
"406 259 LINE",
"511 0 LINE",
"577 0 LINE",
"792 552 LINE"
);
}
);
width = 816;
}
);
note = w;
unicode = 0077;
},
{
glyphname = x;
lastChange = "2017-11-01 11:13:03 +0000";
layers = (
{
layerId = "A6EA9C16-C626-4B38-A32D-13618352FA56";
paths = (
{
closed = 1;
nodes = (
"120 0 LINE",
"278 232 LINE",
"440 0 LINE",
"529 0 LINE",
"327 281 LINE",
"519 552 LINE",
"436 552 LINE",
"287 332 LINE",
"135 552 LINE",
"47 552 LINE",
"238 284 LINE",
"35 0 LINE"
);
}
);
width = 564;
}
);
note = x;
unicode = 0078;
},
{
glyphname = y;
lastChange = "2017-11-01 11:13:03 +0000";
layers = (
{
layerId = "A6EA9C16-C626-4B38-A32D-13618352FA56";
paths = (
{
closed = 1;
nodes = (
"468 552 LINE",
"286 97 LINE",
"210 289 LINE",
"103 552 LINE",
"24 552 LINE",
"251 20 LINE",
"144 -220 LINE",
"223 -220 LINE",
"545 552 LINE"
);
}
);
width = 569;
}
);
note = y;
unicode = 0079;
},
{
glyphname = z;
lastChange = "2017-11-01 11:13:03 +0000";
layers = (
{
layerId = "A6EA9C16-C626-4B38-A32D-13618352FA56";
paths = (
{
closed = 1;
nodes = (
"473 492 LINE",
"473 552 LINE",
"76 552 LINE",
"76 492 LINE",
"387 492 LINE",
"56 54 LINE",
"56 0 LINE",
"480 0 LINE",
"480 60 LINE",
"145 60 LINE"
);
}
);
width = 530;
}
);
note = z;
unicode = 007A;
},
{
glyphname = braceleft;
lastChange = "2017-11-01 11:13:03 +0000";
layers = (
{
layerId = "A6EA9C16-C626-4B38-A32D-13618352FA56";
paths = (
{
closed = 1;
nodes = (
"102 239 OFFCURVE",
"130 212 OFFCURVE",
"130 145 CURVE SMOOTH",
"130 -51 LINE SMOOTH",
"130 -148 OFFCURVE",
"188 -200 OFFCURVE",
"285 -200 CURVE SMOOTH",
"295 -200 LINE",
"295 -141 LINE",
"285 -141 LINE SMOOTH",
"221 -141 OFFCURVE",
"189 -108 OFFCURVE",
"189 -43 CURVE SMOOTH",
"189 157 LINE SMOOTH",
"189 219 OFFCURVE",
"159 257 OFFCURVE",
"98 271 CURVE",
"159 285 OFFCURVE",
"189 323 OFFCURVE",
"189 385 CURVE SMOOTH",
"189 585 LINE SMOOTH",
"189 650 OFFCURVE",
"221 683 OFFCURVE",
"285 683 CURVE SMOOTH",
"295 683 LINE",
"295 742 LINE",
"285 742 LINE SMOOTH",
"188 742 OFFCURVE",
"130 690 OFFCURVE",
"130 593 CURVE SMOOTH",
"130 397 LINE SMOOTH",
"130 330 OFFCURVE",
"102 303 OFFCURVE",
"26 300 CURVE",
"26 242 LINE"
);
}
);
width = 320;
}
);
note = braceleft;
unicode = 007B;
},
{
glyphname = bar;
lastChange = "2017-11-01 11:13:03 +0000";
layers = (
{
layerId = "A6EA9C16-C626-4B38-A32D-13618352FA56";
paths = (
{
closed = 1;
nodes = (
"106 -200 LINE",
"165 -200 LINE",
"165 742 LINE",
"106 742 LINE"
);
}
);
width = 271;
}
);
note = bar;
unicode = 007C;
},
{
glyphname = braceright;
lastChange = "2017-11-01 11:13:03 +0000";
layers = (
{
layerId = "A6EA9C16-C626-4B38-A32D-13618352FA56";
paths = (
{
closed = 1;
nodes = (
"219 303 OFFCURVE",
"190 330 OFFCURVE",
"190 397 CURVE SMOOTH",
"190 593 LINE SMOOTH",
"190 690 OFFCURVE",
"132 742 OFFCURVE",
"36 742 CURVE SMOOTH",
"26 742 LINE",
"26 683 LINE",
"35 683 LINE SMOOTH",
"99 683 OFFCURVE",
"131 650 OFFCURVE",
"131 585 CURVE SMOOTH",
"131 385 LINE SMOOTH",
"131 323 OFFCURVE",
"162 285 OFFCURVE",
"223 271 CURVE",
"162 257 OFFCURVE",
"131 219 OFFCURVE",
"131 157 CURVE SMOOTH",
"131 -43 LINE SMOOTH",
"131 -108 OFFCURVE",
"99 -141 OFFCURVE",
"35 -141 CURVE SMOOTH",
"26 -141 LINE",
"26 -200 LINE",
"36 -200 LINE SMOOTH",
"132 -200 OFFCURVE",
"190 -148 OFFCURVE",
"190 -51 CURVE SMOOTH",
"190 145 LINE SMOOTH",
"190 212 OFFCURVE",
"219 239 OFFCURVE",
"295 242 CURVE",
"295 300 LINE"
);
}
);
width = 320;
}
);
note = braceright;
unicode = 007D;
},
{
glyphname = asciitilde;
lastChange = "2017-11-01 11:13:03 +0000";
layers = (
{
layerId = "A6EA9C16-C626-4B38-A32D-13618352FA56";
paths = (
{
closed = 1;
nodes = (
"142 416 OFFCURVE",
"105 404 OFFCURVE",
"70 381 CURVE",
"70 313 LINE",
"104 342 OFFCURVE",
"141 357 OFFCURVE",
"181 357 CURVE SMOOTH",
"210 357 OFFCURVE",
"245 348 OFFCURVE",
"286 331 CURVE SMOOTH",
"338 309 OFFCURVE",
"383 298 OFFCURVE",
"420 298 CURVE SMOOTH",
"459 298 OFFCURVE",
"496 310 OFFCURVE",
"531 333 CURVE",
"531 401 LINE",
"497 372 OFFCURVE",
"460 357 OFFCURVE",
"420 357 CURVE SMOOTH",
"393 357 OFFCURVE",
"358 366 OFFCURVE",
"315 384 CURVE SMOOTH",
"262 405 OFFCURVE",
"218 416 OFFCURVE",
"181 416 CURVE SMOOTH"
);
}
);
width = 602;
}
);
note = asciitilde;
unicode = 007E;
},
{
glyphname = exclamdown;
lastChange = "2017-11-01 11:13:03 +0000";
layers = (
{
layerId = "A6EA9C16-C626-4B38-A32D-13618352FA56";
paths = (
{
closed = 1;
nodes = (
"97 0 LINE",
"183 0 LINE",
"161 529 LINE",
"119 529 LINE"
);
},
{
closed = 1;
nodes = (
"87 638 OFFCURVE",
"111 617 OFFCURVE",
"140 617 CURVE SMOOTH",
"169 617 OFFCURVE",
"193 638 OFFCURVE",
"193 671 CURVE SMOOTH",
"193 702 OFFCURVE",
"168 724 OFFCURVE",
"140 724 CURVE SMOOTH",
"112 724 OFFCURVE",
"87 702 OFFCURVE",
"87 671 CURVE SMOOTH"
);
}
);
width = 280;
}
);
note = exclamdown;
unicode = 00A1;
},
{
glyphname = cent;
lastChange = "2017-11-01 11:13:03 +0000";
layers = (
{
layerId = "A6EA9C16-C626-4B38-A32D-13618352FA56";
paths = (
{
closed = 1;
nodes = (
"317 561 LINE",
"165 546 OFFCURVE",
"65 438 OFFCURVE",
"65 275 CURVE SMOOTH",
"65 111 OFFCURVE",
"170 4 OFFCURVE",
"317 -9 CURVE",
"317 -200 LINE",
"375 -200 LINE",
"375 -10 LINE",
"421 -8 OFFCURVE",
"461 0 OFFCURVE",
"496 15 CURVE",
"487 83 LINE",
"449 67 OFFCURVE",
"412 58 OFFCURVE",
"375 56 CURVE",
"375 495 LINE",
"406 493 OFFCURVE",
"441 485 OFFCURVE",
"480 470 CURVE",
"489 540 LINE",
"455 553 OFFCURVE",
"417 560 OFFCURVE",
"375 562 CURVE",
"375 742 LINE",
"317 742 LINE"
);
},
{
closed = 1;
nodes = (
"141 405 OFFCURVE",
"204 482 OFFCURVE",
"317 494 CURVE",
"317 58 LINE",
"209 73 OFFCURVE",
"141 152 OFFCURVE",
"141 273 CURVE SMOOTH"
);
}
);
width = 537;
}
);
note = cent;
unicode = 00A2;
},
{
glyphname = sterling;
lastChange = "2017-11-01 11:13:03 +0000";
layers = (
{
layerId = "A6EA9C16-C626-4B38-A32D-13618352FA56";
paths = (
{
closed = 1;
nodes = (
"145 141 OFFCURVE",
"118 90 OFFCURVE",
"63 61 CURVE",
"63 0 LINE",
"491 0 LINE",
"491 64 LINE",
"137 64 LINE",
"189 95 OFFCURVE",
"214 137 OFFCURVE",
"214 225 CURVE SMOOTH",
"214 338 LINE",
"418 338 LINE",
"427 396 LINE",
"214 396 LINE",
"214 480 LINE SMOOTH",
"214 587 OFFCURVE",
"282 658 OFFCURVE",
"378 658 CURVE SMOOTH",
"416 658 OFFCURVE",
"451 652 OFFCURVE",
"483 641 CURVE",
"490 708 LINE",
"457 719 OFFCURVE",
"422 724 OFFCURVE",
"385 724 CURVE SMOOTH",
"241 724 OFFCURVE",
"145 627 OFFCURVE",
"145 475 CURVE SMOOTH",
"145 396 LINE",
"64 396 LINE",
"64 338 LINE",
"145 338 LINE",
"145 216 LINE SMOOTH"
);
}
);
width = 554;
}
);
note = sterling;
unicode = 00A3;
},
{
glyphname = yen;
lastChange = "2017-11-01 11:13:03 +0000";
layers = (
{
layerId = "A6EA9C16-C626-4B38-A32D-13618352FA56";
paths = (
{
closed = 1;
nodes = (
"267 298 LINE",
"267 201 LINE",
"68 201 LINE",
"68 143 LINE",
"267 143 LINE",
"267 0 LINE",
"337 0 LINE",
"337 143 LINE",
"536 143 LINE",
"536 201 LINE",
"337 201 LINE",
"337 298 LINE",
"536 298 LINE",
"536 356 LINE",
"365 356 LINE",
"575 714 LINE",
"499 714 LINE",
"302 375 LINE",
"106 714 LINE",
"29 714 LINE",
"236 356 LINE",
"68 356 LINE",
"68 298 LINE"
);
}
);
width = 604;
}
);
note = yen;
unicode = 00A5;
},
{
glyphname = brokenbar;
lastChange = "2017-11-01 11:13:03 +0000";
layers = (
{
layerId = "A6EA9C16-C626-4B38-A32D-13618352FA56";
paths = (
{
closed = 1;
nodes = (
"106 -200 LINE",
"165 -200 LINE",
"165 162 LINE",
"106 162 LINE"
);
},
{
closed = 1;
nodes = (
"106 380 LINE",
"165 380 LINE",
"165 742 LINE",
"106 742 LINE"
);
}
);
width = 271;
}
);
note = brokenbar;
unicode = 00A6;
},
{
glyphname = section;
lastChange = "2017-11-01 11:13:03 +0000";
layers = (
{
layerId = "A6EA9C16-C626-4B38-A32D-13618352FA56";
paths = (
{
closed = 1;
nodes = (
"79 209 OFFCURVE",
"119 154 OFFCURVE",
"198 113 CURVE SMOOTH",
"306 56 LINE SMOOTH",
"359 27 OFFCURVE",
"385 -6 OFFCURVE",
"385 -44 CURVE SMOOTH",
"385 -99 OFFCURVE",
"341 -135 OFFCURVE",
"260 -135 CURVE SMOOTH",
"201 -135 OFFCURVE",
"141 -117 OFFCURVE",
"80 -82 CURVE",
"70 -156 LINE",
"123 -186 OFFCURVE",
"187 -201 OFFCURVE",
"262 -201 CURVE SMOOTH",
"386 -201 OFFCURVE",
"458 -139 OFFCURVE",
"458 -44 CURVE SMOOTH",
"458 16 OFFCURVE",
"426 66 OFFCURVE",
"362 105 CURVE",
"430 141 OFFCURVE",
"464 190 OFFCURVE",
"464 252 CURVE SMOOTH",
"464 327 OFFCURVE",
"430 381 OFFCURVE",
"337 426 CURVE SMOOTH",
"233 477 LINE SMOOTH",
"182 502 OFFCURVE",
"157 534 OFFCURVE",
"157 571 CURVE SMOOTH",
"157 622 OFFCURVE",
"197 658 OFFCURVE",
"276 658 CURVE SMOOTH",
"325 658 OFFCURVE",
"375 643 OFFCURVE",
"427 613 CURVE",
"436 684 LINE",
"389 711 OFFCURVE",
"336 724 OFFCURVE",
"275 724 CURVE SMOOTH",
"160 724 OFFCURVE",
"86 659 OFFCURVE",
"86 566 CURVE SMOOTH",
"86 510 OFFCURVE",
"115 464 OFFCURVE",
"174 428 CURVE",
"111 389 OFFCURVE",
"79 339 OFFCURVE",
"79 277 CURVE SMOOTH"
);
},
{
closed = 1;
nodes = (
"149 335 OFFCURVE",
"176 373 OFFCURVE",
"229 399 CURVE",
"308 361 LINE SMOOTH",
"365 332 OFFCURVE",
"393 296 OFFCURVE",
"393 252 CURVE SMOOTH",
"393 204 OFFCURVE",
"359 161 OFFCURVE",
"308 134 CURVE",
"226 178 LINE SMOOTH",
"175 205 OFFCURVE",
"149 240 OFFCURVE",
"149 285 CURVE SMOOTH"
);
}
);
width = 540;
}
);
note = section;
unicode = 00A7;
},
{
glyphname = dieresis;
lastChange = "2017-11-01 11:13:03 +0000";
layers = (
{
layerId = "A6EA9C16-C626-4B38-A32D-13618352FA56";
paths = (
{
closed = 1;
nodes = (
"198 650 OFFCURVE",
"218 668 OFFCURVE",
"218 696 CURVE SMOOTH",
"218 725 OFFCURVE",
"198 742 OFFCURVE",
"174 742 CURVE SMOOTH",
"149 742 OFFCURVE",
"128 725 OFFCURVE",
"128 696 CURVE SMOOTH",
"128 668 OFFCURVE",
"149 650 OFFCURVE",
"174 650 CURVE SMOOTH"
);
},
{
closed = 1;
nodes = (
"382 650 OFFCURVE",
"402 668 OFFCURVE",
"402 696 CURVE SMOOTH",
"402 725 OFFCURVE",
"382 742 OFFCURVE",
"358 742 CURVE SMOOTH",
"333 742 OFFCURVE",
"312 725 OFFCURVE",
"312 696 CURVE SMOOTH",
"312 668 OFFCURVE",
"333 650 OFFCURVE",
"358 650 CURVE SMOOTH"
);
}
);
width = 530;
}
);
note = dieresis;
unicode = 00A8;
},
{
glyphname = copyright;
lastChange = "2017-11-01 11:13:03 +0000";
layers = (
{
layerId = "A6EA9C16-C626-4B38-A32D-13618352FA56";
paths = (
{
closed = 1;
nodes = (
"485 145 OFFCURVE",
"523 153 OFFCURVE",
"558 169 CURVE",
"553 231 LINE",
"516 212 OFFCURVE",
"480 203 OFFCURVE",
"447 203 CURVE SMOOTH",
"366 203 OFFCURVE",
"298 260 OFFCURVE",
"298 355 CURVE SMOOTH",
"298 456 OFFCURVE",
"361 512 OFFCURVE",
"446 512 CURVE SMOOTH",
"479 512 OFFCURVE",
"513 503 OFFCURVE",
"548 486 CURVE",
"553 548 LINE",
"520 562 OFFCURVE",
"484 569 OFFCURVE",
"445 569 CURVE SMOOTH",
"324 569 OFFCURVE",
"235 485 OFFCURVE",
"235 356 CURVE SMOOTH",
"235 228 OFFCURVE",
"329 145 OFFCURVE",
"444 145 CURVE SMOOTH"
);
},
{
closed = 1;
nodes = (
"66 149 OFFCURVE",
"216 -10 OFFCURVE",
"433 -10 CURVE SMOOTH",
"646 -10 OFFCURVE",
"801 145 OFFCURVE",
"801 357 CURVE SMOOTH",
"801 565 OFFCURVE",
"649 724 OFFCURVE",
"433 724 CURVE SMOOTH",
"225 724 OFFCURVE",
"66 572 OFFCURVE",
"66 357 CURVE SMOOTH"
);
},
{
closed = 1;
nodes = (
"128 537 OFFCURVE",
"258 663 OFFCURVE",
"433 663 CURVE SMOOTH",
"613 663 OFFCURVE",
"739 532 OFFCURVE",
"739 357 CURVE SMOOTH",
"739 180 OFFCURVE",
"612 51 OFFCURVE",
"433 51 CURVE SMOOTH",
"252 51 OFFCURVE",
"128 184 OFFCURVE",
"128 357 CURVE SMOOTH"
);
}
);
width = 867;
}
);
note = copyright;
unicode = 00A9;
},
{
glyphname = ordfeminine;
lastChange = "2017-11-01 11:13:03 +0000";
layers = (
{
layerId = "A6EA9C16-C626-4B38-A32D-13618352FA56";
paths = (
{
closed = 1;
nodes = (
"324 331 OFFCURVE",
"318 363 OFFCURVE",
"318 390 CURVE SMOOTH",
"318 522 LINE SMOOTH",
"318 607 OFFCURVE",
"269 650 OFFCURVE",
"192 650 CURVE SMOOTH",
"151 650 OFFCURVE",
"111 640 OFFCURVE",
"71 619 CURVE",
"78 560 LINE",
"117 581 OFFCURVE",
"154 592 OFFCURVE",
"189 592 CURVE SMOOTH",
"236 592 OFFCURVE",
"259 568 OFFCURVE",
"259 520 CURVE SMOOTH",
"259 507 LINE",
"173 494 LINE SMOOTH",
"90 482 OFFCURVE",
"50 452 OFFCURVE",
"50 389 CURVE SMOOTH",
"50 328 OFFCURVE",
"92 289 OFFCURVE",
"159 289 CURVE SMOOTH",
"203 289 OFFCURVE",
"238 309 OFFCURVE",
"263 348 CURVE",
"266 327 OFFCURVE",
"270 310 OFFCURVE",
"274 295 CURVE",
"335 295 LINE"
);
},
{
closed = 1;
nodes = (
"259 384 OFFCURVE",
"225 341 OFFCURVE",
"169 341 CURVE SMOOTH",
"134 341 OFFCURVE",
"112 358 OFFCURVE",
"112 389 CURVE SMOOTH",
"112 420 OFFCURVE",
"136 440 OFFCURVE",
"183 449 CURVE SMOOTH",
"259 462 LINE",
"259 447 LINE SMOOTH"
);
}
);
width = 393;
}
);
note = ordfeminine;
unicode = 00AA;
},
{
glyphname = guillemotleft;
lastChange = "2017-11-01 11:13:03 +0000";
layers = (
{
layerId = "A6EA9C16-C626-4B38-A32D-13618352FA56";
paths = (
{
closed = 1;
nodes = (
"311 50 LINE",
"126 268 LINE",
"311 486 LINE",
"232 486 LINE",
"49 268 LINE",
"232 50 LINE"
);
},
{
closed = 1;
nodes = (
"495 50 LINE",
"310 268 LINE",
"495 486 LINE",
"416 486 LINE",
"233 268 LINE",
"416 50 LINE"
);
}
);
width = 534;
}
);
note = guillemotleft;
unicode = 00AB;
},
{
glyphname = logicalnot;
lastChange = "2017-11-01 11:13:03 +0000";
layers = (
{
layerId = "A6EA9C16-C626-4B38-A32D-13618352FA56";
paths = (
{
closed = 1;
nodes = (
"462 428 LINE",
"462 228 LINE",
"520 228 LINE",
"520 487 LINE",
"51 487 LINE",
"51 428 LINE"
);
}
);
width = 572;
}
);
note = logicalnot;
unicode = 00AC;
},
{
glyphname = uni00AD;
lastChange = "2017-11-01 11:13:03 +0000";
layers = (
{
layerId = "A6EA9C16-C626-4B38-A32D-13618352FA56";
paths = (
{
closed = 1;
nodes = (
"315 299 LINE",
"55 299 LINE",
"55 236 LINE",
"315 236 LINE"
);
}
);
width = 370;
}
);
note = uni00AD;
unicode = 00AD;
},
{
glyphname = registered;
lastChange = "2017-11-01 11:13:03 +0000";
layers = (
{
layerId = "A6EA9C16-C626-4B38-A32D-13618352FA56";
paths = (
{
closed = 1;
nodes = (
"533 151 LINE",
"604 151 LINE",
"491 324 LINE",
"544 344 OFFCURVE",
"570 381 OFFCURVE",
"570 435 CURVE SMOOTH",
"570 514 OFFCURVE",
"516 563 OFFCURVE",
"417 563 CURVE SMOOTH",
"304 563 LINE",
"304 151 LINE",
"364 151 LINE",
"364 308 LINE",
"433 308 LINE"
);
},
{
closed = 1;
nodes = (
"475 507 OFFCURVE",
"508 481 OFFCURVE",
"508 437 CURVE SMOOTH",
"508 389 OFFCURVE",
"474 365 OFFCURVE",
"405 365 CURVE SMOOTH",
"364 365 LINE",
"364 507 LINE",
"411 507 LINE SMOOTH"
);
},
{
closed = 1;
nodes = (
"66 149 OFFCURVE",
"216 -10 OFFCURVE",
"433 -10 CURVE SMOOTH",
"646 -10 OFFCURVE",
"801 145 OFFCURVE",
"801 357 CURVE SMOOTH",
"801 565 OFFCURVE",
"649 724 OFFCURVE",
"433 724 CURVE SMOOTH",
"225 724 OFFCURVE",
"66 572 OFFCURVE",
"66 357 CURVE SMOOTH"
);
},
{
closed = 1;
nodes = (
"128 537 OFFCURVE",
"258 663 OFFCURVE",
"433 663 CURVE SMOOTH",
"613 663 OFFCURVE",
"739 532 OFFCURVE",
"739 357 CURVE SMOOTH",
"739 180 OFFCURVE",
"612 51 OFFCURVE",
"433 51 CURVE SMOOTH",
"252 51 OFFCURVE",
"128 184 OFFCURVE",
"128 357 CURVE SMOOTH"
);
}
);
width = 867;
}
);
note = registered;
unicode = 00AE;
},
{
glyphname = macron;
lastChange = "2017-11-01 11:13:03 +0000";
layers = (
{
layerId = "A6EA9C16-C626-4B38-A32D-13618352FA56";
paths = (
{
closed = 1;
nodes = (
"404 742 LINE",
"125 742 LINE",
"125 684 LINE",
"404 684 LINE"
);
}
);
width = 530;
}
);
note = macron;
unicode = 00AF;
},
{
glyphname = degree;
lastChange = "2017-11-01 11:13:03 +0000";
layers = (
{
layerId = "A6EA9C16-C626-4B38-A32D-13618352FA56";
paths = (
{
closed = 1;
nodes = (
"77 483 OFFCURVE",
"142 420 OFFCURVE",
"229 420 CURVE SMOOTH",
"313 420 OFFCURVE",
"381 483 OFFCURVE",
"381 572 CURVE SMOOTH",
"381 659 OFFCURVE",
"316 724 OFFCURVE",
"229 724 CURVE SMOOTH",
"142 724 OFFCURVE",
"77 659 OFFCURVE",
"77 572 CURVE SMOOTH"
);
},
{
closed = 1;
nodes = (
"134 631 OFFCURVE",
"173 671 OFFCURVE",
"230 671 CURVE SMOOTH",
"286 671 OFFCURVE",
"324 629 OFFCURVE",
"324 572 CURVE SMOOTH",
"324 515 OFFCURVE",
"286 473 OFFCURVE",
"230 473 CURVE SMOOTH",
"174 473 OFFCURVE",
"134 512 OFFCURVE",
"134 572 CURVE SMOOTH"
);
}
);
width = 458;
}
);
note = degree;
unicode = 00B0;
},
{
glyphname = plusminus;
lastChange = "2017-11-01 11:13:03 +0000";
layers = (
{
layerId = "A6EA9C16-C626-4B38-A32D-13618352FA56";
paths = (
{
closed = 1;
nodes = (
"255 449 LINE",
"51 449 LINE",
"51 390 LINE",
"255 390 LINE",
"255 208 LINE",
"315 208 LINE",
"315 390 LINE",
"520 390 LINE",
"520 449 LINE",
"315 449 LINE",
"315 632 LINE",
"255 632 LINE"
);
},
{
closed = 1;
nodes = (
"520 74 LINE",
"520 133 LINE",
"51 133 LINE",
"51 74 LINE"
);
}
);
width = 572;
}
);
note = plusminus;
unicode = 00B1;
},
{
glyphname = twosuperior;
lastChange = "2017-11-01 11:13:03 +0000";
layers = (
{
layerId = "A6EA9C16-C626-4B38-A32D-13618352FA56";
paths = (
{
closed = 1;
nodes = (
"116 677 OFFCURVE",
"154 690 OFFCURVE",
"191 690 CURVE SMOOTH",
"240 690 OFFCURVE",
"272 662 OFFCURVE",
"272 617 CURVE SMOOTH",
"272 596 OFFCURVE",
"265 576 OFFCURVE",
"252 555 CURVE SMOOTH",
"238 534 OFFCURVE",
"211 503 OFFCURVE",
"171 462 CURVE SMOOTH",
"56 344 LINE",
"56 295 LINE",
"350 295 LINE",
"350 351 LINE",
"137 351 LINE",
"219 431 LINE SMOOTH",
"308 518 OFFCURVE",
"334 557 OFFCURVE",
"334 616 CURVE SMOOTH",
"334 695 OFFCURVE",
"276 747 OFFCURVE",
"192 747 CURVE SMOOTH",
"149 747 OFFCURVE",
"108 735 OFFCURVE",
"69 711 CURVE",
"77 650 LINE"
);
}
);
width = 403;
}
);
note = twosuperior;
unicode = 00B2;
},
{
glyphname = threesuperior;
lastChange = "2017-11-01 11:13:03 +0000";
layers = (
{
layerId = "A6EA9C16-C626-4B38-A32D-13618352FA56";
paths = (
{
closed = 1;
nodes = (
"97 304 OFFCURVE",
"143 289 OFFCURVE",
"192 289 CURVE SMOOTH",
"285 289 OFFCURVE",
"347 340 OFFCURVE",
"347 420 CURVE SMOOTH",
"347 475 OFFCURVE",
"310 522 OFFCURVE",
"251 531 CURVE",
"306 550 OFFCURVE",
"334 582 OFFCURVE",
"334 627 CURVE SMOOTH",
"334 698 OFFCURVE",
"273 747 OFFCURVE",
"194 747 CURVE SMOOTH",
"151 747 OFFCURVE",
"109 735 OFFCURVE",
"70 710 CURVE",
"79 650 LINE",
"120 677 OFFCURVE",
"159 690 OFFCURVE",
"194 690 CURVE SMOOTH",
"242 690 OFFCURVE",
"272 662 OFFCURVE",
"272 626 CURVE SMOOTH",
"272 585 OFFCURVE",
"239 554 OFFCURVE",
"164 554 CURVE SMOOTH",
"119 554 LINE",
"119 503 LINE",
"169 503 LINE SMOOTH",
"248 503 OFFCURVE",
"285 470 OFFCURVE",
"285 422 CURVE SMOOTH",
"285 377 OFFCURVE",
"252 346 OFFCURVE",
"192 346 CURVE SMOOTH",
"151 346 OFFCURVE",
"112 362 OFFCURVE",
"73 393 CURVE",
"55 333 LINE"
);
}
);
width = 403;
}
);
note = threesuperior;
unicode = 00B3;
},
{
glyphname = acute;
lastChange = "2017-11-01 11:13:03 +0000";
layers = (
{
layerId = "A6EA9C16-C626-4B38-A32D-13618352FA56";
paths = (
{
closed = 1;
nodes = (
"350 782 LINE",
"259 782 LINE",
"192 602 LINE",
"240 602 LINE"
);
}
);
width = 530;
}
);
note = acute;
unicode = 00B4;
},
{
glyphname = mu;
lastChange = "2017-11-01 11:13:03 +0000";
layers = (
{
layerId = "A6EA9C16-C626-4B38-A32D-13618352FA56";
paths = (
{
closed = 1;
nodes = (
"200 10 OFFCURVE",
"245 -10 OFFCURVE",
"304 -10 CURVE SMOOTH",
"383 -10 OFFCURVE",
"447 32 OFFCURVE",
"486 101 CURVE",
"486 0 LINE",
"555 0 LINE",
"555 552 LINE",
"485 552 LINE",
"485 304 LINE SMOOTH",
"485 160 OFFCURVE",
"441 55 OFFCURVE",
"313 55 CURVE SMOOTH",
"218 55 OFFCURVE",
"174 108 OFFCURVE",
"174 220 CURVE SMOOTH",
"174 552 LINE",
"104 552 LINE",
"104 -220 LINE",
"174 -220 LINE",
"174 -134 LINE",
"167 49 LINE"
);
}
);
width = 661;
}
);
note = mu;
unicode = 00B5;
},
{
glyphname = paragraph;
lastChange = "2017-11-01 11:13:03 +0000";
layers = (
{
layerId = "A6EA9C16-C626-4B38-A32D-13618352FA56";
paths = (
{
closed = 1;
nodes = (
"63 362 OFFCURVE",
"160 272 OFFCURVE",
"293 272 CURVE SMOOTH",
"338 272 LINE",
"338 -220 LINE",
"397 -220 LINE",
"397 655 LINE",
"478 655 LINE",
"478 -220 LINE",
"537 -220 LINE",
"537 714 LINE",
"305 714 LINE SMOOTH",
"154 714 OFFCURVE",
"63 625 OFFCURVE",
"63 493 CURVE SMOOTH"
);
}
);
width = 652;
}
);
note = paragraph;
unicode = 00B6;
},
{
glyphname = periodcentered;
lastChange = "2017-11-01 11:13:03 +0000";
layers = (
{
layerId = "A6EA9C16-C626-4B38-A32D-13618352FA56";
paths = (
{
closed = 1;
nodes = (
"87 327 OFFCURVE",
"112 306 OFFCURVE",
"141 306 CURVE SMOOTH",
"169 306 OFFCURVE",
"193 327 OFFCURVE",
"193 359 CURVE SMOOTH",
"193 392 OFFCURVE",
"169 413 OFFCURVE",
"141 413 CURVE SMOOTH",
"112 413 OFFCURVE",
"87 392 OFFCURVE",
"87 359 CURVE SMOOTH"
);
}
);
width = 280;
}
);
note = periodcentered;
unicode = 00B7;
},
{
glyphname = cedilla;
lastChange = "2017-11-01 11:13:03 +0000";
layers = (
{
layerId = "A6EA9C16-C626-4B38-A32D-13618352FA56";
paths = (
{
closed = 1;
nodes = (
"180 -230 LINE",
"271 -230 LINE",
"338 -50 LINE",
"290 -50 LINE"
);
}
);
width = 530;
}
);
note = cedilla;
unicode = 00B8;
},
{
glyphname = onesuperior;
lastChange = "2017-11-01 11:13:03 +0000";
layers = (
{
layerId = "A6EA9C16-C626-4B38-A32D-13618352FA56";
paths = (
{
closed = 1;
nodes = (
"53 633 LINE",
"86 587 LINE",
"123 614 LINE",
"140 628 OFFCURVE",
"161 646 OFFCURVE",
"186 667 CURVE",
"186 295 LINE",
"244 295 LINE",
"244 741 LINE",
"196 741 LINE"
);
}
);
width = 343;
}
);
note = onesuperior;
unicode = 00B9;
},
{
glyphname = ordmasculine;
lastChange = "2017-11-01 11:13:03 +0000";
layers = (
{
layerId = "A6EA9C16-C626-4B38-A32D-13618352FA56";
paths = (
{
closed = 1;
nodes = (
"119 552 OFFCURVE",
"151 594 OFFCURVE",
"214 594 CURVE SMOOTH",
"275 594 OFFCURVE",
"315 548 OFFCURVE",
"315 471 CURVE SMOOTH",
"315 395 OFFCURVE",
"278 346 OFFCURVE",
"218 346 CURVE SMOOTH",
"158 346 OFFCURVE",
"119 391 OFFCURVE",
"119 468 CURVE SMOOTH"
);
},
{
closed = 1;
nodes = (
"378 574 OFFCURVE",
"314 650 OFFCURVE",
"217 650 CURVE SMOOTH",
"120 650 OFFCURVE",
"57 581 OFFCURVE",
"57 470 CURVE SMOOTH",
"57 361 OFFCURVE",
"127 289 OFFCURVE",
"215 289 CURVE SMOOTH",
"314 289 OFFCURVE",
"378 361 OFFCURVE",
"378 470 CURVE SMOOTH"
);
}
);
width = 433;
}
);
note = ordmasculine;
unicode = 00BA;
},
{
glyphname = guillemotright;
lastChange = "2017-11-01 11:13:03 +0000";
layers = (
{
layerId = "A6EA9C16-C626-4B38-A32D-13618352FA56";
paths = (
{
closed = 1;
nodes = (
"224 268 LINE",
"39 50 LINE",
"118 50 LINE",
"301 268 LINE",
"118 486 LINE",
"39 486 LINE"
);
},
{
closed = 1;
nodes = (
"408 268 LINE",
"223 50 LINE",
"302 50 LINE",
"485 268 LINE",
"302 486 LINE",
"223 486 LINE"
);
}
);
width = 534;
}
);
note = guillemotright;
unicode = 00BB;
},
{
glyphname = onequarter;
lastChange = "2017-11-01 11:13:03 +0000";
layers = (
{
layerId = "A6EA9C16-C626-4B38-A32D-13618352FA56";
paths = (
{
closed = 1;
nodes = (
"248 0 LINE",
"706 742 LINE",
"640 742 LINE",
"182 0 LINE"
);
},
{
closed = 1;
nodes = (
"53 633 LINE",
"86 587 LINE",
"123 614 LINE",
"140 628 OFFCURVE",
"161 646 OFFCURVE",
"186 667 CURVE",
"186 295 LINE",
"244 295 LINE",
"244 741 LINE",
"196 741 LINE"
);
},
{
closed = 1;
nodes = (
"785 447 LINE",
"728 447 LINE",
"514 149 LINE",
"514 101 LINE",
"727 101 LINE",
"727 1 LINE",
"785 1 LINE",
"785 101 LINE",
"847 101 LINE",
"847 158 LINE",
"785 158 LINE"
);
},
{
closed = 1;
nodes = (
"727 364 LINE",
"727 158 LINE",
"586 158 LINE",
"659 263 LINE"
);
}
);
width = 881;
}
);
note = onequarter;
unicode = 00BC;
},
{
glyphname = onehalf;
lastChange = "2017-11-01 11:13:03 +0000";
layers = (
{
layerId = "A6EA9C16-C626-4B38-A32D-13618352FA56";
paths = (
{
closed = 1;
nodes = (
"248 0 LINE",
"706 742 LINE",
"640 742 LINE",
"182 0 LINE"
);
},
{
closed = 1;
nodes = (
"53 633 LINE",
"86 587 LINE",
"123 614 LINE",
"140 628 OFFCURVE",
"161 646 OFFCURVE",
"186 667 CURVE",
"186 295 LINE",
"244 295 LINE",
"244 741 LINE",
"196 741 LINE"
);
},
{
closed = 1;
nodes = (
"649 383 OFFCURVE",
"687 396 OFFCURVE",
"724 396 CURVE SMOOTH",
"773 396 OFFCURVE",
"805 368 OFFCURVE",
"805 323 CURVE SMOOTH",
"805 302 OFFCURVE",
"798 282 OFFCURVE",
"785 261 CURVE SMOOTH",
"771 240 OFFCURVE",
"744 209 OFFCURVE",
"704 168 CURVE SMOOTH",
"589 50 LINE",
"589 1 LINE",
"883 1 LINE",
"883 57 LINE",
"670 57 LINE",
"752 137 LINE SMOOTH",
"841 224 OFFCURVE",
"867 263 OFFCURVE",
"867 322 CURVE SMOOTH",
"867 401 OFFCURVE",
"809 453 OFFCURVE",
"725 453 CURVE SMOOTH",
"682 453 OFFCURVE",
"641 441 OFFCURVE",
"602 417 CURVE",
"610 356 LINE"
);
}
);
width = 936;
}
);
note = onehalf;
unicode = 00BD;
},
{
glyphname = threequarters;
lastChange = "2017-11-01 11:13:03 +0000";
layers = (
{
layerId = "A6EA9C16-C626-4B38-A32D-13618352FA56";
paths = (
{
closed = 1;
nodes = (
"315 0 LINE",
"773 742 LINE",
"707 742 LINE",
"249 0 LINE"
);
},
{
closed = 1;
nodes = (
"852 447 LINE",
"795 447 LINE",
"581 149 LINE",
"581 101 LINE",
"794 101 LINE",
"794 1 LINE",
"852 1 LINE",
"852 101 LINE",
"914 101 LINE",
"914 158 LINE",
"852 158 LINE"
);
},
{
closed = 1;
nodes = (
"794 364 LINE",
"794 158 LINE",
"653 158 LINE",
"726 263 LINE"
);
},
{
closed = 1;
nodes = (
"97 304 OFFCURVE",
"143 289 OFFCURVE",
"192 289 CURVE SMOOTH",
"285 289 OFFCURVE",
"347 340 OFFCURVE",
"347 420 CURVE SMOOTH",
"347 475 OFFCURVE",
"310 522 OFFCURVE",
"251 531 CURVE",
"306 550 OFFCURVE",
"334 582 OFFCURVE",
"334 627 CURVE SMOOTH",
"334 698 OFFCURVE",
"273 747 OFFCURVE",
"194 747 CURVE SMOOTH",
"151 747 OFFCURVE",
"109 735 OFFCURVE",
"70 710 CURVE",
"79 650 LINE",
"120 677 OFFCURVE",
"159 690 OFFCURVE",
"194 690 CURVE SMOOTH",
"242 690 OFFCURVE",
"272 662 OFFCURVE",
"272 626 CURVE SMOOTH",
"272 585 OFFCURVE",
"239 554 OFFCURVE",
"164 554 CURVE SMOOTH",
"119 554 LINE",
"119 503 LINE",
"169 503 LINE SMOOTH",
"248 503 OFFCURVE",
"285 470 OFFCURVE",
"285 422 CURVE SMOOTH",
"285 377 OFFCURVE",
"252 346 OFFCURVE",
"192 346 CURVE SMOOTH",
"151 346 OFFCURVE",
"112 362 OFFCURVE",
"73 393 CURVE",
"55 333 LINE"
);
}
);
width = 947;
}
);
note = threequarters;
unicode = 00BE;
},
{
glyphname = questiondown;
lastChange = "2017-11-01 11:13:03 +0000";
layers = (
{
layerId = "A6EA9C16-C626-4B38-A32D-13618352FA56";
paths = (
{
closed = 1;
nodes = (
"9 70 OFFCURVE",
"90 -10 OFFCURVE",
"221 -10 CURVE SMOOTH",
"282 -10 OFFCURVE",
"340 7 OFFCURVE",
"397 40 CURVE",
"383 107 LINE",
"332 72 OFFCURVE",
"278 55 OFFCURVE",
"222 55 CURVE SMOOTH",
"126 55 OFFCURVE",
"78 104 OFFCURVE",
"78 173 CURVE SMOOTH",
"78 212 OFFCURVE",
"102 255 OFFCURVE",
"149 300 CURVE SMOOTH",
"212 360 LINE SMOOTH",
"248 394 OFFCURVE",
"266 432 OFFCURVE",
"266 473 CURVE SMOOTH",
"266 496 OFFCURVE",
"261 516 OFFCURVE",
"252 533 CURVE",
"207 533 LINE",
"212 516 OFFCURVE",
"214 501 OFFCURVE",
"214 489 CURVE SMOOTH",
"214 459 OFFCURVE",
"199 430 OFFCURVE",
"169 402 CURVE SMOOTH",
"81 321 LINE SMOOTH",
"33 276 OFFCURVE",
"9 226 OFFCURVE",
"9 173 CURVE SMOOTH"
);
},
{
closed = 1;
nodes = (
"285 702 OFFCURVE",
"261 724 OFFCURVE",
"232 724 CURVE SMOOTH",
"204 724 OFFCURVE",
"179 702 OFFCURVE",
"179 671 CURVE SMOOTH",
"179 638 OFFCURVE",
"203 617 OFFCURVE",
"232 617 CURVE SMOOTH",
"261 617 OFFCURVE",
"285 638 OFFCURVE",
"285 671 CURVE SMOOTH"
);
}
);
width = 457;
}
);
note = questiondown;
unicode = 00BF;
},
{
glyphname = Agrave;
lastChange = "2017-11-01 11:13:03 +0000";
layers = (
{
layerId = "A6EA9C16-C626-4B38-A32D-13618352FA56";
paths = (
{
closed = 1;
nodes = (
"500 190 LINE",
"574 0 LINE",
"649 0 LINE",
"368 714 LINE",
"304 714 LINE",
"23 0 LINE",
"95 0 LINE",
"170 190 LINE"
);
},
{
closed = 1;
nodes = (
"194 254 LINE",
"261 428 LINE",
"336 632 LINE",
"414 419 LINE",
"476 254 LINE"
);
},
{
closed = 1;
nodes = (
"313 754 LINE",
"361 754 LINE",
"294 934 LINE",
"203 934 LINE"
);
}
);
width = 672;
}
);
note = Agrave;
unicode = 00C0;
},
{
glyphname = Aacute;
lastChange = "2017-11-01 11:13:03 +0000";
layers = (
{
layerId = "A6EA9C16-C626-4B38-A32D-13618352FA56";
paths = (
{
closed = 1;
nodes = (
"500 190 LINE",
"574 0 LINE",
"649 0 LINE",
"368 714 LINE",
"304 714 LINE",
"23 0 LINE",
"95 0 LINE",
"170 190 LINE"
);
},
{
closed = 1;
nodes = (
"194 254 LINE",
"261 428 LINE",
"336 632 LINE",
"414 419 LINE",
"476 254 LINE"
);
},
{
closed = 1;
nodes = (
"468 934 LINE",
"377 934 LINE",
"310 754 LINE",
"358 754 LINE"
);
}
);
width = 672;
}
);
note = Aacute;
unicode = 00C1;
},
{
glyphname = Acircumflex;
lastChange = "2017-11-01 11:13:03 +0000";
layers = (
{
layerId = "A6EA9C16-C626-4B38-A32D-13618352FA56";
paths = (
{
closed = 1;
nodes = (
"500 190 LINE",
"574 0 LINE",
"649 0 LINE",
"368 714 LINE",
"304 714 LINE",
"23 0 LINE",
"95 0 LINE",
"170 190 LINE"
);
},
{
closed = 1;
nodes = (
"194 254 LINE",
"261 428 LINE",
"336 632 LINE",
"414 419 LINE",
"476 254 LINE"
);
},
{
closed = 1;
nodes = (
"335 867 LINE",
"445 754 LINE",
"497 754 LINE",
"368 934 LINE",
"303 934 LINE",
"176 754 LINE",
"226 754 LINE"
);
}
);
width = 672;
}
);
note = Acircumflex;
unicode = 00C2;
},
{
glyphname = Atilde;
lastChange = "2017-11-01 11:13:03 +0000";
layers = (
{
layerId = "A6EA9C16-C626-4B38-A32D-13618352FA56";
paths = (
{
closed = 1;
nodes = (
"500 190 LINE",
"574 0 LINE",
"649 0 LINE",
"368 714 LINE",
"304 714 LINE",
"23 0 LINE",
"95 0 LINE",
"170 190 LINE"
);
},
{
closed = 1;
nodes = (
"194 254 LINE",
"261 428 LINE",
"336 632 LINE",
"414 419 LINE",
"476 254 LINE"
);
},
{
closed = 1;
nodes = (
"390 799 OFFCURVE",
"401 796 OFFCURVE",
"410 796 CURVE SMOOTH",
"459 796 OFFCURVE",
"493 832 OFFCURVE",
"501 891 CURVE",
"458 908 LINE",
"449 871 OFFCURVE",
"436 855 OFFCURVE",
"409 855 CURVE SMOOTH",
"398 855 OFFCURVE",
"376 863 OFFCURVE",
"344 878 CURVE SMOOTH",
"311 893 OFFCURVE",
"288 901 OFFCURVE",
"275 902 CURVE",
"274 903 OFFCURVE",
"271 903 OFFCURVE",
"268 903 CURVE SMOOTH",
"217 903 OFFCURVE",
"180 867 OFFCURVE",
"172 806 CURVE",
"215 791 LINE",
"223 827 OFFCURVE",
"238 843 OFFCURVE",
"267 843 CURVE SMOOTH",
"278 843 OFFCURVE",
"296 837 OFFCURVE",
"322 825 CURVE SMOOTH",
"347 813 OFFCURVE",
"366 806 OFFCURVE",
"378 805 CURVE"
);
}
);
width = 672;
}
);
note = Atilde;
unicode = 00C3;
},
{
glyphname = Adieresis;
lastChange = "2017-11-01 11:13:03 +0000";
layers = (
{
layerId = "A6EA9C16-C626-4B38-A32D-13618352FA56";
paths = (
{
closed = 1;
nodes = (
"500 190 LINE",
"574 0 LINE",
"649 0 LINE",
"368 714 LINE",
"304 714 LINE",
"23 0 LINE",
"95 0 LINE",
"170 190 LINE"
);
},
{
closed = 1;
nodes = (
"194 254 LINE",
"261 428 LINE",
"336 632 LINE",
"414 419 LINE",
"476 254 LINE"
);
},
{
closed = 1;
nodes = (
"269 792 OFFCURVE",
"289 810 OFFCURVE",
"289 838 CURVE SMOOTH",
"289 867 OFFCURVE",
"269 884 OFFCURVE",
"245 884 CURVE SMOOTH",
"220 884 OFFCURVE",
"199 867 OFFCURVE",
"199 838 CURVE SMOOTH",
"199 810 OFFCURVE",
"220 792 OFFCURVE",
"245 792 CURVE SMOOTH"
);
},
{
closed = 1;
nodes = (
"453 792 OFFCURVE",
"473 810 OFFCURVE",
"473 838 CURVE SMOOTH",
"473 867 OFFCURVE",
"453 884 OFFCURVE",
"429 884 CURVE SMOOTH",
"404 884 OFFCURVE",
"383 867 OFFCURVE",
"383 838 CURVE SMOOTH",
"383 810 OFFCURVE",
"404 792 OFFCURVE",
"429 792 CURVE SMOOTH"
);
}
);
width = 672;
}
);
note = Adieresis;
unicode = 00C4;
},
{
glyphname = Aring;
lastChange = "2017-11-01 11:13:03 +0000";
layers = (
{
layerId = "A6EA9C16-C626-4B38-A32D-13618352FA56";
paths = (
{
closed = 1;
nodes = (
"500 190 LINE",
"574 0 LINE",
"649 0 LINE",
"378 689 LINE",
"419 704 OFFCURVE",
"446 740 OFFCURVE",
"446 788 CURVE SMOOTH",
"446 845 OFFCURVE",
"400 891 OFFCURVE",
"336 891 CURVE SMOOTH",
"272 891 OFFCURVE",
"228 847 OFFCURVE",
"228 787 CURVE SMOOTH",
"228 738 OFFCURVE",
"253 702 OFFCURVE",
"294 689 CURVE",
"23 0 LINE",
"95 0 LINE",
"170 190 LINE"
);
},
{
closed = 1;
nodes = (
"194 254 LINE",
"261 428 LINE",
"336 632 LINE",
"414 419 LINE",
"476 254 LINE"
);
},
{
closed = 1;
nodes = (
"370 732 OFFCURVE",
"355 726 OFFCURVE",
"336 726 CURVE SMOOTH",
"297 726 OFFCURVE",
"275 750 OFFCURVE",
"275 787 CURVE SMOOTH",
"275 823 OFFCURVE",
"300 848 OFFCURVE",
"336 848 CURVE SMOOTH",
"372 848 OFFCURVE",
"397 824 OFFCURVE",
"397 787 CURVE SMOOTH",
"397 768 OFFCURVE",
"392 754 OFFCURVE",
"381 743 CURVE SMOOTH"
);
}
);
width = 672;
}
);
note = Aring;
unicode = 00C5;
},
{
glyphname = AE;
lastChange = "2017-11-01 11:13:03 +0000";
layers = (
{
layerId = "A6EA9C16-C626-4B38-A32D-13618352FA56";
paths = (
{
closed = 1;
nodes = (
"791 64 LINE",
"623 64 LINE",
"514 343 LINE",
"762 343 LINE",
"762 406 LINE",
"489 406 LINE",
"393 650 LINE",
"781 650 LINE",
"781 714 LINE",
"304 714 LINE",
"23 0 LINE",
"95 0 LINE",
"170 190 LINE",
"500 190 LINE",
"574 0 LINE",
"791 0 LINE"
);
},
{
closed = 1;
nodes = (
"194 254 LINE",
"261 428 LINE",
"336 632 LINE",
"414 419 LINE",
"476 254 LINE"
);
}
);
width = 871;
}
);
note = AE;
unicode = 00C6;
},
{
glyphname = Ccedilla;
lastChange = "2017-11-01 11:13:03 +0000";
layers = (
{
layerId = "A6EA9C16-C626-4B38-A32D-13618352FA56";
paths = (
{
closed = 1;
nodes = (
"496 -10 OFFCURVE",
"559 1 OFFCURVE",
"611 23 CURVE",
"602 95 LINE",
"549 69 OFFCURVE",
"491 56 OFFCURVE",
"428 56 CURVE SMOOTH",
"269 56 OFFCURVE",
"151 167 OFFCURVE",
"151 354 CURVE SMOOTH",
"151 554 OFFCURVE",
"261 658 OFFCURVE",
"426 658 CURVE SMOOTH",
"486 658 OFFCURVE",
"542 646 OFFCURVE",
"593 621 CURVE",
"602 696 LINE",
"551 715 OFFCURVE",
"492 724 OFFCURVE",
"425 724 CURVE SMOOTH",
"218 724 OFFCURVE",
"76 581 OFFCURVE",
"76 356 CURVE SMOOTH",
"76 132 OFFCURVE",
"227 -10 OFFCURVE",
"423 -10 CURVE SMOOTH"
);
},
{
closed = 1;
nodes = (
"306 -230 LINE",
"397 -230 LINE",
"464 -50 LINE",
"416 -50 LINE"
);
}
);
width = 661;
}
);
note = Ccedilla;
unicode = 00C7;
},
{
glyphname = Egrave;
lastChange = "2017-11-01 11:13:03 +0000";
layers = (
{
layerId = "A6EA9C16-C626-4B38-A32D-13618352FA56";
paths = (
{
closed = 1;
nodes = (
"185 343 LINE",
"476 343 LINE",
"476 406 LINE",
"185 406 LINE",
"185 650 LINE",
"495 650 LINE",
"495 714 LINE",
"116 714 LINE",
"116 0 LINE",
"505 0 LINE",
"505 64 LINE",
"185 64 LINE"
);
},
{
closed = 1;
nodes = (
"305 754 LINE",
"353 754 LINE",
"286 934 LINE",
"195 934 LINE"
);
}
);
width = 585;
}
);
note = Egrave;
unicode = 00C8;
},
{
glyphname = Eacute;
lastChange = "2017-11-01 11:13:03 +0000";
layers = (
{
layerId = "A6EA9C16-C626-4B38-A32D-13618352FA56";
paths = (
{
closed = 1;
nodes = (
"185 343 LINE",
"476 343 LINE",
"476 406 LINE",
"185 406 LINE",
"185 650 LINE",
"495 650 LINE",
"495 714 LINE",
"116 714 LINE",
"116 0 LINE",
"505 0 LINE",
"505 64 LINE",
"185 64 LINE"
);
},
{
closed = 1;
nodes = (
"424 934 LINE",
"333 934 LINE",
"266 754 LINE",
"314 754 LINE"
);
}
);
width = 585;
}
);
note = Eacute;
unicode = 00C9;
},
{
glyphname = Ecircumflex;
lastChange = "2017-11-01 11:13:03 +0000";
layers = (
{
layerId = "A6EA9C16-C626-4B38-A32D-13618352FA56";
paths = (
{
closed = 1;
nodes = (
"185 343 LINE",
"476 343 LINE",
"476 406 LINE",
"185 406 LINE",
"185 650 LINE",
"495 650 LINE",
"495 714 LINE",
"116 714 LINE",
"116 0 LINE",
"505 0 LINE",
"505 64 LINE",
"185 64 LINE"
);
},
{
closed = 1;
nodes = (
"307 867 LINE",
"417 754 LINE",
"469 754 LINE",
"340 934 LINE",
"275 934 LINE",
"148 754 LINE",
"198 754 LINE"
);
}
);
width = 585;
}
);
note = Ecircumflex;
unicode = 00CA;
},
{
glyphname = Edieresis;
lastChange = "2017-11-01 11:13:03 +0000";
layers = (
{
layerId = "A6EA9C16-C626-4B38-A32D-13618352FA56";
paths = (
{
closed = 1;
nodes = (
"185 343 LINE",
"476 343 LINE",
"476 406 LINE",
"185 406 LINE",
"185 650 LINE",
"495 650 LINE",
"495 714 LINE",
"116 714 LINE",
"116 0 LINE",
"505 0 LINE",
"505 64 LINE",
"185 64 LINE"
);
},
{
closed = 1;
nodes = (
"241 792 OFFCURVE",
"261 810 OFFCURVE",
"261 838 CURVE SMOOTH",
"261 867 OFFCURVE",
"241 884 OFFCURVE",
"217 884 CURVE SMOOTH",
"192 884 OFFCURVE",
"171 867 OFFCURVE",
"171 838 CURVE SMOOTH",
"171 810 OFFCURVE",
"192 792 OFFCURVE",
"217 792 CURVE SMOOTH"
);
},
{
closed = 1;
nodes = (
"425 792 OFFCURVE",
"445 810 OFFCURVE",
"445 838 CURVE SMOOTH",
"445 867 OFFCURVE",
"425 884 OFFCURVE",
"401 884 CURVE SMOOTH",
"376 884 OFFCURVE",
"355 867 OFFCURVE",
"355 838 CURVE SMOOTH",
"355 810 OFFCURVE",
"376 792 OFFCURVE",
"401 792 CURVE SMOOTH"
);
}
);
width = 585;
}
);
note = Edieresis;
unicode = 00CB;
},
{
glyphname = Igrave;
lastChange = "2017-11-01 11:13:03 +0000";
layers = (
{
layerId = "A6EA9C16-C626-4B38-A32D-13618352FA56";
paths = (
{
closed = 1;
nodes = (
"116 714 LINE",
"116 0 LINE",
"185 0 LINE",
"185 714 LINE"
);
},
{
closed = 1;
nodes = (
"136 754 LINE",
"184 754 LINE",
"117 934 LINE",
"26 934 LINE"
);
}
);
width = 301;
}
);
note = Igrave;
unicode = 00CC;
},
{
glyphname = Iacute;
lastChange = "2017-11-01 11:13:03 +0000";
layers = (
{
layerId = "A6EA9C16-C626-4B38-A32D-13618352FA56";
paths = (
{
closed = 1;
nodes = (
"116 714 LINE",
"116 0 LINE",
"185 0 LINE",
"185 714 LINE"
);
},
{
closed = 1;
nodes = (
"275 934 LINE",
"184 934 LINE",
"117 754 LINE",
"165 754 LINE"
);
}
);
width = 301;
}
);
note = Iacute;
unicode = 00CD;
},
{
glyphname = Icircumflex;
lastChange = "2017-11-01 11:13:03 +0000";
layers = (
{
layerId = "A6EA9C16-C626-4B38-A32D-13618352FA56";
paths = (
{
closed = 1;
nodes = (
"116 714 LINE",
"116 0 LINE",
"185 0 LINE",
"185 714 LINE"
);
},
{
closed = 1;
nodes = (
"149 867 LINE",
"259 754 LINE",
"311 754 LINE",
"182 934 LINE",
"117 934 LINE",
"-10 754 LINE",
"40 754 LINE"
);
}
);
width = 301;
}
);
note = Icircumflex;
unicode = 00CE;
},
{
glyphname = Idieresis;
lastChange = "2017-11-01 11:13:03 +0000";
layers = (
{
layerId = "A6EA9C16-C626-4B38-A32D-13618352FA56";
paths = (
{
closed = 1;
nodes = (
"116 714 LINE",
"116 0 LINE",
"185 0 LINE",
"185 714 LINE"
);
},
{
closed = 1;
nodes = (
"82 792 OFFCURVE",
"102 810 OFFCURVE",
"102 838 CURVE SMOOTH",
"102 867 OFFCURVE",
"82 884 OFFCURVE",
"58 884 CURVE SMOOTH",
"33 884 OFFCURVE",
"12 867 OFFCURVE",
"12 838 CURVE SMOOTH",
"12 810 OFFCURVE",
"33 792 OFFCURVE",
"58 792 CURVE SMOOTH"
);
},
{
closed = 1;
nodes = (
"266 792 OFFCURVE",
"286 810 OFFCURVE",
"286 838 CURVE SMOOTH",
"286 867 OFFCURVE",
"266 884 OFFCURVE",
"242 884 CURVE SMOOTH",
"217 884 OFFCURVE",
"196 867 OFFCURVE",
"196 838 CURVE SMOOTH",
"196 810 OFFCURVE",
"217 792 OFFCURVE",
"242 792 CURVE SMOOTH"
);
}
);
width = 301;
}
);
note = Idieresis;
unicode = 00CF;
},
{
glyphname = Eth;
lastChange = "2017-11-01 11:13:03 +0000";
layers = (
{
layerId = "A6EA9C16-C626-4B38-A32D-13618352FA56";
paths = (
{
closed = 1;
nodes = (
"25 386 LINE",
"25 329 LINE",
"124 329 LINE",
"124 0 LINE",
"304 0 LINE SMOOTH",
"515 0 OFFCURVE",
"658 135 OFFCURVE",
"658 356 CURVE SMOOTH",
"658 577 OFFCURVE",
"526 714 OFFCURVE",
"314 714 CURVE SMOOTH",
"124 714 LINE",
"124 386 LINE"
);
},
{
closed = 1;
nodes = (
"484 652 OFFCURVE",
"584 550 OFFCURVE",
"584 354 CURVE SMOOTH",
"584 170 OFFCURVE",
"473 62 OFFCURVE",
"304 62 CURVE SMOOTH",
"194 62 LINE",
"194 329 LINE",
"410 329 LINE",
"410 386 LINE",
"194 386 LINE",
"194 652 LINE",
"319 652 LINE SMOOTH"
);
}
);
width = 736;
}
);
note = Eth;
unicode = 00D0;
},
{
glyphname = Ntilde;
lastChange = "2017-11-01 11:13:03 +0000";
layers = (
{
layerId = "A6EA9C16-C626-4B38-A32D-13618352FA56";
paths = (
{
closed = 1;
nodes = (
"602 714 LINE",
"602 407 LINE",
"606 143 LINE",
"185 714 LINE",
"115 714 LINE",
"115 0 LINE",
"182 0 LINE",
"182 367 LINE",
"178 611 LINE",
"620 0 LINE",
"669 0 LINE",
"669 714 LINE"
);
},
{
closed = 1;
nodes = (
"449 799 OFFCURVE",
"460 796 OFFCURVE",
"469 796 CURVE SMOOTH",
"518 796 OFFCURVE",
"552 832 OFFCURVE",
"560 891 CURVE",
"517 908 LINE",
"508 871 OFFCURVE",
"495 855 OFFCURVE",
"468 855 CURVE SMOOTH",
"457 855 OFFCURVE",
"435 863 OFFCURVE",
"403 878 CURVE SMOOTH",
"370 893 OFFCURVE",
"347 901 OFFCURVE",
"334 902 CURVE",
"333 903 OFFCURVE",
"330 903 OFFCURVE",
"327 903 CURVE SMOOTH",
"276 903 OFFCURVE",
"239 867 OFFCURVE",
"231 806 CURVE",
"274 791 LINE",
"282 827 OFFCURVE",
"297 843 OFFCURVE",
"326 843 CURVE SMOOTH",
"337 843 OFFCURVE",
"355 837 OFFCURVE",
"381 825 CURVE SMOOTH",
"406 813 OFFCURVE",
"425 806 OFFCURVE",
"437 805 CURVE"
);
}
);
width = 784;
}
);
note = Ntilde;
unicode = 00D1;
},
{
glyphname = Ograve;
lastChange = "2017-11-01 11:13:03 +0000";
layers = (
{
layerId = "A6EA9C16-C626-4B38-A32D-13618352FA56";
paths = (
{
closed = 1;
nodes = (
"729 568 OFFCURVE",
"603 724 OFFCURVE",
"404 724 CURVE SMOOTH",
"204 724 OFFCURVE",
"78 578 OFFCURVE",
"78 357 CURVE SMOOTH",
"78 141 OFFCURVE",
"214 -10 OFFCURVE",
"402 -10 CURVE SMOOTH",
"603 -10 OFFCURVE",
"729 137 OFFCURVE",
"729 357 CURVE SMOOTH"
);
},
{
closed = 1;
nodes = (
"655 176 OFFCURVE",
"559 56 OFFCURVE",
"408 56 CURVE SMOOTH",
"257 56 OFFCURVE",
"153 173 OFFCURVE",
"153 354 CURVE SMOOTH",
"153 547 OFFCURVE",
"246 658 OFFCURVE",
"399 658 CURVE SMOOTH",
"548 658 OFFCURVE",
"655 541 OFFCURVE",
"655 361 CURVE SMOOTH"
);
},
{
closed = 1;
nodes = (
"389 754 LINE",
"437 754 LINE",
"370 934 LINE",
"279 934 LINE"
);
}
);
width = 807;
}
);
note = Ograve;
unicode = 00D2;
},
{
glyphname = Oacute;
lastChange = "2017-11-01 11:13:03 +0000";
layers = (
{
layerId = "A6EA9C16-C626-4B38-A32D-13618352FA56";
paths = (
{
closed = 1;
nodes = (
"729 568 OFFCURVE",
"603 724 OFFCURVE",
"404 724 CURVE SMOOTH",
"204 724 OFFCURVE",
"78 578 OFFCURVE",
"78 357 CURVE SMOOTH",
"78 141 OFFCURVE",
"214 -10 OFFCURVE",
"402 -10 CURVE SMOOTH",
"603 -10 OFFCURVE",
"729 137 OFFCURVE",
"729 357 CURVE SMOOTH"
);
},
{
closed = 1;
nodes = (
"655 176 OFFCURVE",
"559 56 OFFCURVE",
"408 56 CURVE SMOOTH",
"257 56 OFFCURVE",
"153 173 OFFCURVE",
"153 354 CURVE SMOOTH",
"153 547 OFFCURVE",
"246 658 OFFCURVE",
"399 658 CURVE SMOOTH",
"548 658 OFFCURVE",
"655 541 OFFCURVE",
"655 361 CURVE SMOOTH"
);
},
{
closed = 1;
nodes = (
"529 934 LINE",
"438 934 LINE",
"371 754 LINE",
"419 754 LINE"
);
}
);
width = 807;
}
);
note = Oacute;
unicode = 00D3;
},
{
glyphname = Ocircumflex;
lastChange = "2017-11-01 11:13:03 +0000";
layers = (
{
layerId = "A6EA9C16-C626-4B38-A32D-13618352FA56";
paths = (
{
closed = 1;
nodes = (
"729 568 OFFCURVE",
"603 724 OFFCURVE",
"404 724 CURVE SMOOTH",
"204 724 OFFCURVE",
"78 578 OFFCURVE",
"78 357 CURVE SMOOTH",
"78 141 OFFCURVE",
"214 -10 OFFCURVE",
"402 -10 CURVE SMOOTH",
"603 -10 OFFCURVE",
"729 137 OFFCURVE",
"729 357 CURVE SMOOTH"
);
},
{
closed = 1;
nodes = (
"655 176 OFFCURVE",
"559 56 OFFCURVE",
"408 56 CURVE SMOOTH",
"257 56 OFFCURVE",
"153 173 OFFCURVE",
"153 354 CURVE SMOOTH",
"153 547 OFFCURVE",
"246 658 OFFCURVE",
"399 658 CURVE SMOOTH",
"548 658 OFFCURVE",
"655 541 OFFCURVE",
"655 361 CURVE SMOOTH"
);
},
{
closed = 1;
nodes = (
"402 867 LINE",
"512 754 LINE",
"564 754 LINE",
"435 934 LINE",
"370 934 LINE",
"243 754 LINE",
"293 754 LINE"
);
}
);
width = 807;
}
);
note = Ocircumflex;
unicode = 00D4;
},
{
glyphname = Otilde;
lastChange = "2017-11-01 11:13:03 +0000";
layers = (
{
layerId = "A6EA9C16-C626-4B38-A32D-13618352FA56";
paths = (
{
closed = 1;
nodes = (
"729 568 OFFCURVE",
"603 724 OFFCURVE",
"404 724 CURVE SMOOTH",
"204 724 OFFCURVE",
"78 578 OFFCURVE",
"78 357 CURVE SMOOTH",
"78 141 OFFCURVE",
"214 -10 OFFCURVE",
"402 -10 CURVE SMOOTH",
"603 -10 OFFCURVE",
"729 137 OFFCURVE",
"729 357 CURVE SMOOTH"
);
},
{
closed = 1;
nodes = (
"655 176 OFFCURVE",
"559 56 OFFCURVE",
"408 56 CURVE SMOOTH",
"257 56 OFFCURVE",
"153 173 OFFCURVE",
"153 354 CURVE SMOOTH",
"153 547 OFFCURVE",
"246 658 OFFCURVE",
"399 658 CURVE SMOOTH",
"548 658 OFFCURVE",
"655 541 OFFCURVE",
"655 361 CURVE SMOOTH"
);
},
{
closed = 1;
nodes = (
"460 799 OFFCURVE",
"471 796 OFFCURVE",
"480 796 CURVE SMOOTH",
"529 796 OFFCURVE",
"563 832 OFFCURVE",
"571 891 CURVE",
"528 908 LINE",
"519 871 OFFCURVE",
"506 855 OFFCURVE",
"479 855 CURVE SMOOTH",
"468 855 OFFCURVE",
"446 863 OFFCURVE",
"414 878 CURVE SMOOTH",
"381 893 OFFCURVE",
"358 901 OFFCURVE",
"345 902 CURVE",
"344 903 OFFCURVE",
"341 903 OFFCURVE",
"338 903 CURVE SMOOTH",
"287 903 OFFCURVE",
"250 867 OFFCURVE",
"242 806 CURVE",
"285 791 LINE",
"293 827 OFFCURVE",
"308 843 OFFCURVE",
"337 843 CURVE SMOOTH",
"348 843 OFFCURVE",
"366 837 OFFCURVE",
"392 825 CURVE SMOOTH",
"417 813 OFFCURVE",
"436 806 OFFCURVE",
"448 805 CURVE"
);
}
);
width = 807;
}
);
note = Otilde;
unicode = 00D5;
},
{
glyphname = Odieresis;
lastChange = "2017-11-01 11:13:03 +0000";
layers = (
{
layerId = "A6EA9C16-C626-4B38-A32D-13618352FA56";
paths = (
{
closed = 1;
nodes = (
"729 568 OFFCURVE",
"603 724 OFFCURVE",
"404 724 CURVE SMOOTH",
"204 724 OFFCURVE",
"78 578 OFFCURVE",
"78 357 CURVE SMOOTH",
"78 141 OFFCURVE",
"214 -10 OFFCURVE",
"402 -10 CURVE SMOOTH",
"603 -10 OFFCURVE",
"729 137 OFFCURVE",
"729 357 CURVE SMOOTH"
);
},
{
closed = 1;
nodes = (
"655 176 OFFCURVE",
"559 56 OFFCURVE",
"408 56 CURVE SMOOTH",
"257 56 OFFCURVE",
"153 173 OFFCURVE",
"153 354 CURVE SMOOTH",
"153 547 OFFCURVE",
"246 658 OFFCURVE",
"399 658 CURVE SMOOTH",
"548 658 OFFCURVE",
"655 541 OFFCURVE",
"655 361 CURVE SMOOTH"
);
},
{
closed = 1;
nodes = (
"336 792 OFFCURVE",
"356 810 OFFCURVE",
"356 838 CURVE SMOOTH",
"356 867 OFFCURVE",
"336 884 OFFCURVE",
"312 884 CURVE SMOOTH",
"287 884 OFFCURVE",
"266 867 OFFCURVE",
"266 838 CURVE SMOOTH",
"266 810 OFFCURVE",
"287 792 OFFCURVE",
"312 792 CURVE SMOOTH"
);
},
{
closed = 1;
nodes = (
"520 792 OFFCURVE",
"540 810 OFFCURVE",
"540 838 CURVE SMOOTH",
"540 867 OFFCURVE",
"520 884 OFFCURVE",
"496 884 CURVE SMOOTH",
"471 884 OFFCURVE",
"450 867 OFFCURVE",
"450 838 CURVE SMOOTH",
"450 810 OFFCURVE",
"471 792 OFFCURVE",
"496 792 CURVE SMOOTH"
);
}
);
width = 807;
}
);
note = Odieresis;
unicode = 00D6;
},
{
glyphname = multiply;
lastChange = "2017-11-01 11:13:03 +0000";
layers = (
{
layerId = "A6EA9C16-C626-4B38-A32D-13618352FA56";
paths = (
{
closed = 1;
nodes = (
"244 357 LINE",
"99 213 LINE",
"141 171 LINE",
"285 316 LINE",
"435 166 LINE",
"477 208 LINE",
"327 358 LINE",
"472 503 LINE",
"431 545 LINE",
"286 399 LINE",
"135 550 LINE",
"93 508 LINE"
);
}
);
width = 572;
}
);
note = multiply;
unicode = 00D7;
},
{
glyphname = Oslash;
lastChange = "2017-11-01 11:13:03 +0000";
layers = (
{
layerId = "A6EA9C16-C626-4B38-A32D-13618352FA56";
paths = (
{
closed = 1;
nodes = (
"292 4 OFFCURVE",
"344 -10 OFFCURVE",
"402 -10 CURVE SMOOTH",
"603 -10 OFFCURVE",
"729 137 OFFCURVE",
"729 357 CURVE SMOOTH",
"729 476 OFFCURVE",
"687 580 OFFCURVE",
"614 647 CURVE",
"658 721 LINE",
"608 750 LINE",
"567 681 LINE",
"518 710 OFFCURVE",
"464 724 OFFCURVE",
"404 724 CURVE SMOOTH",
"204 724 OFFCURVE",
"78 578 OFFCURVE",
"78 357 CURVE SMOOTH",
"78 232 OFFCURVE",
"118 134 OFFCURVE",
"198 64 CURVE",
"155 -7 LINE",
"208 -31 LINE",
"245 31 LINE"
);
},
{
closed = 1;
nodes = (
"153 547 OFFCURVE",
"246 658 OFFCURVE",
"399 658 CURVE SMOOTH",
"448 658 OFFCURVE",
"492 646 OFFCURVE",
"531 621 CURVE",
"234 125 LINE",
"180 180 OFFCURVE",
"153 257 OFFCURVE",
"153 354 CURVE SMOOTH"
);
},
{
closed = 1;
nodes = (
"655 176 OFFCURVE",
"559 56 OFFCURVE",
"408 56 CURVE SMOOTH",
"360 56 OFFCURVE",
"317 67 OFFCURVE",
"280 89 CURVE",
"576 584 LINE",
"629 529 OFFCURVE",
"655 455 OFFCURVE",
"655 361 CURVE SMOOTH"
);
}
);
width = 807;
}
);
note = Oslash;
unicode = 00D8;
},
{
glyphname = Ugrave;
lastChange = "2017-11-01 11:13:03 +0000";
layers = (
{
layerId = "A6EA9C16-C626-4B38-A32D-13618352FA56";
paths = (
{
closed = 1;
nodes = (
"550 126 OFFCURVE",
"475 56 OFFCURVE",
"360 56 CURVE SMOOTH",
"247 56 OFFCURVE",
"172 125 OFFCURVE",
"172 246 CURVE SMOOTH",
"172 714 LINE",
"102 714 LINE",
"102 252 LINE SMOOTH",
"102 87 OFFCURVE",
"204 -10 OFFCURVE",
"360 -10 CURVE SMOOTH",
"516 -10 OFFCURVE",
"618 86 OFFCURVE",
"618 253 CURVE SMOOTH",
"618 714 LINE",
"550 714 LINE",
"550 247 LINE SMOOTH"
);
},
{
closed = 1;
nodes = (
"347 754 LINE",
"395 754 LINE",
"328 934 LINE",
"237 934 LINE"
);
}
);
width = 720;
}
);
note = Ugrave;
unicode = 00D9;
},
{
glyphname = Uacute;
lastChange = "2017-11-01 11:13:03 +0000";
layers = (
{
layerId = "A6EA9C16-C626-4B38-A32D-13618352FA56";
paths = (
{
closed = 1;
nodes = (
"550 126 OFFCURVE",
"475 56 OFFCURVE",
"360 56 CURVE SMOOTH",
"247 56 OFFCURVE",
"172 125 OFFCURVE",
"172 246 CURVE SMOOTH",
"172 714 LINE",
"102 714 LINE",
"102 252 LINE SMOOTH",
"102 87 OFFCURVE",
"204 -10 OFFCURVE",
"360 -10 CURVE SMOOTH",
"516 -10 OFFCURVE",
"618 86 OFFCURVE",
"618 253 CURVE SMOOTH",
"618 714 LINE",
"550 714 LINE",
"550 247 LINE SMOOTH"
);
},
{
closed = 1;
nodes = (
"486 934 LINE",
"395 934 LINE",
"328 754 LINE",
"376 754 LINE"
);
}
);
width = 720;
}
);
note = Uacute;
unicode = 00DA;
},
{
glyphname = Ucircumflex;
lastChange = "2017-11-01 11:13:03 +0000";
layers = (
{
layerId = "A6EA9C16-C626-4B38-A32D-13618352FA56";
paths = (
{
closed = 1;
nodes = (
"550 126 OFFCURVE",
"475 56 OFFCURVE",
"360 56 CURVE SMOOTH",
"247 56 OFFCURVE",
"172 125 OFFCURVE",
"172 246 CURVE SMOOTH",
"172 714 LINE",
"102 714 LINE",
"102 252 LINE SMOOTH",
"102 87 OFFCURVE",
"204 -10 OFFCURVE",
"360 -10 CURVE SMOOTH",
"516 -10 OFFCURVE",
"618 86 OFFCURVE",
"618 253 CURVE SMOOTH",
"618 714 LINE",
"550 714 LINE",
"550 247 LINE SMOOTH"
);
},
{
closed = 1;
nodes = (
"359 867 LINE",
"469 754 LINE",
"521 754 LINE",
"392 934 LINE",
"327 934 LINE",
"200 754 LINE",
"250 754 LINE"
);
}
);
width = 720;
}
);
note = Ucircumflex;
unicode = 00DB;
},
{
glyphname = Udieresis;
lastChange = "2017-11-01 11:13:03 +0000";
layers = (
{
layerId = "A6EA9C16-C626-4B38-A32D-13618352FA56";
paths = (
{
closed = 1;
nodes = (
"550 126 OFFCURVE",
"475 56 OFFCURVE",
"360 56 CURVE SMOOTH",
"247 56 OFFCURVE",
"172 125 OFFCURVE",
"172 246 CURVE SMOOTH",
"172 714 LINE",
"102 714 LINE",
"102 252 LINE SMOOTH",
"102 87 OFFCURVE",
"204 -10 OFFCURVE",
"360 -10 CURVE SMOOTH",
"516 -10 OFFCURVE",
"618 86 OFFCURVE",
"618 253 CURVE SMOOTH",
"618 714 LINE",
"550 714 LINE",
"550 247 LINE SMOOTH"
);
},
{
closed = 1;
nodes = (
"293 792 OFFCURVE",
"313 810 OFFCURVE",
"313 838 CURVE SMOOTH",
"313 867 OFFCURVE",
"293 884 OFFCURVE",
"269 884 CURVE SMOOTH",
"244 884 OFFCURVE",
"223 867 OFFCURVE",
"223 838 CURVE SMOOTH",
"223 810 OFFCURVE",
"244 792 OFFCURVE",
"269 792 CURVE SMOOTH"
);
},
{
closed = 1;
nodes = (
"477 792 OFFCURVE",
"497 810 OFFCURVE",
"497 838 CURVE SMOOTH",
"497 867 OFFCURVE",
"477 884 OFFCURVE",
"453 884 CURVE SMOOTH",
"428 884 OFFCURVE",
"407 867 OFFCURVE",
"407 838 CURVE SMOOTH",
"407 810 OFFCURVE",
"428 792 OFFCURVE",
"453 792 CURVE SMOOTH"
);
}
);
width = 720;
}
);
note = Udieresis;
unicode = 00DC;
},
{
glyphname = Yacute;
lastChange = "2017-11-01 11:13:03 +0000";
layers = (
{
layerId = "A6EA9C16-C626-4B38-A32D-13618352FA56";
paths = (
{
closed = 1;
nodes = (
"267 304 LINE",
"267 0 LINE",
"337 0 LINE",
"337 308 LINE",
"575 714 LINE",
"499 714 LINE",
"302 375 LINE",
"106 714 LINE",
"29 714 LINE"
);
},
{
closed = 1;
nodes = (
"429 934 LINE",
"338 934 LINE",
"271 754 LINE",
"319 754 LINE"
);
}
);
width = 604;
}
);
note = Yacute;
unicode = 00DD;
},
{
glyphname = Thorn;
lastChange = "2017-11-01 11:13:03 +0000";
layers = (
{
layerId = "A6EA9C16-C626-4B38-A32D-13618352FA56";
paths = (
{
closed = 1;
nodes = (
"465 143 OFFCURVE",
"561 216 OFFCURVE",
"561 357 CURVE SMOOTH",
"561 488 OFFCURVE",
"469 570 OFFCURVE",
"305 570 CURVE SMOOTH",
"185 570 LINE",
"185 714 LINE",
"116 714 LINE",
"116 0 LINE",
"185 0 LINE",
"185 143 LINE",
"285 143 LINE SMOOTH"
);
},
{
closed = 1;
nodes = (
"421 506 OFFCURVE",
"488 453 OFFCURVE",
"488 358 CURVE SMOOTH",
"488 257 OFFCURVE",
"421 207 OFFCURVE",
"286 207 CURVE SMOOTH",
"185 207 LINE",
"185 506 LINE",
"297 506 LINE SMOOTH"
);
}
);
width = 624;
}
);
note = Thorn;
unicode = 00DE;
},
{
glyphname = germandbls;
lastChange = "2017-11-01 11:13:03 +0000";
layers = (
{
layerId = "A6EA9C16-C626-4B38-A32D-13618352FA56";
paths = (
{
closed = 1;
nodes = (
"593 194 OFFCURVE",
"564 242 OFFCURVE",
"507 281 CURVE SMOOTH",
"436 332 LINE SMOOTH",
"393 361 OFFCURVE",
"377 378 OFFCURVE",
"377 406 CURVE SMOOTH",
"377 425 OFFCURVE",
"390 447 OFFCURVE",
"415 470 CURVE SMOOTH",
"447 500 LINE SMOOTH",
"478 529 OFFCURVE",
"493 564 OFFCURVE",
"493 606 CURVE SMOOTH",
"493 694 OFFCURVE",
"426 762 OFFCURVE",
"310 762 CURVE SMOOTH",
"177 762 OFFCURVE",
"106 672 OFFCURVE",
"106 552 CURVE SMOOTH",
"106 0 LINE",
"175 0 LINE",
"175 552 LINE SMOOTH",
"175 635 OFFCURVE",
"219 696 OFFCURVE",
"310 696 CURVE SMOOTH",
"382 696 OFFCURVE",
"423 656 OFFCURVE",
"423 605 CURVE SMOOTH",
"423 578 OFFCURVE",
"412 554 OFFCURVE",
"389 531 CURVE SMOOTH",
"356 498 LINE SMOOTH",
"325 468 OFFCURVE",
"310 435 OFFCURVE",
"310 399 CURVE SMOOTH",
"310 356 OFFCURVE",
"335 316 OFFCURVE",
"385 281 CURVE SMOOTH",
"465 226 LINE SMOOTH",
"504 199 OFFCURVE",
"521 176 OFFCURVE",
"521 137 CURVE SMOOTH",
"521 90 OFFCURVE",
"484 56 OFFCURVE",
"420 56 CURVE SMOOTH",
"366 56 OFFCURVE",
"317 70 OFFCURVE",
"273 98 CURVE",
"263 23 LINE",
"305 1 OFFCURVE",
"357 -10 OFFCURVE",
"419 -10 CURVE SMOOTH",
"523 -10 OFFCURVE",
"593 48 OFFCURVE",
"593 137 CURVE SMOOTH"
);
}
);
width = 655;
}
);
note = germandbls;
unicode = 00DF;
},
{
glyphname = agrave;
lastChange = "2017-11-01 11:13:03 +0000";
layers = (
{
layerId = "A6EA9C16-C626-4B38-A32D-13618352FA56";
paths = (
{
closed = 1;
nodes = (
"414 56 OFFCURVE",
"420 26 OFFCURVE",
"428 0 CURVE",
"504 0 LINE",
"489 47 OFFCURVE",
"481 95 OFFCURVE",
"481 144 CURVE SMOOTH",
"481 363 LINE SMOOTH",
"481 496 OFFCURVE",
"404 562 OFFCURVE",
"284 562 CURVE SMOOTH",
"225 562 OFFCURVE",
"164 546 OFFCURVE",
"99 515 CURVE",
"109 446 LINE",
"170 479 OFFCURVE",
"227 495 OFFCURVE",
"280 495 CURVE SMOOTH",
"368 495 OFFCURVE",
"411 454 OFFCURVE",
"411 359 CURVE SMOOTH",
"411 333 LINE",
"255 308 LINE SMOOTH",
"127 288 OFFCURVE",
"62 236 OFFCURVE",
"62 143 CURVE SMOOTH",
"62 48 OFFCURVE",
"127 -10 OFFCURVE",
"230 -10 CURVE SMOOTH",
"309 -10 OFFCURVE",
"369 24 OFFCURVE",
"411 91 CURVE"
);
},
{
closed = 1;
nodes = (
"411 135 OFFCURVE",
"353 53 OFFCURVE",
"245 53 CURVE SMOOTH",
"178 53 OFFCURVE",
"136 87 OFFCURVE",
"136 146 CURVE SMOOTH",
"136 206 OFFCURVE",
"179 235 OFFCURVE",
"268 250 CURVE SMOOTH",
"411 275 LINE",
"411 260 LINE SMOOTH"
);
},
{
closed = 1;
nodes = (
"269 602 LINE",
"317 602 LINE",
"250 782 LINE",
"159 782 LINE"
);
}
);
width = 585;
}
);
note = agrave;
unicode = 00E0;
},
{
glyphname = aacute;
lastChange = "2017-11-01 11:13:03 +0000";
layers = (
{
layerId = "A6EA9C16-C626-4B38-A32D-13618352FA56";
paths = (
{
closed = 1;
nodes = (
"414 56 OFFCURVE",
"420 26 OFFCURVE",
"428 0 CURVE",
"504 0 LINE",
"489 47 OFFCURVE",
"481 95 OFFCURVE",
"481 144 CURVE SMOOTH",
"481 363 LINE SMOOTH",
"481 496 OFFCURVE",
"404 562 OFFCURVE",
"284 562 CURVE SMOOTH",
"225 562 OFFCURVE",
"164 546 OFFCURVE",
"99 515 CURVE",
"109 446 LINE",
"170 479 OFFCURVE",
"227 495 OFFCURVE",
"280 495 CURVE SMOOTH",
"368 495 OFFCURVE",
"411 454 OFFCURVE",
"411 359 CURVE SMOOTH",
"411 333 LINE",
"255 308 LINE SMOOTH",
"127 288 OFFCURVE",
"62 236 OFFCURVE",
"62 143 CURVE SMOOTH",
"62 48 OFFCURVE",
"127 -10 OFFCURVE",
"230 -10 CURVE SMOOTH",
"309 -10 OFFCURVE",
"369 24 OFFCURVE",
"411 91 CURVE"
);
},
{
closed = 1;
nodes = (
"411 135 OFFCURVE",
"353 53 OFFCURVE",
"245 53 CURVE SMOOTH",
"178 53 OFFCURVE",
"136 87 OFFCURVE",
"136 146 CURVE SMOOTH",
"136 206 OFFCURVE",
"179 235 OFFCURVE",
"268 250 CURVE SMOOTH",
"411 275 LINE",
"411 260 LINE SMOOTH"
);
},
{
closed = 1;
nodes = (
"412 782 LINE",
"321 782 LINE",
"254 602 LINE",
"302 602 LINE"
);
}
);
width = 585;
}
);
note = aacute;
unicode = 00E1;
},
{
glyphname = acircumflex;
lastChange = "2017-11-01 11:13:03 +0000";
layers = (
{
layerId = "A6EA9C16-C626-4B38-A32D-13618352FA56";
paths = (
{
closed = 1;
nodes = (
"414 56 OFFCURVE",
"420 26 OFFCURVE",
"428 0 CURVE",
"504 0 LINE",
"489 47 OFFCURVE",
"481 95 OFFCURVE",
"481 144 CURVE SMOOTH",
"481 363 LINE SMOOTH",
"481 496 OFFCURVE",
"404 562 OFFCURVE",
"284 562 CURVE SMOOTH",
"225 562 OFFCURVE",
"164 546 OFFCURVE",
"99 515 CURVE",
"109 446 LINE",
"170 479 OFFCURVE",
"227 495 OFFCURVE",
"280 495 CURVE SMOOTH",
"368 495 OFFCURVE",
"411 454 OFFCURVE",
"411 359 CURVE SMOOTH",
"411 333 LINE",
"255 308 LINE SMOOTH",
"127 288 OFFCURVE",
"62 236 OFFCURVE",
"62 143 CURVE SMOOTH",
"62 48 OFFCURVE",
"127 -10 OFFCURVE",
"230 -10 CURVE SMOOTH",
"309 -10 OFFCURVE",
"369 24 OFFCURVE",
"411 91 CURVE"
);
},
{
closed = 1;
nodes = (
"411 135 OFFCURVE",
"353 53 OFFCURVE",
"245 53 CURVE SMOOTH",
"178 53 OFFCURVE",
"136 87 OFFCURVE",
"136 146 CURVE SMOOTH",
"136 206 OFFCURVE",
"179 235 OFFCURVE",
"268 250 CURVE SMOOTH",
"411 275 LINE",
"411 260 LINE SMOOTH"
);
},
{
closed = 1;
nodes = (
"280 715 LINE",
"390 602 LINE",
"442 602 LINE",
"313 782 LINE",
"248 782 LINE",
"121 602 LINE",
"171 602 LINE"
);
}
);
width = 585;
}
);
note = acircumflex;
unicode = 00E2;
},
{
glyphname = atilde;
lastChange = "2017-11-01 11:13:03 +0000";
layers = (
{
layerId = "A6EA9C16-C626-4B38-A32D-13618352FA56";
paths = (
{
closed = 1;
nodes = (
"414 56 OFFCURVE",
"420 26 OFFCURVE",
"428 0 CURVE",
"504 0 LINE",
"489 47 OFFCURVE",
"481 95 OFFCURVE",
"481 144 CURVE SMOOTH",
"481 363 LINE SMOOTH",
"481 496 OFFCURVE",
"404 562 OFFCURVE",
"284 562 CURVE SMOOTH",
"225 562 OFFCURVE",
"164 546 OFFCURVE",
"99 515 CURVE",
"109 446 LINE",
"170 479 OFFCURVE",
"227 495 OFFCURVE",
"280 495 CURVE SMOOTH",
"368 495 OFFCURVE",
"411 454 OFFCURVE",
"411 359 CURVE SMOOTH",
"411 333 LINE",
"255 308 LINE SMOOTH",
"127 288 OFFCURVE",
"62 236 OFFCURVE",
"62 143 CURVE SMOOTH",
"62 48 OFFCURVE",
"127 -10 OFFCURVE",
"230 -10 CURVE SMOOTH",
"309 -10 OFFCURVE",
"369 24 OFFCURVE",
"411 91 CURVE"
);
},
{
closed = 1;
nodes = (
"411 135 OFFCURVE",
"353 53 OFFCURVE",
"245 53 CURVE SMOOTH",
"178 53 OFFCURVE",
"136 87 OFFCURVE",
"136 146 CURVE SMOOTH",
"136 206 OFFCURVE",
"179 235 OFFCURVE",
"268 250 CURVE SMOOTH",
"411 275 LINE",
"411 260 LINE SMOOTH"
);
},
{
closed = 1;
nodes = (
"339 647 OFFCURVE",
"350 644 OFFCURVE",
"359 644 CURVE SMOOTH",
"408 644 OFFCURVE",
"442 680 OFFCURVE",
"450 739 CURVE",
"407 756 LINE",
"398 719 OFFCURVE",
"385 703 OFFCURVE",
"358 703 CURVE SMOOTH",
"347 703 OFFCURVE",
"325 711 OFFCURVE",
"293 726 CURVE SMOOTH",
"260 741 OFFCURVE",
"237 749 OFFCURVE",
"224 750 CURVE",
"223 751 OFFCURVE",
"220 751 OFFCURVE",
"217 751 CURVE SMOOTH",
"166 751 OFFCURVE",
"129 715 OFFCURVE",
"121 654 CURVE",
"164 639 LINE",
"172 675 OFFCURVE",
"187 691 OFFCURVE",
"216 691 CURVE SMOOTH",
"227 691 OFFCURVE",
"245 685 OFFCURVE",
"271 673 CURVE SMOOTH",
"296 661 OFFCURVE",
"315 654 OFFCURVE",
"327 653 CURVE"
);
}
);
width = 585;
}
);
note = atilde;
unicode = 00E3;
},
{
glyphname = adieresis;
lastChange = "2017-11-01 11:13:03 +0000";
layers = (
{
layerId = "A6EA9C16-C626-4B38-A32D-13618352FA56";
paths = (
{
closed = 1;
nodes = (
"414 56 OFFCURVE",
"420 26 OFFCURVE",
"428 0 CURVE",
"504 0 LINE",
"489 47 OFFCURVE",
"481 95 OFFCURVE",
"481 144 CURVE SMOOTH",
"481 363 LINE SMOOTH",
"481 496 OFFCURVE",
"404 562 OFFCURVE",
"284 562 CURVE SMOOTH",
"225 562 OFFCURVE",
"164 546 OFFCURVE",
"99 515 CURVE",
"109 446 LINE",
"170 479 OFFCURVE",
"227 495 OFFCURVE",
"280 495 CURVE SMOOTH",
"368 495 OFFCURVE",
"411 454 OFFCURVE",
"411 359 CURVE SMOOTH",
"411 333 LINE",
"255 308 LINE SMOOTH",
"127 288 OFFCURVE",
"62 236 OFFCURVE",
"62 143 CURVE SMOOTH",
"62 48 OFFCURVE",
"127 -10 OFFCURVE",
"230 -10 CURVE SMOOTH",
"309 -10 OFFCURVE",
"369 24 OFFCURVE",
"411 91 CURVE"
);
},
{
closed = 1;
nodes = (
"411 135 OFFCURVE",
"353 53 OFFCURVE",
"245 53 CURVE SMOOTH",
"178 53 OFFCURVE",
"136 87 OFFCURVE",
"136 146 CURVE SMOOTH",
"136 206 OFFCURVE",
"179 235 OFFCURVE",
"268 250 CURVE SMOOTH",
"411 275 LINE",
"411 260 LINE SMOOTH"
);
},
{
closed = 1;
nodes = (
"214 650 OFFCURVE",
"234 668 OFFCURVE",
"234 696 CURVE SMOOTH",
"234 725 OFFCURVE",
"214 742 OFFCURVE",
"190 742 CURVE SMOOTH",
"165 742 OFFCURVE",
"144 725 OFFCURVE",
"144 696 CURVE SMOOTH",
"144 668 OFFCURVE",
"165 650 OFFCURVE",
"190 650 CURVE SMOOTH"
);
},
{
closed = 1;
nodes = (
"398 650 OFFCURVE",
"418 668 OFFCURVE",
"418 696 CURVE SMOOTH",
"418 725 OFFCURVE",
"398 742 OFFCURVE",
"374 742 CURVE SMOOTH",
"349 742 OFFCURVE",
"328 725 OFFCURVE",
"328 696 CURVE SMOOTH",
"328 668 OFFCURVE",
"349 650 OFFCURVE",
"374 650 CURVE SMOOTH"
);
}
);
width = 585;
}
);
note = adieresis;
unicode = 00E4;
},
{
glyphname = aring;
lastChange = "2017-11-01 11:13:03 +0000";
layers = (
{
layerId = "A6EA9C16-C626-4B38-A32D-13618352FA56";
paths = (
{
closed = 1;
nodes = (
"414 56 OFFCURVE",
"420 26 OFFCURVE",
"428 0 CURVE",
"504 0 LINE",
"489 47 OFFCURVE",
"481 95 OFFCURVE",
"481 144 CURVE SMOOTH",
"481 363 LINE SMOOTH",
"481 496 OFFCURVE",
"404 562 OFFCURVE",
"284 562 CURVE SMOOTH",
"225 562 OFFCURVE",
"164 546 OFFCURVE",
"99 515 CURVE",
"109 446 LINE",
"170 479 OFFCURVE",
"227 495 OFFCURVE",
"280 495 CURVE SMOOTH",
"368 495 OFFCURVE",
"411 454 OFFCURVE",
"411 359 CURVE SMOOTH",
"411 333 LINE",
"255 308 LINE SMOOTH",
"127 288 OFFCURVE",
"62 236 OFFCURVE",
"62 143 CURVE SMOOTH",
"62 48 OFFCURVE",
"127 -10 OFFCURVE",
"230 -10 CURVE SMOOTH",
"309 -10 OFFCURVE",
"369 24 OFFCURVE",
"411 91 CURVE"
);
},
{
closed = 1;
nodes = (
"411 135 OFFCURVE",
"353 53 OFFCURVE",
"245 53 CURVE SMOOTH",
"178 53 OFFCURVE",
"136 87 OFFCURVE",
"136 146 CURVE SMOOTH",
"136 206 OFFCURVE",
"179 235 OFFCURVE",
"268 250 CURVE SMOOTH",
"411 275 LINE",
"411 260 LINE SMOOTH"
);
},
{
closed = 1;
nodes = (
"391 763 OFFCURVE",
"345 809 OFFCURVE",
"281 809 CURVE SMOOTH",
"217 809 OFFCURVE",
"173 765 OFFCURVE",
"173 705 CURVE SMOOTH",
"173 641 OFFCURVE",
"216 600 OFFCURVE",
"281 600 CURVE SMOOTH",
"346 600 OFFCURVE",
"391 643 OFFCURVE",
"391 706 CURVE SMOOTH"
);
},
{
closed = 1;
nodes = (
"315 650 OFFCURVE",
"300 644 OFFCURVE",
"281 644 CURVE SMOOTH",
"242 644 OFFCURVE",
"220 668 OFFCURVE",
"220 705 CURVE SMOOTH",
"220 741 OFFCURVE",
"245 766 OFFCURVE",
"281 766 CURVE SMOOTH",
"317 766 OFFCURVE",
"342 742 OFFCURVE",
"342 705 CURVE SMOOTH",
"342 686 OFFCURVE",
"337 672 OFFCURVE",
"326 661 CURVE SMOOTH"
);
}
);
width = 585;
}
);
note = aring;
unicode = 00E5;
},
{
glyphname = ae;
lastChange = "2017-11-01 11:13:03 +0000";
layers = (
{
layerId = "A6EA9C16-C626-4B38-A32D-13618352FA56";
paths = (
{
closed = 1;
nodes = (
"225 562 OFFCURVE",
"163 546 OFFCURVE",
"99 515 CURVE",
"109 446 LINE",
"170 479 OFFCURVE",
"227 495 OFFCURVE",
"280 495 CURVE SMOOTH",
"368 495 OFFCURVE",
"411 454 OFFCURVE",
"411 359 CURVE SMOOTH",
"411 333 LINE",
"255 308 LINE SMOOTH",
"126 288 OFFCURVE",
"62 233 OFFCURVE",
"62 143 CURVE SMOOTH",
"62 48 OFFCURVE",
"129 -10 OFFCURVE",
"237 -10 CURVE SMOOTH",
"337 -10 OFFCURVE",
"410 42 OFFCURVE",
"445 122 CURVE",
"492 37 OFFCURVE",
"578 -10 OFFCURVE",
"691 -10 CURVE SMOOTH",
"750 -10 OFFCURVE",
"805 0 OFFCURVE",
"856 19 CURVE",
"849 91 LINE",
"794 68 OFFCURVE",
"741 56 OFFCURVE",
"691 56 CURVE SMOOTH",
"566 56 OFFCURVE",
"484 138 OFFCURVE",
"484 277 CURVE",
"878 277 LINE",
"881 291 OFFCURVE",
"882 309 OFFCURVE",
"882 330 CURVE SMOOTH",
"882 473 OFFCURVE",
"802 562 OFFCURVE",
"661 562 CURVE SMOOTH",
"579 562 OFFCURVE",
"513 527 OFFCURVE",
"463 458 CURVE",
"435 527 OFFCURVE",
"375 562 OFFCURVE",
"284 562 CURVE SMOOTH"
);
},
{
closed = 1;
nodes = (
"411 136 OFFCURVE",
"357 53 OFFCURVE",
"245 53 CURVE SMOOTH",
"178 53 OFFCURVE",
"136 87 OFFCURVE",
"136 146 CURVE SMOOTH",
"136 206 OFFCURVE",
"179 235 OFFCURVE",
"268 250 CURVE SMOOTH",
"411 275 LINE",
"411 265 LINE SMOOTH"
);
},
{
closed = 1;
nodes = (
"753 496 OFFCURVE",
"810 440 OFFCURVE",
"810 337 CURVE",
"488 337 LINE",
"499 429 OFFCURVE",
"570 496 OFFCURVE",
"662 496 CURVE SMOOTH"
);
}
);
width = 946;
}
);
note = ae;
unicode = 00E6;
},
{
glyphname = ccedilla;
lastChange = "2017-11-01 11:13:03 +0000";
layers = (
{
layerId = "A6EA9C16-C626-4B38-A32D-13618352FA56";
paths = (
{
closed = 1;
nodes = (
"407 -10 OFFCURVE",
"457 -2 OFFCURVE",
"496 15 CURVE",
"487 83 LINE",
"445 65 OFFCURVE",
"400 56 OFFCURVE",
"352 56 CURVE SMOOTH",
"225 56 OFFCURVE",
"141 140 OFFCURVE",
"141 273 CURVE SMOOTH",
"141 417 OFFCURVE",
"218 496 OFFCURVE",
"350 496 CURVE SMOOTH",
"390 496 OFFCURVE",
"433 487 OFFCURVE",
"480 470 CURVE",
"489 540 LINE",
"450 555 OFFCURVE",
"404 562 OFFCURVE",
"349 562 CURVE SMOOTH",
"180 562 OFFCURVE",
"65 450 OFFCURVE",
"65 275 CURVE SMOOTH",
"65 100 OFFCURVE",
"187 -10 OFFCURVE",
"347 -10 CURVE SMOOTH"
);
},
{
closed = 1;
nodes = (
"228 -230 LINE",
"319 -230 LINE",
"386 -50 LINE",
"338 -50 LINE"
);
}
);
width = 537;
}
);
note = ccedilla;
unicode = 00E7;
},
{
glyphname = egrave;
lastChange = "2017-11-01 11:13:03 +0000";
layers = (
{
layerId = "A6EA9C16-C626-4B38-A32D-13618352FA56";
paths = (
{
closed = 1;
nodes = (
"410 -10 OFFCURVE",
"465 -1 OFFCURVE",
"516 18 CURVE",
"509 90 LINE",
"454 67 OFFCURVE",
"402 55 OFFCURVE",
"351 55 CURVE SMOOTH",
"226 55 OFFCURVE",
"144 138 OFFCURVE",
"144 277 CURVE",
"538 277 LINE",
"541 290 OFFCURVE",
"543 308 OFFCURVE",
"543 330 CURVE SMOOTH",
"543 473 OFFCURVE",
"462 562 OFFCURVE",
"321 562 CURVE SMOOTH",
"184 562 OFFCURVE",
"70 450 OFFCURVE",
"70 277 CURVE SMOOTH",
"70 97 OFFCURVE",
"180 -10 OFFCURVE",
"351 -10 CURVE SMOOTH"
);
},
{
closed = 1;
nodes = (
"414 497 OFFCURVE",
"470 440 OFFCURVE",
"470 337 CURVE",
"149 337 LINE",
"160 430 OFFCURVE",
"231 497 OFFCURVE",
"322 497 CURVE SMOOTH"
);
},
{
closed = 1;
nodes = (
"304 602 LINE",
"352 602 LINE",
"285 782 LINE",
"194 782 LINE"
);
}
);
width = 607;
}
);
note = egrave;
unicode = 00E8;
},
{
glyphname = eacute;
lastChange = "2017-11-01 11:13:03 +0000";
layers = (
{
layerId = "A6EA9C16-C626-4B38-A32D-13618352FA56";
paths = (
{
closed = 1;
nodes = (
"410 -10 OFFCURVE",
"465 -1 OFFCURVE",
"516 18 CURVE",
"509 90 LINE",
"454 67 OFFCURVE",
"402 55 OFFCURVE",
"351 55 CURVE SMOOTH",
"226 55 OFFCURVE",
"144 138 OFFCURVE",
"144 277 CURVE",
"538 277 LINE",
"541 290 OFFCURVE",
"543 308 OFFCURVE",
"543 330 CURVE SMOOTH",
"543 473 OFFCURVE",
"462 562 OFFCURVE",
"321 562 CURVE SMOOTH",
"184 562 OFFCURVE",
"70 450 OFFCURVE",
"70 277 CURVE SMOOTH",
"70 97 OFFCURVE",
"180 -10 OFFCURVE",
"351 -10 CURVE SMOOTH"
);
},
{
closed = 1;
nodes = (
"414 497 OFFCURVE",
"470 440 OFFCURVE",
"470 337 CURVE",
"149 337 LINE",
"160 430 OFFCURVE",
"231 497 OFFCURVE",
"322 497 CURVE SMOOTH"
);
},
{
closed = 1;
nodes = (
"443 782 LINE",
"352 782 LINE",
"285 602 LINE",
"333 602 LINE"
);
}
);
width = 607;
}
);
note = eacute;
unicode = 00E9;
},
{
glyphname = ecircumflex;
lastChange = "2017-11-01 11:13:03 +0000";
layers = (
{
layerId = "A6EA9C16-C626-4B38-A32D-13618352FA56";
paths = (
{
closed = 1;
nodes = (
"410 -10 OFFCURVE",
"465 -1 OFFCURVE",
"516 18 CURVE",
"509 90 LINE",
"454 67 OFFCURVE",
"402 55 OFFCURVE",
"351 55 CURVE SMOOTH",
"226 55 OFFCURVE",
"144 138 OFFCURVE",
"144 277 CURVE",
"538 277 LINE",
"541 290 OFFCURVE",
"543 308 OFFCURVE",
"543 330 CURVE SMOOTH",
"543 473 OFFCURVE",
"462 562 OFFCURVE",
"321 562 CURVE SMOOTH",
"184 562 OFFCURVE",
"70 450 OFFCURVE",
"70 277 CURVE SMOOTH",
"70 97 OFFCURVE",
"180 -10 OFFCURVE",
"351 -10 CURVE SMOOTH"
);
},
{
closed = 1;
nodes = (
"414 497 OFFCURVE",
"470 440 OFFCURVE",
"470 337 CURVE",
"149 337 LINE",
"160 430 OFFCURVE",
"231 497 OFFCURVE",
"322 497 CURVE SMOOTH"
);
},
{
closed = 1;
nodes = (
"316 715 LINE",
"426 602 LINE",
"478 602 LINE",
"349 782 LINE",
"284 782 LINE",
"157 602 LINE",
"207 602 LINE"
);
}
);
width = 607;
}
);
note = ecircumflex;
unicode = 00EA;
},
{
glyphname = edieresis;
lastChange = "2017-11-01 11:13:03 +0000";
layers = (
{
layerId = "A6EA9C16-C626-4B38-A32D-13618352FA56";
paths = (
{
closed = 1;
nodes = (
"410 -10 OFFCURVE",
"465 -1 OFFCURVE",
"516 18 CURVE",
"509 90 LINE",
"454 67 OFFCURVE",
"402 55 OFFCURVE",
"351 55 CURVE SMOOTH",
"226 55 OFFCURVE",
"144 138 OFFCURVE",
"144 277 CURVE",
"538 277 LINE",
"541 290 OFFCURVE",
"543 308 OFFCURVE",
"543 330 CURVE SMOOTH",
"543 473 OFFCURVE",
"462 562 OFFCURVE",
"321 562 CURVE SMOOTH",
"184 562 OFFCURVE",
"70 450 OFFCURVE",
"70 277 CURVE SMOOTH",
"70 97 OFFCURVE",
"180 -10 OFFCURVE",
"351 -10 CURVE SMOOTH"
);
},
{
closed = 1;
nodes = (
"414 497 OFFCURVE",
"470 440 OFFCURVE",
"470 337 CURVE",
"149 337 LINE",
"160 430 OFFCURVE",
"231 497 OFFCURVE",
"322 497 CURVE SMOOTH"
);
},
{
closed = 1;
nodes = (
"251 650 OFFCURVE",
"271 668 OFFCURVE",
"271 696 CURVE SMOOTH",
"271 725 OFFCURVE",
"251 742 OFFCURVE",
"227 742 CURVE SMOOTH",
"202 742 OFFCURVE",
"181 725 OFFCURVE",
"181 696 CURVE SMOOTH",
"181 668 OFFCURVE",
"202 650 OFFCURVE",
"227 650 CURVE SMOOTH"
);
},
{
closed = 1;
nodes = (
"435 650 OFFCURVE",
"455 668 OFFCURVE",
"455 696 CURVE SMOOTH",
"455 725 OFFCURVE",
"435 742 OFFCURVE",
"411 742 CURVE SMOOTH",
"386 742 OFFCURVE",
"365 725 OFFCURVE",
"365 696 CURVE SMOOTH",
"365 668 OFFCURVE",
"386 650 OFFCURVE",
"411 650 CURVE SMOOTH"
);
}
);
width = 607;
}
);
note = edieresis;
unicode = 00EB;
},
{
glyphname = igrave;
lastChange = "2017-11-01 11:13:03 +0000";
layers = (
{
layerId = "A6EA9C16-C626-4B38-A32D-13618352FA56";
paths = (
{
closed = 1;
nodes = (
"127 602 LINE",
"175 602 LINE",
"108 782 LINE",
"17 782 LINE"
);
},
{
closed = 1;
nodes = (
"106 552 LINE",
"106 0 LINE",
"175 0 LINE",
"175 552 LINE"
);
}
);
width = 281;
}
);
note = igrave;
unicode = 00EC;
},
{
glyphname = iacute;
lastChange = "2017-11-01 11:13:03 +0000";
layers = (
{
layerId = "A6EA9C16-C626-4B38-A32D-13618352FA56";
paths = (
{
closed = 1;
nodes = (
"266 782 LINE",
"175 782 LINE",
"108 602 LINE",
"156 602 LINE"
);
},
{
closed = 1;
nodes = (
"106 552 LINE",
"106 0 LINE",
"175 0 LINE",
"175 552 LINE"
);
}
);
width = 281;
}
);
note = iacute;
unicode = 00ED;
},
{
glyphname = icircumflex;
lastChange = "2017-11-01 11:13:03 +0000";
layers = (
{
layerId = "A6EA9C16-C626-4B38-A32D-13618352FA56";
paths = (
{
closed = 1;
nodes = (
"106 552 LINE",
"106 0 LINE",
"175 0 LINE",
"175 552 LINE"
);
},
{
closed = 1;
nodes = (
"139 715 LINE",
"249 602 LINE",
"301 602 LINE",
"172 782 LINE",
"107 782 LINE",
"-20 602 LINE",
"30 602 LINE"
);
}
);
width = 281;
}
);
note = icircumflex;
unicode = 00EE;
},
{
glyphname = idieresis;
lastChange = "2017-11-01 11:13:03 +0000";
layers = (
{
layerId = "A6EA9C16-C626-4B38-A32D-13618352FA56";
paths = (
{
closed = 1;
nodes = (
"73 650 OFFCURVE",
"93 668 OFFCURVE",
"93 696 CURVE SMOOTH",
"93 725 OFFCURVE",
"73 742 OFFCURVE",
"49 742 CURVE SMOOTH",
"24 742 OFFCURVE",
"3 725 OFFCURVE",
"3 696 CURVE SMOOTH",
"3 668 OFFCURVE",
"24 650 OFFCURVE",
"49 650 CURVE SMOOTH"
);
},
{
closed = 1;
nodes = (
"257 650 OFFCURVE",
"277 668 OFFCURVE",
"277 696 CURVE SMOOTH",
"277 725 OFFCURVE",
"257 742 OFFCURVE",
"233 742 CURVE SMOOTH",
"208 742 OFFCURVE",
"187 725 OFFCURVE",
"187 696 CURVE SMOOTH",
"187 668 OFFCURVE",
"208 650 OFFCURVE",
"233 650 CURVE SMOOTH"
);
},
{
closed = 1;
nodes = (
"106 552 LINE",
"106 0 LINE",
"175 0 LINE",
"175 552 LINE"
);
}
);
width = 281;
}
);
note = idieresis;
unicode = 00EF;
},
{
glyphname = eth;
lastChange = "2017-11-01 11:13:03 +0000";
layers = (
{
layerId = "A6EA9C16-C626-4B38-A32D-13618352FA56";
paths = (
{
closed = 1;
nodes = (
"337 714 OFFCURVE",
"302 736 OFFCURVE",
"258 758 CURVE",
"220 704 LINE",
"253 687 OFFCURVE",
"281 672 OFFCURVE",
"302 658 CURVE",
"178 587 LINE",
"208 541 LINE",
"348 621 LINE",
"420 556 OFFCURVE",
"466 480 OFFCURVE",
"485 394 CURVE",
"442 447 OFFCURVE",
"384 474 OFFCURVE",
"309 474 CURVE SMOOTH",
"168 474 OFFCURVE",
"71 368 OFFCURVE",
"71 231 CURVE SMOOTH",
"71 87 OFFCURVE",
"176 -10 OFFCURVE",
"319 -10 CURVE SMOOTH",
"484 -10 OFFCURVE",
"569 94 OFFCURVE",
"569 275 CURVE SMOOTH",
"569 430 OFFCURVE",
"515 556 OFFCURVE",
"408 655 CURVE",
"494 705 LINE",
"462 750 LINE",
"364 693 LINE"
);
},
{
closed = 1;
nodes = (
"146 341 OFFCURVE",
"212 407 OFFCURVE",
"316 407 CURVE SMOOTH",
"420 407 OFFCURVE",
"497 342 OFFCURVE",
"497 234 CURVE SMOOTH",
"497 129 OFFCURVE",
"426 55 OFFCURVE",
"323 55 CURVE SMOOTH",
"220 55 OFFCURVE",
"146 123 OFFCURVE",
"146 230 CURVE SMOOTH"
);
}
);
width = 641;
}
);
note = eth;
unicode = 00F0;
},
{
glyphname = ntilde;
lastChange = "2017-11-01 11:13:03 +0000";
layers = (
{
layerId = "A6EA9C16-C626-4B38-A32D-13618352FA56";
paths = (
{
closed = 1;
nodes = (
"561 435 OFFCURVE",
"532 502 OFFCURVE",
"473 536 CURVE SMOOTH",
"444 553 OFFCURVE",
"407 562 OFFCURVE",
"362 562 CURVE SMOOTH",
"278 562 OFFCURVE",
"216 525 OFFCURVE",
"175 451 CURVE",
"175 552 LINE",
"106 552 LINE",
"106 0 LINE",
"176 0 LINE",
"176 248 LINE SMOOTH",
"176 392 OFFCURVE",
"218 497 OFFCURVE",
"354 497 CURVE SMOOTH",
"447 497 OFFCURVE",
"491 445 OFFCURVE",
"491 332 CURVE SMOOTH",
"491 0 LINE",
"561 0 LINE",
"561 335 LINE SMOOTH"
);
},
{
closed = 1;
nodes = (
"403 647 OFFCURVE",
"414 644 OFFCURVE",
"423 644 CURVE SMOOTH",
"472 644 OFFCURVE",
"506 680 OFFCURVE",
"514 739 CURVE",
"471 756 LINE",
"462 719 OFFCURVE",
"449 703 OFFCURVE",
"422 703 CURVE SMOOTH",
"411 703 OFFCURVE",
"389 711 OFFCURVE",
"357 726 CURVE SMOOTH",
"324 741 OFFCURVE",
"301 749 OFFCURVE",
"288 750 CURVE",
"287 751 OFFCURVE",
"284 751 OFFCURVE",
"281 751 CURVE SMOOTH",
"230 751 OFFCURVE",
"193 715 OFFCURVE",
"185 654 CURVE",
"228 639 LINE",
"236 675 OFFCURVE",
"251 691 OFFCURVE",
"280 691 CURVE SMOOTH",
"291 691 OFFCURVE",
"309 685 OFFCURVE",
"335 673 CURVE SMOOTH",
"360 661 OFFCURVE",
"379 654 OFFCURVE",
"391 653 CURVE"
);
}
);
width = 662;
}
);
note = ntilde;
unicode = 00F1;
},
{
glyphname = ograve;
lastChange = "2017-11-01 11:13:03 +0000";
layers = (
{
layerId = "A6EA9C16-C626-4B38-A32D-13618352FA56";
paths = (
{
closed = 1;
nodes = (
"149 421 OFFCURVE",
"210 497 OFFCURVE",
"322 497 CURVE SMOOTH",
"431 497 OFFCURVE",
"504 416 OFFCURVE",
"504 279 CURVE SMOOTH",
"504 142 OFFCURVE",
"438 55 OFFCURVE",
"329 55 CURVE SMOOTH",
"220 55 OFFCURVE",
"149 136 OFFCURVE",
"149 273 CURVE SMOOTH"
);
},
{
closed = 1;
nodes = (
"579 441 OFFCURVE",
"480 562 OFFCURVE",
"327 562 CURVE SMOOTH",
"172 562 OFFCURVE",
"73 452 OFFCURVE",
"73 276 CURVE SMOOTH",
"73 101 OFFCURVE",
"184 -10 OFFCURVE",
"324 -10 CURVE SMOOTH",
"480 -10 OFFCURVE",
"579 101 OFFCURVE",
"579 276 CURVE SMOOTH"
);
},
{
closed = 1;
nodes = (
"312 602 LINE",
"360 602 LINE",
"293 782 LINE",
"202 782 LINE"
);
}
);
width = 652;
}
);
note = ograve;
unicode = 00F2;
},
{
glyphname = oacute;
lastChange = "2017-11-01 11:13:03 +0000";
layers = (
{
layerId = "A6EA9C16-C626-4B38-A32D-13618352FA56";
paths = (
{
closed = 1;
nodes = (
"149 421 OFFCURVE",
"210 497 OFFCURVE",
"322 497 CURVE SMOOTH",
"431 497 OFFCURVE",
"504 416 OFFCURVE",
"504 279 CURVE SMOOTH",
"504 142 OFFCURVE",
"438 55 OFFCURVE",
"329 55 CURVE SMOOTH",
"220 55 OFFCURVE",
"149 136 OFFCURVE",
"149 273 CURVE SMOOTH"
);
},
{
closed = 1;
nodes = (
"579 441 OFFCURVE",
"480 562 OFFCURVE",
"327 562 CURVE SMOOTH",
"172 562 OFFCURVE",
"73 452 OFFCURVE",
"73 276 CURVE SMOOTH",
"73 101 OFFCURVE",
"184 -10 OFFCURVE",
"324 -10 CURVE SMOOTH",
"480 -10 OFFCURVE",
"579 101 OFFCURVE",
"579 276 CURVE SMOOTH"
);
},
{
closed = 1;
nodes = (
"451 782 LINE",
"360 782 LINE",
"293 602 LINE",
"341 602 LINE"
);
}
);
width = 652;
}
);
note = oacute;
unicode = 00F3;
},
{
glyphname = ocircumflex;
lastChange = "2017-11-01 11:13:03 +0000";
layers = (
{
layerId = "A6EA9C16-C626-4B38-A32D-13618352FA56";
paths = (
{
closed = 1;
nodes = (
"149 421 OFFCURVE",
"210 497 OFFCURVE",
"322 497 CURVE SMOOTH",
"431 497 OFFCURVE",
"504 416 OFFCURVE",
"504 279 CURVE SMOOTH",
"504 142 OFFCURVE",
"438 55 OFFCURVE",
"329 55 CURVE SMOOTH",
"220 55 OFFCURVE",
"149 136 OFFCURVE",
"149 273 CURVE SMOOTH"
);
},
{
closed = 1;
nodes = (
"579 441 OFFCURVE",
"480 562 OFFCURVE",
"327 562 CURVE SMOOTH",
"172 562 OFFCURVE",
"73 452 OFFCURVE",
"73 276 CURVE SMOOTH",
"73 101 OFFCURVE",
"184 -10 OFFCURVE",
"324 -10 CURVE SMOOTH",
"480 -10 OFFCURVE",
"579 101 OFFCURVE",
"579 276 CURVE SMOOTH"
);
},
{
closed = 1;
nodes = (
"324 715 LINE",
"434 602 LINE",
"486 602 LINE",
"357 782 LINE",
"292 782 LINE",
"165 602 LINE",
"215 602 LINE"
);
}
);
width = 652;
}
);
note = ocircumflex;
unicode = 00F4;
},
{
glyphname = otilde;
lastChange = "2017-11-01 11:13:03 +0000";
layers = (
{
layerId = "A6EA9C16-C626-4B38-A32D-13618352FA56";
paths = (
{
closed = 1;
nodes = (
"149 421 OFFCURVE",
"210 497 OFFCURVE",
"322 497 CURVE SMOOTH",
"431 497 OFFCURVE",
"504 416 OFFCURVE",
"504 279 CURVE SMOOTH",
"504 142 OFFCURVE",
"438 55 OFFCURVE",
"329 55 CURVE SMOOTH",
"220 55 OFFCURVE",
"149 136 OFFCURVE",
"149 273 CURVE SMOOTH"
);
},
{
closed = 1;
nodes = (
"579 441 OFFCURVE",
"480 562 OFFCURVE",
"327 562 CURVE SMOOTH",
"172 562 OFFCURVE",
"73 452 OFFCURVE",
"73 276 CURVE SMOOTH",
"73 101 OFFCURVE",
"184 -10 OFFCURVE",
"324 -10 CURVE SMOOTH",
"480 -10 OFFCURVE",
"579 101 OFFCURVE",
"579 276 CURVE SMOOTH"
);
},
{
closed = 1;
nodes = (
"382 647 OFFCURVE",
"393 644 OFFCURVE",
"402 644 CURVE SMOOTH",
"451 644 OFFCURVE",
"485 680 OFFCURVE",
"493 739 CURVE",
"450 756 LINE",
"441 719 OFFCURVE",
"428 703 OFFCURVE",
"401 703 CURVE SMOOTH",
"390 703 OFFCURVE",
"368 711 OFFCURVE",
"336 726 CURVE SMOOTH",
"303 741 OFFCURVE",
"280 749 OFFCURVE",
"267 750 CURVE",
"266 751 OFFCURVE",
"263 751 OFFCURVE",
"260 751 CURVE SMOOTH",
"209 751 OFFCURVE",
"172 715 OFFCURVE",
"164 654 CURVE",
"207 639 LINE",
"215 675 OFFCURVE",
"230 691 OFFCURVE",
"259 691 CURVE SMOOTH",
"270 691 OFFCURVE",
"288 685 OFFCURVE",
"314 673 CURVE SMOOTH",
"339 661 OFFCURVE",
"358 654 OFFCURVE",
"370 653 CURVE"
);
}
);
width = 652;
}
);
note = otilde;
unicode = 00F5;
},
{
glyphname = odieresis;
lastChange = "2017-11-01 11:13:03 +0000";
layers = (
{
layerId = "A6EA9C16-C626-4B38-A32D-13618352FA56";
paths = (
{
closed = 1;
nodes = (
"149 421 OFFCURVE",
"210 497 OFFCURVE",
"322 497 CURVE SMOOTH",
"431 497 OFFCURVE",
"504 416 OFFCURVE",
"504 279 CURVE SMOOTH",
"504 142 OFFCURVE",
"438 55 OFFCURVE",
"329 55 CURVE SMOOTH",
"220 55 OFFCURVE",
"149 136 OFFCURVE",
"149 273 CURVE SMOOTH"
);
},
{
closed = 1;
nodes = (
"579 441 OFFCURVE",
"480 562 OFFCURVE",
"327 562 CURVE SMOOTH",
"172 562 OFFCURVE",
"73 452 OFFCURVE",
"73 276 CURVE SMOOTH",
"73 101 OFFCURVE",
"184 -10 OFFCURVE",
"324 -10 CURVE SMOOTH",
"480 -10 OFFCURVE",
"579 101 OFFCURVE",
"579 276 CURVE SMOOTH"
);
},
{
closed = 1;
nodes = (
"259 650 OFFCURVE",
"279 668 OFFCURVE",
"279 696 CURVE SMOOTH",
"279 725 OFFCURVE",
"259 742 OFFCURVE",
"235 742 CURVE SMOOTH",
"210 742 OFFCURVE",
"189 725 OFFCURVE",
"189 696 CURVE SMOOTH",
"189 668 OFFCURVE",
"210 650 OFFCURVE",
"235 650 CURVE SMOOTH"
);
},
{
closed = 1;
nodes = (
"443 650 OFFCURVE",
"463 668 OFFCURVE",
"463 696 CURVE SMOOTH",
"463 725 OFFCURVE",
"443 742 OFFCURVE",
"419 742 CURVE SMOOTH",
"394 742 OFFCURVE",
"373 725 OFFCURVE",
"373 696 CURVE SMOOTH",
"373 668 OFFCURVE",
"394 650 OFFCURVE",
"419 650 CURVE SMOOTH"
);
}
);
width = 652;
}
);
note = odieresis;
unicode = 00F6;
},
{
glyphname = divide;
lastChange = "2017-11-01 11:13:03 +0000";
layers = (
{
layerId = "A6EA9C16-C626-4B38-A32D-13618352FA56";
paths = (
{
closed = 1;
nodes = (
"239 520 OFFCURVE",
"261 502 OFFCURVE",
"286 502 CURVE SMOOTH",
"310 502 OFFCURVE",
"330 520 OFFCURVE",
"330 549 CURVE SMOOTH",
"330 580 OFFCURVE",
"311 596 OFFCURVE",
"286 596 CURVE SMOOTH",
"259 596 OFFCURVE",
"239 580 OFFCURVE",
"239 549 CURVE SMOOTH"
);
},
{
closed = 1;
nodes = (
"239 138 OFFCURVE",
"261 120 OFFCURVE",
"286 120 CURVE SMOOTH",
"310 120 OFFCURVE",
"330 138 OFFCURVE",
"330 167 CURVE SMOOTH",
"330 198 OFFCURVE",
"311 214 OFFCURVE",
"286 214 CURVE SMOOTH",
"259 214 OFFCURVE",
"239 198 OFFCURVE",
"239 167 CURVE SMOOTH"
);
},
{
closed = 1;
nodes = (
"520 328 LINE",
"520 387 LINE",
"51 387 LINE",
"51 328 LINE"
);
}
);
width = 572;
}
);
note = divide;
unicode = 00F7;
},
{
glyphname = oslash;
lastChange = "2017-11-01 11:13:03 +0000";
layers = (
{
layerId = "A6EA9C16-C626-4B38-A32D-13618352FA56";
paths = (
{
closed = 1;
nodes = (
"579 374 OFFCURVE",
"549 449 OFFCURVE",
"489 502 CURVE",
"552 611 LINE",
"502 640 LINE",
"442 535 LINE",
"407 553 OFFCURVE",
"369 562 OFFCURVE",
"327 562 CURVE SMOOTH",
"172 562 OFFCURVE",
"73 452 OFFCURVE",
"73 276 CURVE SMOOTH",
"73 180 OFFCURVE",
"103 105 OFFCURVE",
"162 50 CURVE",
"101 -56 LINE",
"151 -85 LINE",
"210 17 LINE",
"245 -1 OFFCURVE",
"283 -10 OFFCURVE",
"324 -10 CURVE SMOOTH",
"480 -10 OFFCURVE",
"579 101 OFFCURVE",
"579 276 CURVE SMOOTH"
);
},
{
closed = 1;
nodes = (
"504 142 OFFCURVE",
"438 55 OFFCURVE",
"329 55 CURVE SMOOTH",
"297 55 OFFCURVE",
"269 62 OFFCURVE",
"244 75 CURVE",
"453 439 LINE",
"487 400 OFFCURVE",
"504 346 OFFCURVE",
"504 279 CURVE SMOOTH"
);
},
{
closed = 1;
nodes = (
"149 421 OFFCURVE",
"210 497 OFFCURVE",
"322 497 CURVE SMOOTH",
"354 497 OFFCURVE",
"383 490 OFFCURVE",
"408 476 CURVE",
"198 112 LINE",
"165 150 OFFCURVE",
"149 204 OFFCURVE",
"149 273 CURVE SMOOTH"
);
}
);
width = 652;
}
);
note = oslash;
unicode = 00F8;
},
{
glyphname = ugrave;
lastChange = "2017-11-01 11:13:03 +0000";
layers = (
{
layerId = "A6EA9C16-C626-4B38-A32D-13618352FA56";
paths = (
{
closed = 1;
nodes = (
"101 66 OFFCURVE",
"168 -10 OFFCURVE",
"301 -10 CURVE SMOOTH",
"382 -10 OFFCURVE",
"442 27 OFFCURVE",
"483 101 CURVE",
"483 0 LINE",
"552 0 LINE",
"552 552 LINE",
"482 552 LINE",
"482 304 LINE SMOOTH",
"482 143 OFFCURVE",
"422 55 OFFCURVE",
"310 55 CURVE SMOOTH",
"215 55 OFFCURVE",
"171 108 OFFCURVE",
"171 220 CURVE SMOOTH",
"171 552 LINE",
"101 552 LINE",
"101 217 LINE SMOOTH"
);
},
{
closed = 1;
nodes = (
"313 602 LINE",
"361 602 LINE",
"294 782 LINE",
"203 782 LINE"
);
}
);
width = 658;
}
);
note = ugrave;
unicode = 00F9;
},
{
glyphname = uacute;
lastChange = "2017-11-01 11:13:03 +0000";
layers = (
{
layerId = "A6EA9C16-C626-4B38-A32D-13618352FA56";
paths = (
{
closed = 1;
nodes = (
"101 66 OFFCURVE",
"168 -10 OFFCURVE",
"301 -10 CURVE SMOOTH",
"382 -10 OFFCURVE",
"442 27 OFFCURVE",
"483 101 CURVE",
"483 0 LINE",
"552 0 LINE",
"552 552 LINE",
"482 552 LINE",
"482 304 LINE SMOOTH",
"482 143 OFFCURVE",
"422 55 OFFCURVE",
"310 55 CURVE SMOOTH",
"215 55 OFFCURVE",
"171 108 OFFCURVE",
"171 220 CURVE SMOOTH",
"171 552 LINE",
"101 552 LINE",
"101 217 LINE SMOOTH"
);
},
{
closed = 1;
nodes = (
"452 782 LINE",
"361 782 LINE",
"294 602 LINE",
"342 602 LINE"
);
}
);
width = 658;
}
);
note = uacute;
unicode = 00FA;
},
{
glyphname = ucircumflex;
lastChange = "2017-11-01 11:13:03 +0000";
layers = (
{
layerId = "A6EA9C16-C626-4B38-A32D-13618352FA56";
paths = (
{
closed = 1;
nodes = (
"101 66 OFFCURVE",
"168 -10 OFFCURVE",
"301 -10 CURVE SMOOTH",
"382 -10 OFFCURVE",
"442 27 OFFCURVE",
"483 101 CURVE",
"483 0 LINE",
"552 0 LINE",
"552 552 LINE",
"482 552 LINE",
"482 304 LINE SMOOTH",
"482 143 OFFCURVE",
"422 55 OFFCURVE",
"310 55 CURVE SMOOTH",
"215 55 OFFCURVE",
"171 108 OFFCURVE",
"171 220 CURVE SMOOTH",
"171 552 LINE",
"101 552 LINE",
"101 217 LINE SMOOTH"
);
},
{
closed = 1;
nodes = (
"325 715 LINE",
"435 602 LINE",
"487 602 LINE",
"358 782 LINE",
"293 782 LINE",
"166 602 LINE",
"216 602 LINE"
);
}
);
width = 658;
}
);
note = ucircumflex;
unicode = 00FB;
},
{
glyphname = udieresis;
lastChange = "2017-11-01 11:13:03 +0000";
layers = (
{
layerId = "A6EA9C16-C626-4B38-A32D-13618352FA56";
paths = (
{
closed = 1;
nodes = (
"101 66 OFFCURVE",
"168 -10 OFFCURVE",
"301 -10 CURVE SMOOTH",
"382 -10 OFFCURVE",
"442 27 OFFCURVE",
"483 101 CURVE",
"483 0 LINE",
"552 0 LINE",
"552 552 LINE",
"482 552 LINE",
"482 304 LINE SMOOTH",
"482 143 OFFCURVE",
"422 55 OFFCURVE",
"310 55 CURVE SMOOTH",
"215 55 OFFCURVE",
"171 108 OFFCURVE",
"171 220 CURVE SMOOTH",
"171 552 LINE",
"101 552 LINE",
"101 217 LINE SMOOTH"
);
},
{
closed = 1;
nodes = (
"260 650 OFFCURVE",
"280 668 OFFCURVE",
"280 696 CURVE SMOOTH",
"280 725 OFFCURVE",
"260 742 OFFCURVE",
"236 742 CURVE SMOOTH",
"211 742 OFFCURVE",
"190 725 OFFCURVE",
"190 696 CURVE SMOOTH",
"190 668 OFFCURVE",
"211 650 OFFCURVE",
"236 650 CURVE SMOOTH"
);
},
{
closed = 1;
nodes = (
"444 650 OFFCURVE",
"464 668 OFFCURVE",
"464 696 CURVE SMOOTH",
"464 725 OFFCURVE",
"444 742 OFFCURVE",
"420 742 CURVE SMOOTH",
"395 742 OFFCURVE",
"374 725 OFFCURVE",
"374 696 CURVE SMOOTH",
"374 668 OFFCURVE",
"395 650 OFFCURVE",
"420 650 CURVE SMOOTH"
);
}
);
width = 658;
}
);
note = udieresis;
unicode = 00FC;
},
{
glyphname = yacute;
lastChange = "2017-11-01 11:13:03 +0000";
layers = (
{
layerId = "A6EA9C16-C626-4B38-A32D-13618352FA56";
paths = (
{
closed = 1;
nodes = (
"468 552 LINE",
"286 97 LINE",
"210 289 LINE",
"103 552 LINE",
"24 552 LINE",
"251 20 LINE",
"144 -220 LINE",
"223 -220 LINE",
"545 552 LINE"
);
},
{
closed = 1;
nodes = (
"411 782 LINE",
"320 782 LINE",
"253 602 LINE",
"301 602 LINE"
);
}
);
width = 569;
}
);
note = yacute;
unicode = 00FD;
},
{
glyphname = thorn;
lastChange = "2017-11-01 11:13:03 +0000";
layers = (
{
layerId = "A6EA9C16-C626-4B38-A32D-13618352FA56";
paths = (
{
closed = 1;
nodes = (
"174 416 OFFCURVE",
"245 497 OFFCURVE",
"354 497 CURVE SMOOTH",
"466 497 OFFCURVE",
"530 411 OFFCURVE",
"530 275 CURVE SMOOTH",
"530 136 OFFCURVE",
"459 55 OFFCURVE",
"351 55 CURVE SMOOTH",
"240 55 OFFCURVE",
"174 132 OFFCURVE",
"174 279 CURVE SMOOTH"
);
},
{
closed = 1;
nodes = (
"217 26 OFFCURVE",
"280 -10 OFFCURVE",
"363 -10 CURVE SMOOTH",
"512 -10 OFFCURVE",
"606 109 OFFCURVE",
"606 277 CURVE SMOOTH",
"606 453 OFFCURVE",
"514 562 OFFCURVE",
"363 562 CURVE SMOOTH",
"286 562 OFFCURVE",
"216 524 OFFCURVE",
"176 456 CURVE",
"176 742 LINE",
"106 742 LINE",
"106 -220 LINE",
"176 -220 LINE",
"176 97 LINE"
);
}
);
width = 679;
}
);
note = thorn;
unicode = 00FE;
},
{
glyphname = ydieresis;
lastChange = "2017-11-01 11:13:03 +0000";
layers = (
{
layerId = "A6EA9C16-C626-4B38-A32D-13618352FA56";
paths = (
{
closed = 1;
nodes = (
"468 552 LINE",
"286 97 LINE",
"210 289 LINE",
"103 552 LINE",
"24 552 LINE",
"251 20 LINE",
"144 -220 LINE",
"223 -220 LINE",
"545 552 LINE"
);
},
{
closed = 1;
nodes = (
"219 650 OFFCURVE",
"239 668 OFFCURVE",
"239 696 CURVE SMOOTH",
"239 725 OFFCURVE",
"219 742 OFFCURVE",
"195 742 CURVE SMOOTH",
"170 742 OFFCURVE",
"149 725 OFFCURVE",
"149 696 CURVE SMOOTH",
"149 668 OFFCURVE",
"170 650 OFFCURVE",
"195 650 CURVE SMOOTH"
);
},
{
closed = 1;
nodes = (
"403 650 OFFCURVE",
"423 668 OFFCURVE",
"423 696 CURVE SMOOTH",
"423 725 OFFCURVE",
"403 742 OFFCURVE",
"379 742 CURVE SMOOTH",
"354 742 OFFCURVE",
"333 725 OFFCURVE",
"333 696 CURVE SMOOTH",
"333 668 OFFCURVE",
"354 650 OFFCURVE",
"379 650 CURVE SMOOTH"
);
}
);
width = 569;
}
);
note = ydieresis;
unicode = 00FF;
},
{
glyphname = Gbreve;
lastChange = "2017-11-01 11:13:03 +0000";
layers = (
{
layerId = "A6EA9C16-C626-4B38-A32D-13618352FA56";
paths = (
{
closed = 1;
nodes = (
"424 295 LINE",
"579 295 LINE",
"579 69 LINE",
"534 60 OFFCURVE",
"492 56 OFFCURVE",
"455 56 CURVE SMOOTH",
"272 56 OFFCURVE",
"152 165 OFFCURVE",
"152 354 CURVE SMOOTH",
"152 553 OFFCURVE",
"263 658 OFFCURVE",
"427 658 CURVE SMOOTH",
"484 658 OFFCURVE",
"539 646 OFFCURVE",
"594 622 CURVE",
"603 696 LINE",
"550 715 OFFCURVE",
"491 724 OFFCURVE",
"426 724 CURVE SMOOTH",
"223 724 OFFCURVE",
"78 580 OFFCURVE",
"78 356 CURVE SMOOTH",
"78 128 OFFCURVE",
"231 -10 OFFCURVE",
"456 -10 CURVE SMOOTH",
"519 -10 OFFCURVE",
"582 0 OFFCURVE",
"646 21 CURVE",
"646 358 LINE",
"424 358 LINE"
);
},
{
closed = 1;
nodes = (
"339 834 OFFCURVE",
"300 874 OFFCURVE",
"286 953 CURVE",
"242 953 LINE",
"251 833 OFFCURVE",
"305 773 OFFCURVE",
"404 773 CURVE SMOOTH",
"501 773 OFFCURVE",
"556 833 OFFCURVE",
"567 953 CURVE",
"523 953 LINE",
"509 874 OFFCURVE",
"469 834 OFFCURVE",
"404 834 CURVE SMOOTH"
);
}
);
width = 747;
}
);
note = Gbreve;
unicode = 011E;
},
{
glyphname = gbreve;
lastChange = "2017-11-01 11:13:03 +0000";
layers = (
{
layerId = "A6EA9C16-C626-4B38-A32D-13618352FA56";
paths = (
{
closed = 1;
nodes = (
"175 448 OFFCURVE",
"228 497 OFFCURVE",
"311 497 CURVE SMOOTH",
"386 497 OFFCURVE",
"441 442 OFFCURVE",
"441 365 CURVE SMOOTH",
"441 289 OFFCURVE",
"389 235 OFFCURVE",
"310 235 CURVE SMOOTH",
"233 235 OFFCURVE",
"175 286 OFFCURVE",
"175 365 CURVE SMOOTH"
);
},
{
closed = 1;
nodes = (
"234 -8 OFFCURVE",
"266 -6 OFFCURVE",
"311 -3 CURVE SMOOTH",
"356 0 OFFCURVE",
"388 2 OFFCURVE",
"409 2 CURVE SMOOTH",
"460 2 OFFCURVE",
"486 -21 OFFCURVE",
"486 -66 CURVE SMOOTH",
"486 -129 OFFCURVE",
"423 -177 OFFCURVE",
"310 -177 CURVE SMOOTH",
"201 -177 OFFCURVE",
"150 -138 OFFCURVE",
"150 -82 CURVE SMOOTH",
"150 -49 OFFCURVE",
"163 -24 OFFCURVE",
"190 -6 CURVE",
"195 -7 OFFCURVE",
"203 -8 OFFCURVE",
"215 -8 CURVE SMOOTH"
);
},
{
closed = 1;
nodes = (
"459 -240 OFFCURVE",
"554 -160 OFFCURVE",
"554 -59 CURVE SMOOTH",
"554 17 OFFCURVE",
"502 70 OFFCURVE",
"413 70 CURVE SMOOTH",
"392 70 OFFCURVE",
"359 68 OFFCURVE",
"313 65 CURVE SMOOTH",
"266 62 OFFCURVE",
"235 60 OFFCURVE",
"218 60 CURVE SMOOTH",
"201 60 OFFCURVE",
"187 64 OFFCURVE",
"176 72 CURVE SMOOTH",
"153 88 OFFCURVE",
"149 113 OFFCURVE",
"158 141 CURVE",
"163 162 OFFCURVE",
"178 180 OFFCURVE",
"203 194 CURVE",
"232 177 OFFCURVE",
"268 169 OFFCURVE",
"311 169 CURVE SMOOTH",
"427 169 OFFCURVE",
"514 248 OFFCURVE",
"514 355 CURVE SMOOTH",
"514 420 OFFCURVE",
"491 468 OFFCURVE",
"446 499 CURVE",
"591 492 LINE",
"600 552 LINE",
"486 552 LINE SMOOTH",
"460 552 OFFCURVE",
"430 554 OFFCURVE",
"396 557 CURVE SMOOTH",
"362 560 OFFCURVE",
"334 562 OFFCURVE",
"313 562 CURVE SMOOTH",
"188 562 OFFCURVE",
"103 484 OFFCURVE",
"103 364 CURVE SMOOTH",
"103 310 OFFCURVE",
"122 263 OFFCURVE",
"160 224 CURVE",
"111 197 OFFCURVE",
"87 159 OFFCURVE",
"87 112 CURVE SMOOTH",
"87 67 OFFCURVE",
"107 33 OFFCURVE",
"146 10 CURVE",
"103 -15 OFFCURVE",
"82 -51 OFFCURVE",
"82 -98 CURVE SMOOTH",
"82 -179 OFFCURVE",
"158 -240 OFFCURVE",
"295 -240 CURVE SMOOTH"
);
},
{
closed = 1;
nodes = (
"249 684 OFFCURVE",
"209 722 OFFCURVE",
"196 798 CURVE",
"152 798 LINE",
"161 681 OFFCURVE",
"215 623 OFFCURVE",
"314 623 CURVE SMOOTH",
"413 623 OFFCURVE",
"467 681 OFFCURVE",
"477 798 CURVE",
"433 798 LINE",
"420 722 OFFCURVE",
"380 684 OFFCURVE",
"314 684 CURVE SMOOTH"
);
}
);
width = 626;
}
);
note = gbreve;
unicode = 011F;
},
{
glyphname = dotlessI;
lastChange = "2017-11-01 11:13:03 +0000";
layers = (
{
layerId = "A6EA9C16-C626-4B38-A32D-13618352FA56";
paths = (
{
closed = 1;
nodes = (
"116 694 LINE",
"116 0 LINE",
"185 0 LINE",
"185 694 LINE"
);
},
{
closed = 1;
nodes = (
"105 780 OFFCURVE",
"124 763 OFFCURVE",
"151 763 CURVE SMOOTH",
"176 763 OFFCURVE",
"196 780 OFFCURVE",
"196 809 CURVE SMOOTH",
"196 840 OFFCURVE",
"176 855 OFFCURVE",
"151 855 CURVE SMOOTH",
"124 855 OFFCURVE",
"105 840 OFFCURVE",
"105 809 CURVE SMOOTH"
);
}
);
width = 301;
}
);
note = dotlessI;
unicode = 0130;
},
{
glyphname = dotlessi;
lastChange = "2017-11-01 11:13:03 +0000";
layers = (
{
layerId = "A6EA9C16-C626-4B38-A32D-13618352FA56";
paths = (
{
closed = 1;
nodes = (
"106 552 LINE",
"106 0 LINE",
"175 0 LINE",
"175 552 LINE"
);
}
);
width = 281;
}
);
note = dotlessi;
unicode = 0131;
},
{
glyphname = Lslash;
lastChange = "2017-11-01 11:13:03 +0000";
layers = (
{
layerId = "A6EA9C16-C626-4B38-A32D-13618352FA56";
paths = (
{
closed = 1;
nodes = (
"213 65 LINE",
"213 297 LINE",
"427 422 LINE",
"398 470 LINE",
"213 362 LINE",
"213 714 LINE",
"143 714 LINE",
"143 324 LINE",
"20 251 LINE",
"48 203 LINE",
"143 259 LINE",
"143 0 LINE",
"532 0 LINE",
"532 65 LINE"
);
}
);
width = 575;
}
);
note = Lslash;
unicode = 0141;
},
{
glyphname = lslash;
lastChange = "2017-11-01 11:13:03 +0000";
layers = (
{
layerId = "A6EA9C16-C626-4B38-A32D-13618352FA56";
paths = (
{
closed = 1;
nodes = (
"355 378 LINE",
"327 426 LINE",
"213 361 LINE",
"213 746 LINE",
"144 746 LINE",
"144 325 LINE",
"22 254 LINE",
"50 205 LINE",
"144 259 LINE",
"144 0 LINE",
"213 0 LINE",
"213 296 LINE"
);
}
);
width = 373;
}
);
note = lslash;
unicode = 0142;
},
{
glyphname = OE;
lastChange = "2017-11-01 11:13:03 +0000";
layers = (
{
layerId = "A6EA9C16-C626-4B38-A32D-13618352FA56";
paths = (
{
closed = 1;
nodes = (
"587 343 LINE",
"877 343 LINE",
"877 406 LINE",
"587 406 LINE",
"587 650 LINE",
"897 650 LINE",
"897 714 LINE",
"517 714 LINE",
"517 706 LINE",
"475 718 OFFCURVE",
"439 724 OFFCURVE",
"409 724 CURVE SMOOTH",
"205 724 OFFCURVE",
"78 578 OFFCURVE",
"78 357 CURVE SMOOTH",
"78 140 OFFCURVE",
"215 -10 OFFCURVE",
"410 -10 CURVE SMOOTH",
"443 -10 OFFCURVE",
"478 -4 OFFCURVE",
"517 7 CURVE",
"517 0 LINE",
"907 0 LINE",
"907 64 LINE",
"587 64 LINE"
);
},
{
closed = 1;
nodes = (
"258 56 OFFCURVE",
"153 171 OFFCURVE",
"153 354 CURVE SMOOTH",
"153 549 OFFCURVE",
"247 658 OFFCURVE",
"403 658 CURVE SMOOTH",
"443 658 OFFCURVE",
"481 650 OFFCURVE",
"517 635 CURVE",
"517 78 LINE",
"487 63 OFFCURVE",
"453 56 OFFCURVE",
"414 56 CURVE SMOOTH"
);
}
);
width = 986;
}
);
note = OE;
unicode = 0152;
},
{
glyphname = oe;
lastChange = "2017-11-01 11:13:03 +0000";
layers = (
{
layerId = "A6EA9C16-C626-4B38-A32D-13618352FA56";
paths = (
{
closed = 1;
nodes = (
"172 562 OFFCURVE",
"73 452 OFFCURVE",
"73 276 CURVE SMOOTH",
"73 101 OFFCURVE",
"184 -10 OFFCURVE",
"324 -10 CURVE SMOOTH",
"424 -10 OFFCURVE",
"502 36 OFFCURVE",
"543 116 CURVE",
"591 32 OFFCURVE",
"672 -10 OFFCURVE",
"786 -10 CURVE SMOOTH",
"846 -10 OFFCURVE",
"901 0 OFFCURVE",
"950 19 CURVE",
"949 89 LINE",
"895 66 OFFCURVE",
"841 55 OFFCURVE",
"786 55 CURVE SMOOTH",
"661 55 OFFCURVE",
"578 138 OFFCURVE",
"578 277 CURVE",
"968 277 LINE",
"970 293 OFFCURVE",
"971 314 OFFCURVE",
"971 339 CURVE SMOOTH",
"971 471 OFFCURVE",
"885 562 OFFCURVE",
"748 562 CURVE SMOOTH",
"663 562 OFFCURVE",
"584 515 OFFCURVE",
"541 434 CURVE",
"500 514 OFFCURVE",
"423 562 OFFCURVE",
"327 562 CURVE SMOOTH"
);
},
{
closed = 1;
nodes = (
"149 421 OFFCURVE",
"210 497 OFFCURVE",
"322 497 CURVE SMOOTH",
"431 497 OFFCURVE",
"504 416 OFFCURVE",
"504 279 CURVE SMOOTH",
"504 142 OFFCURVE",
"438 55 OFFCURVE",
"329 55 CURVE SMOOTH",
"220 55 OFFCURVE",
"149 136 OFFCURVE",
"149 273 CURVE SMOOTH"
);
},
{
closed = 1;
nodes = (
"843 497 OFFCURVE",
"899 440 OFFCURVE",
"899 337 CURVE",
"583 337 LINE",
"594 429 OFFCURVE",
"663 497 OFFCURVE",
"751 497 CURVE SMOOTH"
);
}
);
width = 1041;
}
);
note = oe;
unicode = 0153;
},
{
glyphname = Scedilla;
lastChange = "2017-11-01 11:13:03 +0000";
layers = (
{
layerId = "A6EA9C16-C626-4B38-A32D-13618352FA56";
paths = (
{
closed = 1;
nodes = (
"514 270 OFFCURVE",
"467 335 OFFCURVE",
"373 373 CURVE SMOOTH",
"247 425 LINE SMOOTH",
"183 450 OFFCURVE",
"150 480 OFFCURVE",
"150 539 CURVE SMOOTH",
"150 607 OFFCURVE",
"208 658 OFFCURVE",
"305 658 CURVE SMOOTH",
"363 658 OFFCURVE",
"420 642 OFFCURVE",
"475 609 CURVE",
"491 683 LINE",
"430 710 OFFCURVE",
"368 724 OFFCURVE",
"304 724 CURVE SMOOTH",
"171 724 OFFCURVE",
"78 644 OFFCURVE",
"78 539 CURVE SMOOTH",
"78 452 OFFCURVE",
"123 401 OFFCURVE",
"222 358 CURVE SMOOTH",
"343 308 LINE SMOOTH",
"408 280 OFFCURVE",
"441 237 OFFCURVE",
"441 178 CURVE SMOOTH",
"441 105 OFFCURVE",
"379 56 OFFCURVE",
"271 56 CURVE SMOOTH",
"207 56 OFFCURVE",
"142 76 OFFCURVE",
"76 115 CURVE",
"67 38 LINE",
"131 6 OFFCURVE",
"198 -10 OFFCURVE",
"268 -10 CURVE SMOOTH",
"423 -10 OFFCURVE",
"514 63 OFFCURVE",
"514 179 CURVE SMOOTH"
);
},
{
closed = 1;
nodes = (
"180 -230 LINE",
"271 -230 LINE",
"338 -50 LINE",
"290 -50 LINE"
);
}
);
width = 575;
}
);
note = Scedilla;
unicode = 015E;
},
{
glyphname = scedilla;
lastChange = "2017-11-01 11:13:03 +0000";
layers = (
{
layerId = "A6EA9C16-C626-4B38-A32D-13618352FA56";
paths = (
{
closed = 1;
nodes = (
"151 -230 LINE",
"242 -230 LINE",
"309 -50 LINE",
"261 -50 LINE"
);
},
{
closed = 1;
nodes = (
"455 207 OFFCURVE",
"423 257 OFFCURVE",
"336 293 CURVE SMOOTH",
"214 342 LINE SMOOTH",
"166 362 OFFCURVE",
"142 389 OFFCURVE",
"142 422 CURVE SMOOTH",
"142 467 OFFCURVE",
"183 496 OFFCURVE",
"264 496 CURVE SMOOTH",
"314 496 OFFCURVE",
"364 481 OFFCURVE",
"415 451 CURVE",
"424 527 LINE",
"381 550 OFFCURVE",
"328 562 OFFCURVE",
"263 562 CURVE SMOOTH",
"146 562 OFFCURVE",
"72 505 OFFCURVE",
"72 420 CURVE SMOOTH",
"72 355 OFFCURVE",
"110 307 OFFCURVE",
"187 276 CURVE SMOOTH",
"307 227 LINE SMOOTH",
"366 203 OFFCURVE",
"382 179 OFFCURVE",
"382 139 CURVE SMOOTH",
"382 84 OFFCURVE",
"342 56 OFFCURVE",
"261 56 CURVE SMOOTH",
"203 56 OFFCURVE",
"143 74 OFFCURVE",
"81 111 CURVE",
"70 34 LINE",
"125 5 OFFCURVE",
"189 -10 OFFCURVE",
"263 -10 CURVE SMOOTH",
"384 -10 OFFCURVE",
"455 43 OFFCURVE",
"455 138 CURVE SMOOTH"
);
}
);
width = 537;
}
);
note = scedilla;
unicode = 015F;
},
{
glyphname = Scaron;
lastChange = "2017-11-01 11:13:03 +0000";
layers = (
{
layerId = "A6EA9C16-C626-4B38-A32D-13618352FA56";
paths = (
{
closed = 1;
nodes = (
"514 270 OFFCURVE",
"467 335 OFFCURVE",
"373 373 CURVE SMOOTH",
"247 425 LINE SMOOTH",
"183 450 OFFCURVE",
"150 480 OFFCURVE",
"150 539 CURVE SMOOTH",
"150 607 OFFCURVE",
"208 658 OFFCURVE",
"305 658 CURVE SMOOTH",
"363 658 OFFCURVE",
"420 642 OFFCURVE",
"475 609 CURVE",
"491 683 LINE",
"430 710 OFFCURVE",
"368 724 OFFCURVE",
"304 724 CURVE SMOOTH",
"171 724 OFFCURVE",
"78 644 OFFCURVE",
"78 539 CURVE SMOOTH",
"78 452 OFFCURVE",
"123 401 OFFCURVE",
"222 358 CURVE SMOOTH",
"343 308 LINE SMOOTH",
"408 280 OFFCURVE",
"441 237 OFFCURVE",
"441 178 CURVE SMOOTH",
"441 105 OFFCURVE",
"379 56 OFFCURVE",
"271 56 CURVE SMOOTH",
"207 56 OFFCURVE",
"142 76 OFFCURVE",
"76 115 CURVE",
"67 38 LINE",
"131 6 OFFCURVE",
"198 -10 OFFCURVE",
"268 -10 CURVE SMOOTH",
"423 -10 OFFCURVE",
"514 63 OFFCURVE",
"514 179 CURVE SMOOTH"
);
},
{
closed = 1;
nodes = (
"458 934 LINE",
"406 934 LINE",
"296 821 LINE",
"187 934 LINE",
"137 934 LINE",
"264 754 LINE",
"329 754 LINE"
);
}
);
width = 575;
}
);
note = Scaron;
unicode = 0160;
},
{
glyphname = scaron;
lastChange = "2017-11-01 11:13:03 +0000";
layers = (
{
layerId = "A6EA9C16-C626-4B38-A32D-13618352FA56";
paths = (
{
closed = 1;
nodes = (
"455 207 OFFCURVE",
"423 257 OFFCURVE",
"336 293 CURVE SMOOTH",
"214 342 LINE SMOOTH",
"166 362 OFFCURVE",
"142 389 OFFCURVE",
"142 422 CURVE SMOOTH",
"142 467 OFFCURVE",
"183 496 OFFCURVE",
"264 496 CURVE SMOOTH",
"314 496 OFFCURVE",
"364 481 OFFCURVE",
"415 451 CURVE",
"424 527 LINE",
"381 550 OFFCURVE",
"328 562 OFFCURVE",
"263 562 CURVE SMOOTH",
"146 562 OFFCURVE",
"72 505 OFFCURVE",
"72 420 CURVE SMOOTH",
"72 355 OFFCURVE",
"110 307 OFFCURVE",
"187 276 CURVE SMOOTH",
"307 227 LINE SMOOTH",
"366 203 OFFCURVE",
"382 179 OFFCURVE",
"382 139 CURVE SMOOTH",
"382 84 OFFCURVE",
"342 56 OFFCURVE",
"261 56 CURVE SMOOTH",
"203 56 OFFCURVE",
"143 74 OFFCURVE",
"81 111 CURVE",
"70 34 LINE",
"125 5 OFFCURVE",
"189 -10 OFFCURVE",
"263 -10 CURVE SMOOTH",
"384 -10 OFFCURVE",
"455 43 OFFCURVE",
"455 138 CURVE SMOOTH"
);
},
{
closed = 1;
nodes = (
"421 782 LINE",
"369 782 LINE",
"259 669 LINE",
"150 782 LINE",
"100 782 LINE",
"227 602 LINE",
"292 602 LINE"
);
}
);
width = 516;
}
);
note = scaron;
unicode = 0161;
},
{
glyphname = Ydieresis;
lastChange = "2017-11-01 11:13:03 +0000";
layers = (
{
layerId = "A6EA9C16-C626-4B38-A32D-13618352FA56";
paths = (
{
closed = 1;
nodes = (
"267 304 LINE",
"267 0 LINE",
"337 0 LINE",
"337 308 LINE",
"575 714 LINE",
"499 714 LINE",
"302 375 LINE",
"106 714 LINE",
"29 714 LINE"
);
},
{
closed = 1;
nodes = (
"236 792 OFFCURVE",
"256 810 OFFCURVE",
"256 838 CURVE SMOOTH",
"256 867 OFFCURVE",
"236 884 OFFCURVE",
"212 884 CURVE SMOOTH",
"187 884 OFFCURVE",
"166 867 OFFCURVE",
"166 838 CURVE SMOOTH",
"166 810 OFFCURVE",
"187 792 OFFCURVE",
"212 792 CURVE SMOOTH"
);
},
{
closed = 1;
nodes = (
"420 792 OFFCURVE",
"440 810 OFFCURVE",
"440 838 CURVE SMOOTH",
"440 867 OFFCURVE",
"420 884 OFFCURVE",
"396 884 CURVE SMOOTH",
"371 884 OFFCURVE",
"350 867 OFFCURVE",
"350 838 CURVE SMOOTH",
"350 810 OFFCURVE",
"371 792 OFFCURVE",
"396 792 CURVE SMOOTH"
);
}
);
width = 604;
}
);
note = Ydieresis;
unicode = 0178;
},
{
glyphname = Zcaron;
lastChange = "2017-11-01 11:13:03 +0000";
layers = (
{
layerId = "A6EA9C16-C626-4B38-A32D-13618352FA56";
paths = (
{
closed = 1;
nodes = (
"533 655 LINE",
"533 714 LINE",
"71 714 LINE",
"71 650 LINE",
"449 650 LINE",
"58 59 LINE",
"58 0 LINE",
"544 0 LINE",
"544 64 LINE",
"142 64 LINE"
);
},
{
closed = 1;
nodes = (
"465 934 LINE",
"413 934 LINE",
"303 821 LINE",
"194 934 LINE",
"144 934 LINE",
"271 754 LINE",
"336 754 LINE"
);
}
);
width = 601;
}
);
note = Zcaron;
unicode = 017D;
},
{
glyphname = zcaron;
lastChange = "2017-11-01 11:13:03 +0000";
layers = (
{
layerId = "A6EA9C16-C626-4B38-A32D-13618352FA56";
paths = (
{
closed = 1;
nodes = (
"473 492 LINE",
"473 552 LINE",
"76 552 LINE",
"76 492 LINE",
"387 492 LINE",
"56 54 LINE",
"56 0 LINE",
"480 0 LINE",
"480 60 LINE",
"145 60 LINE"
);
},
{
closed = 1;
nodes = (
"429 782 LINE",
"377 782 LINE",
"267 669 LINE",
"158 782 LINE",
"108 782 LINE",
"235 602 LINE",
"300 602 LINE"
);
}
);
width = 530;
}
);
note = zcaron;
unicode = 017E;
},
{
glyphname = florin;
lastChange = "2017-11-01 11:13:03 +0000";
layers = (
{
layerId = "A6EA9C16-C626-4B38-A32D-13618352FA56";
paths = (
{
closed = 1;
nodes = (
"132 402 LINE",
"243 402 LINE",
"160 -70 LINE SMOOTH",
"150 -127 OFFCURVE",
"119 -155 OFFCURVE",
"68 -155 CURVE SMOOTH",
"52 -155 OFFCURVE",
"35 -152 OFFCURVE",
"18 -147 CURVE",
"12 -211 LINE",
"30 -217 OFFCURVE",
"48 -220 OFFCURVE",
"65 -220 CURVE SMOOTH",
"156 -220 OFFCURVE",
"210 -174 OFFCURVE",
"226 -81 CURVE SMOOTH",
"313 402 LINE",
"467 402 LINE",
"487 462 LINE",
"324 462 LINE",
"338 545 LINE SMOOTH",
"350 620 OFFCURVE",
"392 658 OFFCURVE",
"464 658 CURVE SMOOTH",
"491 658 OFFCURVE",
"516 654 OFFCURVE",
"539 646 CURVE",
"547 712 LINE",
"521 720 OFFCURVE",
"494 724 OFFCURVE",
"466 724 CURVE SMOOTH",
"357 724 OFFCURVE",
"287 658 OFFCURVE",
"270 557 CURVE SMOOTH",
"254 462 LINE",
"143 462 LINE"
);
}
);
width = 568;
}
);
note = florin;
unicode = 0192;
},
{
glyphname = dotlessj;
lastChange = "2017-11-01 11:13:03 +0000";
layers = (
{
layerId = "A6EA9C16-C626-4B38-A32D-13618352FA56";
paths = (
{
closed = 1;
nodes = (
"124 -132 OFFCURVE",
"98 -161 OFFCURVE",
"45 -161 CURVE SMOOTH",
"30 -161 OFFCURVE",
"13 -159 OFFCURVE",
"-5 -156 CURVE",
"-5 -218 LINE",
"12 -223 OFFCURVE",
"30 -226 OFFCURVE",
"48 -226 CURVE SMOOTH",
"141 -226 OFFCURVE",
"193 -174 OFFCURVE",
"193 -75 CURVE SMOOTH",
"193 552 LINE",
"124 552 LINE",
"124 -74 LINE SMOOTH"
);
}
);
width = 295;
}
);
note = dotlessj;
unicode = 0237;
},
{
glyphname = circumflex;
lastChange = "2017-11-01 11:13:03 +0000";
layers = (
{
layerId = "A6EA9C16-C626-4B38-A32D-13618352FA56";
paths = (
{
closed = 1;
nodes = (
"263 715 LINE",
"373 602 LINE",
"425 602 LINE",
"296 782 LINE",
"231 782 LINE",
"104 602 LINE",
"154 602 LINE"
);
}
);
width = 530;
}
);
note = circumflex;
unicode = 02C6;
},
{
glyphname = caron;
lastChange = "2017-11-01 11:13:03 +0000";
layers = (
{
layerId = "A6EA9C16-C626-4B38-A32D-13618352FA56";
paths = (
{
closed = 1;
nodes = (
"425 782 LINE",
"373 782 LINE",
"263 669 LINE",
"154 782 LINE",
"104 782 LINE",
"231 602 LINE",
"296 602 LINE"
);
}
);
width = 530;
}
);
note = caron;
unicode = 02C7;
},
{
glyphname = breve;
lastChange = "2017-11-01 11:13:03 +0000";
layers = (
{
layerId = "A6EA9C16-C626-4B38-A32D-13618352FA56";
paths = (
{
closed = 1;
nodes = (
"199 663 OFFCURVE",
"159 703 OFFCURVE",
"146 782 CURVE",
"102 782 LINE",
"111 666 OFFCURVE",
"167 602 OFFCURVE",
"264 602 CURVE SMOOTH",
"362 602 OFFCURVE",
"416 662 OFFCURVE",
"427 782 CURVE",
"383 782 LINE",
"370 703 OFFCURVE",
"330 663 OFFCURVE",
"264 663 CURVE SMOOTH"
);
}
);
width = 530;
}
);
note = breve;
unicode = 02D8;
},
{
glyphname = dotaccent;
lastChange = "2017-11-01 11:13:03 +0000";
layers = (
{
layerId = "A6EA9C16-C626-4B38-A32D-13618352FA56";
paths = (
{
closed = 1;
nodes = (
"220 667 OFFCURVE",
"239 650 OFFCURVE",
"266 650 CURVE SMOOTH",
"291 650 OFFCURVE",
"311 667 OFFCURVE",
"311 696 CURVE SMOOTH",
"311 727 OFFCURVE",
"291 742 OFFCURVE",
"266 742 CURVE SMOOTH",
"239 742 OFFCURVE",
"220 727 OFFCURVE",
"220 696 CURVE SMOOTH"
);
}
);
width = 530;
}
);
note = dotaccent;
unicode = 02D9;
},
{
glyphname = ring;
lastChange = "2017-11-01 11:13:03 +0000";
layers = (
{
layerId = "A6EA9C16-C626-4B38-A32D-13618352FA56";
paths = (
{
closed = 1;
nodes = (
"374 763 OFFCURVE",
"328 809 OFFCURVE",
"264 809 CURVE SMOOTH",
"200 809 OFFCURVE",
"156 765 OFFCURVE",
"156 705 CURVE SMOOTH",
"156 641 OFFCURVE",
"199 600 OFFCURVE",
"264 600 CURVE SMOOTH",
"329 600 OFFCURVE",
"374 643 OFFCURVE",
"374 706 CURVE SMOOTH"
);
},
{
closed = 1;
nodes = (
"298 650 OFFCURVE",
"283 644 OFFCURVE",
"264 644 CURVE SMOOTH",
"225 644 OFFCURVE",
"203 668 OFFCURVE",
"203 705 CURVE SMOOTH",
"203 741 OFFCURVE",
"228 766 OFFCURVE",
"264 766 CURVE SMOOTH",
"300 766 OFFCURVE",
"325 742 OFFCURVE",
"325 705 CURVE SMOOTH",
"325 686 OFFCURVE",
"320 672 OFFCURVE",
"309 661 CURVE SMOOTH"
);
}
);
width = 530;
}
);
note = ring;
unicode = 02DA;
},
{
glyphname = ogonek;
lastChange = "2017-11-01 11:13:03 +0000";
layers = (
{
layerId = "A6EA9C16-C626-4B38-A32D-13618352FA56";
paths = (
{
closed = 1;
nodes = (
"236 -81 OFFCURVE",
"264 -39 OFFCURVE",
"319 0 CURVE",
"276 0 LINE",
"214 -39 OFFCURVE",
"183 -85 OFFCURVE",
"183 -140 CURVE SMOOTH",
"183 -199 OFFCURVE",
"223 -240 OFFCURVE",
"296 -240 CURVE SMOOTH",
"311 -240 OFFCURVE",
"326 -237 OFFCURVE",
"341 -231 CURVE",
"339 -184 LINE",
"324 -189 OFFCURVE",
"310 -191 OFFCURVE",
"299 -191 CURVE SMOOTH",
"260 -191 OFFCURVE",
"236 -167 OFFCURVE",
"236 -128 CURVE SMOOTH"
);
}
);
width = 530;
}
);
note = ogonek;
unicode = 02DB;
},
{
glyphname = tilde;
lastChange = "2017-11-01 11:13:03 +0000";
layers = (
{
layerId = "A6EA9C16-C626-4B38-A32D-13618352FA56";
paths = (
{
closed = 1;
nodes = (
"321 647 OFFCURVE",
"332 644 OFFCURVE",
"341 644 CURVE SMOOTH",
"390 644 OFFCURVE",
"424 680 OFFCURVE",
"432 739 CURVE",
"389 756 LINE",
"380 719 OFFCURVE",
"367 703 OFFCURVE",
"340 703 CURVE SMOOTH",
"329 703 OFFCURVE",
"307 711 OFFCURVE",
"275 726 CURVE SMOOTH",
"242 741 OFFCURVE",
"219 749 OFFCURVE",
"206 750 CURVE",
"205 751 OFFCURVE",
"202 751 OFFCURVE",
"199 751 CURVE SMOOTH",
"148 751 OFFCURVE",
"111 715 OFFCURVE",
"103 654 CURVE",
"146 639 LINE",
"154 675 OFFCURVE",
"169 691 OFFCURVE",
"198 691 CURVE SMOOTH",
"209 691 OFFCURVE",
"227 685 OFFCURVE",
"253 673 CURVE SMOOTH",
"278 661 OFFCURVE",
"297 654 OFFCURVE",
"309 653 CURVE"
);
}
);
width = 530;
}
);
note = tilde;
unicode = 02DC;
},
{
glyphname = hungarumlaut;
lastChange = "2017-11-01 11:13:03 +0000";
layers = (
{
layerId = "A6EA9C16-C626-4B38-A32D-13618352FA56";
paths = (
{
closed = 1;
nodes = (
"261 782 LINE",
"170 782 LINE",
"105 602 LINE",
"152 602 LINE"
);
},
{
closed = 1;
nodes = (
"434 782 LINE",
"343 782 LINE",
"278 602 LINE",
"325 602 LINE"
);
}
);
width = 530;
}
);
note = hungarumlaut;
unicode = 02DD;
},
{
glyphname = dotbelow;
lastChange = "2017-11-01 11:13:03 +0000";
layers = (
{
layerId = "A6EA9C16-C626-4B38-A32D-13618352FA56";
paths = (
{
closed = 1;
nodes = (
"242 -186 OFFCURVE",
"253 -190 OFFCURVE",
"266 -190 CURVE SMOOTH",
"291 -190 OFFCURVE",
"311 -173 OFFCURVE",
"311 -144 CURVE SMOOTH",
"311 -115 OFFCURVE",
"291 -98 OFFCURVE",
"266 -98 CURVE SMOOTH",
"239 -98 OFFCURVE",
"220 -115 OFFCURVE",
"220 -144 CURVE SMOOTH",
"220 -159 OFFCURVE",
"224 -170 OFFCURVE",
"233 -178 CURVE SMOOTH"
);
}
);
width = 530;
}
);
note = dotbelow;
unicode = 0323;
},
{
glyphname = uni0394;
lastChange = "2017-11-01 11:13:03 +0000";
layers = (
{
layerId = "A6EA9C16-C626-4B38-A32D-13618352FA56";
paths = (
{
closed = 1;
nodes = (
"304 714 LINE",
"23 0 LINE",
"649 0 LINE",
"368 714 LINE"
);
},
{
closed = 1;
nodes = (
"120 64 LINE",
"261 428 LINE",
"336 632 LINE",
"414 419 LINE",
"549 64 LINE"
);
}
);
width = 672;
}
);
note = uni0394;
unicode = 0394;
},
{
glyphname = uni03A9;
lastChange = "2017-11-01 11:13:03 +0000";
layers = (
{
layerId = "A6EA9C16-C626-4B38-A32D-13618352FA56";
paths = (
{
closed = 1;
nodes = (
"729 578 OFFCURVE",
"598 724 OFFCURVE",
"407 724 CURVE SMOOTH",
"218 724 OFFCURVE",
"86 578 OFFCURVE",
"86 374 CURVE SMOOTH",
"86 245 OFFCURVE",
"142 140 OFFCURVE",
"254 59 CURVE",
"119 64 LINE",
"62 64 LINE",
"62 0 LINE",
"329 0 LINE",
"329 62 LINE",
"214 155 OFFCURVE",
"160 237 OFFCURVE",
"160 373 CURVE SMOOTH",
"160 552 OFFCURVE",
"259 658 OFFCURVE",
"407 658 CURVE SMOOTH",
"555 658 OFFCURVE",
"654 552 OFFCURVE",
"654 373 CURVE SMOOTH",
"654 238 OFFCURVE",
"600 157 OFFCURVE",
"485 62 CURVE",
"485 0 LINE",
"752 0 LINE",
"752 64 LINE",
"696 64 LINE",
"560 59 LINE",
"673 140 OFFCURVE",
"729 245 OFFCURVE",
"729 374 CURVE SMOOTH"
);
}
);
width = 814;
}
);
note = uni03A9;
unicode = 03A9;
},
{
glyphname = uni03BC;
lastChange = "2017-11-01 11:13:03 +0000";
layers = (
{
layerId = "A6EA9C16-C626-4B38-A32D-13618352FA56";
paths = (
{
closed = 1;
nodes = (
"200 10 OFFCURVE",
"245 -10 OFFCURVE",
"304 -10 CURVE SMOOTH",
"383 -10 OFFCURVE",
"447 32 OFFCURVE",
"486 101 CURVE",
"486 0 LINE",
"555 0 LINE",
"555 552 LINE",
"485 552 LINE",
"485 304 LINE SMOOTH",
"485 160 OFFCURVE",
"441 55 OFFCURVE",
"313 55 CURVE SMOOTH",
"218 55 OFFCURVE",
"174 108 OFFCURVE",
"174 220 CURVE SMOOTH",
"174 552 LINE",
"104 552 LINE",
"104 -220 LINE",
"174 -220 LINE",
"174 -134 LINE",
"167 49 LINE"
);
}
);
width = 661;
}
);
note = uni03BC;
unicode = 03BC;
},
{
glyphname = pi;
lastChange = "2017-11-01 11:13:03 +0000";
layers = (
{
layerId = "A6EA9C16-C626-4B38-A32D-13618352FA56";
paths = (
{
closed = 1;
nodes = (
"34 552 LINE",
"34 492 LINE",
"146 492 LINE",
"146 0 LINE",
"215 0 LINE",
"215 492 LINE",
"468 492 LINE",
"468 139 LINE SMOOTH",
"468 42 OFFCURVE",
"521 -10 OFFCURVE",
"613 -10 CURVE SMOOTH",
"632 -10 OFFCURVE",
"650 -7 OFFCURVE",
"666 -2 CURVE",
"664 65 LINE",
"650 59 OFFCURVE",
"634 56 OFFCURVE",
"616 56 CURVE SMOOTH",
"563 56 OFFCURVE",
"537 84 OFFCURVE",
"537 141 CURVE SMOOTH",
"537 492 LINE",
"669 492 LINE",
"678 552 LINE"
);
}
);
width = 718;
}
);
note = pi;
unicode = 03C0;
},
{
glyphname = endash;
lastChange = "2017-11-01 11:13:03 +0000";
layers = (
{
layerId = "A6EA9C16-C626-4B38-A32D-13618352FA56";
paths = (
{
closed = 1;
nodes = (
"515 327 LINE",
"515 387 LINE",
"15 387 LINE",
"15 327 LINE"
);
}
);
width = 530;
}
);
note = endash;
unicode = 2013;
},
{
glyphname = emdash;
lastChange = "2017-11-01 11:13:03 +0000";
layers = (
{
layerId = "A6EA9C16-C626-4B38-A32D-13618352FA56";
paths = (
{
closed = 1;
nodes = (
"1015 327 LINE",
"1015 387 LINE",
"15 387 LINE",
"15 327 LINE"
);
}
);
width = 1030;
}
);
note = emdash;
unicode = 2014;
},
{
glyphname = quoteleft;
lastChange = "2017-11-01 11:13:03 +0000";
layers = (
{
layerId = "A6EA9C16-C626-4B38-A32D-13618352FA56";
paths = (
{
closed = 1;
nodes = (
"133 714 LINE",
"50 494 LINE",
"135 494 LINE",
"184 714 LINE"
);
}
);
width = 280;
}
);
note = quoteleft;
unicode = 2018;
},
{
glyphname = quoteright;
lastChange = "2017-11-01 11:13:03 +0000";
layers = (
{
layerId = "A6EA9C16-C626-4B38-A32D-13618352FA56";
paths = (
{
closed = 1;
nodes = (
"117 494 LINE",
"200 714 LINE",
"115 714 LINE",
"66 494 LINE"
);
}
);
width = 280;
}
);
note = quoteright;
unicode = 2019;
},
{
glyphname = quotesinglbase;
lastChange = "2017-11-01 11:13:03 +0000";
layers = (
{
layerId = "A6EA9C16-C626-4B38-A32D-13618352FA56";
paths = (
{
closed = 1;
nodes = (
"117 -128 LINE",
"200 97 LINE",
"115 97 LINE",
"66 -128 LINE"
);
}
);
width = 280;
}
);
note = quotesinglbase;
unicode = 201A;
},
{
glyphname = quotedblleft;
lastChange = "2017-11-01 11:13:03 +0000";
layers = (
{
layerId = "A6EA9C16-C626-4B38-A32D-13618352FA56";
paths = (
{
closed = 1;
nodes = (
"325 714 LINE",
"242 494 LINE",
"327 494 LINE",
"376 714 LINE"
);
},
{
closed = 1;
nodes = (
"163 714 LINE",
"80 494 LINE",
"165 494 LINE",
"214 714 LINE"
);
}
);
width = 442;
}
);
note = quotedblleft;
unicode = 201C;
},
{
glyphname = quotedblright;
lastChange = "2017-11-01 11:13:03 +0000";
layers = (
{
layerId = "A6EA9C16-C626-4B38-A32D-13618352FA56";
paths = (
{
closed = 1;
nodes = (
"117 494 LINE",
"200 714 LINE",
"115 714 LINE",
"66 494 LINE"
);
},
{
closed = 1;
nodes = (
"279 494 LINE",
"362 714 LINE",
"277 714 LINE",
"228 494 LINE"
);
}
);
width = 442;
}
);
note = quotedblright;
unicode = 201D;
},
{
glyphname = quotedblbase;
lastChange = "2017-11-01 11:13:03 +0000";
layers = (
{
layerId = "A6EA9C16-C626-4B38-A32D-13618352FA56";
paths = (
{
closed = 1;
nodes = (
"117 -128 LINE",
"200 97 LINE",
"115 97 LINE",
"66 -128 LINE"
);
},
{
closed = 1;
nodes = (
"279 -128 LINE",
"362 97 LINE",
"277 97 LINE",
"228 -128 LINE"
);
}
);
width = 442;
}
);
note = quotedblbase;
unicode = 201E;
},
{
glyphname = dagger;
lastChange = "2017-11-01 11:13:03 +0000";
layers = (
{
layerId = "A6EA9C16-C626-4B38-A32D-13618352FA56";
paths = (
{
closed = 1;
nodes = (
"246 552 LINE",
"58 552 LINE",
"58 493 LINE",
"246 493 LINE",
"246 -220 LINE",
"306 -220 LINE",
"306 493 LINE",
"494 493 LINE",
"494 552 LINE",
"306 552 LINE",
"306 742 LINE",
"246 742 LINE"
);
}
);
width = 552;
}
);
note = dagger;
unicode = 2020;
},
{
glyphname = daggerdbl;
lastChange = "2017-11-01 11:13:03 +0000";
layers = (
{
layerId = "A6EA9C16-C626-4B38-A32D-13618352FA56";
paths = (
{
closed = 1;
nodes = (
"246 0 LINE",
"246 -220 LINE",
"306 -220 LINE",
"306 0 LINE",
"494 0 LINE",
"494 59 LINE",
"306 59 LINE",
"306 493 LINE",
"494 493 LINE",
"494 552 LINE",
"306 552 LINE",
"306 742 LINE",
"246 742 LINE",
"246 552 LINE",
"58 552 LINE",
"58 493 LINE",
"246 493 LINE",
"246 59 LINE",
"58 59 LINE",
"58 0 LINE"
);
}
);
width = 552;
}
);
note = daggerdbl;
unicode = 2021;
},
{
glyphname = bullet;
lastChange = "2017-11-01 11:13:03 +0000";
layers = (
{
layerId = "A6EA9C16-C626-4B38-A32D-13618352FA56";
paths = (
{
closed = 1;
nodes = (
"177 202 OFFCURVE",
"218 185 OFFCURVE",
"265 185 CURVE SMOOTH",
"360 185 OFFCURVE",
"437 262 OFFCURVE",
"437 357 CURVE SMOOTH",
"437 452 OFFCURVE",
"360 529 OFFCURVE",
"265 529 CURVE SMOOTH",
"170 529 OFFCURVE",
"93 452 OFFCURVE",
"93 357 CURVE SMOOTH",
"93 310 OFFCURVE",
"110 269 OFFCURVE",
"144 236 CURVE SMOOTH"
);
}
);
width = 530;
}
);
note = bullet;
unicode = 2022;
},
{
glyphname = ellipsis;
lastChange = "2017-11-01 11:13:03 +0000";
layers = (
{
layerId = "A6EA9C16-C626-4B38-A32D-13618352FA56";
paths = (
{
closed = 1;
nodes = (
"87 11 OFFCURVE",
"112 -10 OFFCURVE",
"140 -10 CURVE SMOOTH",
"168 -10 OFFCURVE",
"193 11 OFFCURVE",
"193 43 CURVE SMOOTH",
"193 76 OFFCURVE",
"169 97 OFFCURVE",
"140 97 CURVE SMOOTH",
"111 97 OFFCURVE",
"87 76 OFFCURVE",
"87 43 CURVE SMOOTH"
);
},
{
closed = 1;
nodes = (
"337 11 OFFCURVE",
"362 -10 OFFCURVE",
"391 -10 CURVE SMOOTH",
"419 -10 OFFCURVE",
"443 11 OFFCURVE",
"443 43 CURVE SMOOTH",
"443 76 OFFCURVE",
"419 97 OFFCURVE",
"391 97 CURVE SMOOTH",
"362 97 OFFCURVE",
"337 76 OFFCURVE",
"337 43 CURVE SMOOTH"
);
},
{
closed = 1;
nodes = (
"587 11 OFFCURVE",
"612 -10 OFFCURVE",
"641 -10 CURVE SMOOTH",
"669 -10 OFFCURVE",
"693 11 OFFCURVE",
"693 43 CURVE SMOOTH",
"693 76 OFFCURVE",
"669 97 OFFCURVE",
"641 97 CURVE SMOOTH",
"612 97 OFFCURVE",
"587 76 OFFCURVE",
"587 43 CURVE SMOOTH"
);
}
);
width = 780;
}
);
note = ellipsis;
unicode = 2026;
},
{
glyphname = perthousand;
lastChange = "2017-11-01 11:13:03 +0000";
layers = (
{
layerId = "A6EA9C16-C626-4B38-A32D-13618352FA56";
paths = (
{
closed = 1;
nodes = (
"352 653 OFFCURVE",
"288 724 OFFCURVE",
"197 724 CURVE SMOOTH",
"105 724 OFFCURVE",
"44 656 OFFCURVE",
"44 521 CURVE SMOOTH",
"44 389 OFFCURVE",
"108 316 OFFCURVE",
"197 316 CURVE SMOOTH",
"289 316 OFFCURVE",
"352 386 OFFCURVE",
"352 521 CURVE SMOOTH"
);
},
{
closed = 1;
nodes = (
"292 422 OFFCURVE",
"254 373 OFFCURVE",
"197 373 CURVE SMOOTH",
"140 373 OFFCURVE",
"104 422 OFFCURVE",
"104 521 CURVE SMOOTH",
"104 620 OFFCURVE",
"141 667 OFFCURVE",
"198 667 CURVE SMOOTH",
"254 667 OFFCURVE",
"292 618 OFFCURVE",
"292 521 CURVE SMOOTH"
);
},
{
closed = 1;
nodes = (
"568 714 LINE",
"262 0 LINE",
"331 0 LINE",
"637 714 LINE"
);
},
{
closed = 1;
nodes = (
"853 328 OFFCURVE",
"789 399 OFFCURVE",
"698 399 CURVE SMOOTH",
"606 399 OFFCURVE",
"545 331 OFFCURVE",
"545 196 CURVE SMOOTH",
"545 64 OFFCURVE",
"609 -9 OFFCURVE",
"698 -9 CURVE SMOOTH",
"790 -9 OFFCURVE",
"853 61 OFFCURVE",
"853 196 CURVE SMOOTH"
);
},
{
closed = 1;
nodes = (
"793 97 OFFCURVE",
"755 48 OFFCURVE",
"698 48 CURVE SMOOTH",
"641 48 OFFCURVE",
"605 97 OFFCURVE",
"605 196 CURVE SMOOTH",
"605 295 OFFCURVE",
"642 342 OFFCURVE",
"699 342 CURVE SMOOTH",
"755 342 OFFCURVE",
"793 293 OFFCURVE",
"793 196 CURVE SMOOTH"
);
},
{
closed = 1;
nodes = (
"1208 328 OFFCURVE",
"1144 399 OFFCURVE",
"1053 399 CURVE SMOOTH",
"961 399 OFFCURVE",
"900 331 OFFCURVE",
"900 196 CURVE SMOOTH",
"900 64 OFFCURVE",
"964 -9 OFFCURVE",
"1053 -9 CURVE SMOOTH",
"1145 -9 OFFCURVE",
"1208 61 OFFCURVE",
"1208 196 CURVE SMOOTH"
);
},
{
closed = 1;
nodes = (
"1148 97 OFFCURVE",
"1110 48 OFFCURVE",
"1053 48 CURVE SMOOTH",
"996 48 OFFCURVE",
"960 97 OFFCURVE",
"960 196 CURVE SMOOTH",
"960 295 OFFCURVE",
"997 342 OFFCURVE",
"1054 342 CURVE SMOOTH",
"1110 342 OFFCURVE",
"1148 293 OFFCURVE",
"1148 196 CURVE SMOOTH"
);
}
);
width = 1252;
}
);
note = perthousand;
unicode = 2030;
},
{
glyphname = guilsinglleft;
lastChange = "2017-11-01 11:13:03 +0000";
layers = (
{
layerId = "A6EA9C16-C626-4B38-A32D-13618352FA56";
paths = (
{
closed = 1;
nodes = (
"311 50 LINE",
"126 268 LINE",
"311 486 LINE",
"232 486 LINE",
"49 268 LINE",
"232 50 LINE"
);
}
);
width = 350;
}
);
note = guilsinglleft;
unicode = 2039;
},
{
glyphname = guilsinglright;
lastChange = "2017-11-01 11:13:03 +0000";
layers = (
{
layerId = "A6EA9C16-C626-4B38-A32D-13618352FA56";
paths = (
{
closed = 1;
nodes = (
"224 268 LINE",
"39 50 LINE",
"118 50 LINE",
"301 268 LINE",
"118 486 LINE",
"39 486 LINE"
);
}
);
width = 350;
}
);
note = guilsinglright;
unicode = 203A;
},
{
glyphname = fraction;
lastChange = "2017-11-01 11:13:03 +0000";
layers = (
{
layerId = "A6EA9C16-C626-4B38-A32D-13618352FA56";
paths = (
{
closed = 1;
nodes = (
"-65 0 LINE",
"393 742 LINE",
"327 742 LINE",
"-131 0 LINE"
);
}
);
width = 262;
}
);
note = fraction;
unicode = 2044;
},
{
glyphname = zerosuperior;
lastChange = "2017-11-01 11:13:03 +0000";
layers = (
{
layerId = "A6EA9C16-C626-4B38-A32D-13618352FA56";
paths = (
{
closed = 1;
nodes = (
"286 728 OFFCURVE",
"249 747 OFFCURVE",
"202 747 CURVE SMOOTH",
"107 747 OFFCURVE",
"51 670 OFFCURVE",
"51 519 CURVE SMOOTH",
"51 368 OFFCURVE",
"107 289 OFFCURVE",
"202 289 CURVE SMOOTH",
"297 289 OFFCURVE",
"353 368 OFFCURVE",
"353 519 CURVE SMOOTH",
"353 594 OFFCURVE",
"340 651 OFFCURVE",
"313 690 CURVE SMOOTH"
);
},
{
closed = 1;
nodes = (
"293 404 OFFCURVE",
"263 346 OFFCURVE",
"202 346 CURVE SMOOTH",
"142 346 OFFCURVE",
"112 404 OFFCURVE",
"112 519 CURVE SMOOTH",
"112 633 OFFCURVE",
"142 690 OFFCURVE",
"203 690 CURVE SMOOTH",
"263 690 OFFCURVE",
"293 633 OFFCURVE",
"293 519 CURVE SMOOTH"
);
}
);
width = 403;
}
);
note = zerosuperior;
unicode = 2070;
},
{
glyphname = foursuperior;
lastChange = "2017-11-01 11:13:03 +0000";
layers = (
{
layerId = "A6EA9C16-C626-4B38-A32D-13618352FA56";
paths = (
{
closed = 1;
nodes = (
"308 741 LINE",
"251 741 LINE",
"37 443 LINE",
"37 395 LINE",
"250 395 LINE",
"250 295 LINE",
"308 295 LINE",
"308 395 LINE",
"370 395 LINE",
"370 452 LINE",
"308 452 LINE"
);
},
{
closed = 1;
nodes = (
"250 658 LINE",
"250 452 LINE",
"109 452 LINE",
"182 557 LINE"
);
}
);
width = 403;
}
);
note = foursuperior;
unicode = 2074;
},
{
glyphname = fivesuperior;
lastChange = "2017-11-01 11:13:03 +0000";
layers = (
{
layerId = "A6EA9C16-C626-4B38-A32D-13618352FA56";
paths = (
{
closed = 1;
nodes = (
"98 301 OFFCURVE",
"142 289 OFFCURVE",
"189 289 CURVE SMOOTH",
"286 289 OFFCURVE",
"349 355 OFFCURVE",
"349 440 CURVE SMOOTH",
"349 524 OFFCURVE",
"286 582 OFFCURVE",
"190 582 CURVE SMOOTH",
"169 582 OFFCURVE",
"149 580 OFFCURVE",
"132 576 CURVE",
"142 686 LINE",
"307 686 LINE",
"318 741 LINE",
"91 741 LINE",
"72 509 LINE",
"114 523 OFFCURVE",
"151 530 OFFCURVE",
"183 530 CURVE SMOOTH",
"248 530 OFFCURVE",
"288 494 OFFCURVE",
"288 441 CURVE SMOOTH",
"288 382 OFFCURVE",
"254 346 OFFCURVE",
"189 346 CURVE SMOOTH",
"146 346 OFFCURVE",
"106 359 OFFCURVE",
"67 386 CURVE",
"56 325 LINE"
);
}
);
width = 403;
}
);
note = fivesuperior;
unicode = 2075;
},
{
glyphname = sixsuperior;
lastChange = "2017-11-01 11:13:03 +0000";
layers = (
{
layerId = "A6EA9C16-C626-4B38-A32D-13618352FA56";
paths = (
{
closed = 1;
nodes = (
"306 740 OFFCURVE",
"274 747 OFFCURVE",
"241 747 CURVE SMOOTH",
"128 747 OFFCURVE",
"58 656 OFFCURVE",
"58 489 CURVE SMOOTH",
"58 361 OFFCURVE",
"111 289 OFFCURVE",
"212 289 CURVE SMOOTH",
"295 289 OFFCURVE",
"356 354 OFFCURVE",
"356 437 CURVE SMOOTH",
"356 518 OFFCURVE",
"294 578 OFFCURVE",
"219 578 CURVE SMOOTH",
"175 578 OFFCURVE",
"142 560 OFFCURVE",
"119 525 CURVE",
"123 629 OFFCURVE",
"168 690 OFFCURVE",
"240 690 CURVE SMOOTH",
"268 690 OFFCURVE",
"298 682 OFFCURVE",
"329 665 CURVE",
"336 726 LINE"
);
},
{
closed = 1;
nodes = (
"121 490 OFFCURVE",
"157 524 OFFCURVE",
"209 524 CURVE SMOOTH",
"260 524 OFFCURVE",
"296 487 OFFCURVE",
"296 438 CURVE SMOOTH",
"296 386 OFFCURVE",
"263 346 OFFCURVE",
"211 346 CURVE SMOOTH",
"156 346 OFFCURVE",
"121 387 OFFCURVE",
"121 439 CURVE SMOOTH"
);
}
);
width = 403;
}
);
note = sixsuperior;
unicode = 2076;
},
{
glyphname = sevensuperior;
lastChange = "2017-11-01 11:13:03 +0000";
layers = (
{
layerId = "A6EA9C16-C626-4B38-A32D-13618352FA56";
paths = (
{
closed = 1;
nodes = (
"353 741 LINE",
"53 741 LINE",
"53 685 LINE",
"294 685 LINE",
"226 544 LINE",
"103 295 LINE",
"173 295 LINE",
"353 698 LINE"
);
}
);
width = 403;
}
);
note = sevensuperior;
unicode = 2077;
},
{
glyphname = eightsuperior;
lastChange = "2017-11-01 11:13:03 +0000";
layers = (
{
layerId = "A6EA9C16-C626-4B38-A32D-13618352FA56";
paths = (
{
closed = 1;
nodes = (
"55 340 OFFCURVE",
"114 289 OFFCURVE",
"203 289 CURVE SMOOTH",
"290 289 OFFCURVE",
"349 342 OFFCURVE",
"349 413 CURVE SMOOTH",
"349 470 OFFCURVE",
"315 503 OFFCURVE",
"255 534 CURVE",
"308 554 OFFCURVE",
"334 587 OFFCURVE",
"334 632 CURVE SMOOTH",
"334 699 OFFCURVE",
"277 747 OFFCURVE",
"201 747 CURVE SMOOTH",
"128 747 OFFCURVE",
"70 697 OFFCURVE",
"70 630 CURVE SMOOTH",
"70 587 OFFCURVE",
"93 553 OFFCURVE",
"138 527 CURVE",
"83 502 OFFCURVE",
"55 463 OFFCURVE",
"55 411 CURVE SMOOTH"
);
},
{
closed = 1;
nodes = (
"269 466 OFFCURVE",
"289 442 OFFCURVE",
"289 414 CURVE SMOOTH",
"289 375 OFFCURVE",
"254 346 OFFCURVE",
"203 346 CURVE SMOOTH",
"151 346 OFFCURVE",
"116 376 OFFCURVE",
"116 416 CURVE SMOOTH",
"116 456 OFFCURVE",
"139 485 OFFCURVE",
"185 504 CURVE",
"228 486 LINE"
);
},
{
closed = 1;
nodes = (
"129 663 OFFCURVE",
"158 690 OFFCURVE",
"201 690 CURVE SMOOTH",
"244 690 OFFCURVE",
"274 665 OFFCURVE",
"274 630 CURVE SMOOTH",
"274 599 OFFCURVE",
"252 574 OFFCURVE",
"209 556 CURVE",
"180 569 LINE SMOOTH",
"146 584 OFFCURVE",
"129 605 OFFCURVE",
"129 630 CURVE SMOOTH"
);
}
);
width = 403;
}
);
note = eightsuperior;
unicode = 2078;
},
{
glyphname = ninesuperior;
lastChange = "2017-11-01 11:13:03 +0000";
layers = (
{
layerId = "A6EA9C16-C626-4B38-A32D-13618352FA56";
paths = (
{
closed = 1;
nodes = (
"97 296 OFFCURVE",
"129 289 OFFCURVE",
"163 289 CURVE SMOOTH",
"278 289 OFFCURVE",
"346 379 OFFCURVE",
"346 547 CURVE SMOOTH",
"346 674 OFFCURVE",
"292 747 OFFCURVE",
"192 747 CURVE SMOOTH",
"109 747 OFFCURVE",
"47 682 OFFCURVE",
"47 599 CURVE SMOOTH",
"47 516 OFFCURVE",
"109 458 OFFCURVE",
"185 458 CURVE SMOOTH",
"228 458 OFFCURVE",
"261 476 OFFCURVE",
"285 511 CURVE",
"280 403 OFFCURVE",
"235 346 OFFCURVE",
"163 346 CURVE SMOOTH",
"135 346 OFFCURVE",
"105 354 OFFCURVE",
"74 371 CURVE",
"67 310 LINE"
);
},
{
closed = 1;
nodes = (
"283 548 OFFCURVE",
"246 512 OFFCURVE",
"194 512 CURVE SMOOTH",
"143 512 OFFCURVE",
"107 549 OFFCURVE",
"107 598 CURVE SMOOTH",
"107 650 OFFCURVE",
"140 690 OFFCURVE",
"193 690 CURVE SMOOTH",
"248 690 OFFCURVE",
"283 649 OFFCURVE",
"283 597 CURVE SMOOTH"
);
}
);
width = 403;
}
);
note = ninesuperior;
unicode = 2079;
},
{
glyphname = parenleftsuperior;
lastChange = "2017-11-01 11:13:03 +0000";
layers = (
{
layerId = "A6EA9C16-C626-4B38-A32D-13618352FA56";
paths = (
{
closed = 1;
nodes = (
"115 607 OFFCURVE",
"148 677 OFFCURVE",
"217 758 CURVE",
"155 758 LINE",
"91 685 OFFCURVE",
"54 617 OFFCURVE",
"54 518 CURVE SMOOTH",
"54 435 OFFCURVE",
"88 355 OFFCURVE",
"155 279 CURVE",
"217 279 LINE",
"148 362 OFFCURVE",
"115 431 OFFCURVE",
"115 518 CURVE SMOOTH"
);
}
);
width = 235;
}
);
note = parenleftsuperior;
unicode = 207D;
},
{
glyphname = parenrightsuperior;
lastChange = "2017-11-01 11:13:03 +0000";
layers = (
{
layerId = "A6EA9C16-C626-4B38-A32D-13618352FA56";
paths = (
{
closed = 1;
nodes = (
"119 441 OFFCURVE",
"85 361 OFFCURVE",
"18 279 CURVE",
"79 279 LINE",
"144 354 OFFCURVE",
"181 419 OFFCURVE",
"181 518 CURVE SMOOTH",
"181 618 OFFCURVE",
"144 681 OFFCURVE",
"79 758 CURVE",
"18 758 LINE",
"86 675 OFFCURVE",
"119 606 OFFCURVE",
"119 518 CURVE SMOOTH"
);
}
);
width = 235;
}
);
note = parenrightsuperior;
unicode = 207E;
},
{
glyphname = Euro;
lastChange = "2017-11-01 11:13:03 +0000";
layers = (
{
layerId = "A6EA9C16-C626-4B38-A32D-13618352FA56";
paths = (
{
closed = 1;
nodes = (
"137 403 LINE",
"136 383 OFFCURVE",
"135 367 OFFCURVE",
"135 356 CURVE SMOOTH",
"135 337 OFFCURVE",
"136 321 OFFCURVE",
"138 306 CURVE",
"35 306 LINE",
"35 248 LINE",
"148 248 LINE",
"188 87 OFFCURVE",
"321 -10 OFFCURVE",
"482 -10 CURVE SMOOTH",
"555 -10 OFFCURVE",
"618 1 OFFCURVE",
"670 23 CURVE",
"661 95 LINE",
"607 69 OFFCURVE",
"549 56 OFFCURVE",
"487 56 CURVE SMOOTH",
"363 56 OFFCURVE",
"261 125 OFFCURVE",
"224 248 CURVE",
"471 248 LINE",
"497 306 LINE",
"212 306 LINE",
"211 325 OFFCURVE",
"210 341 OFFCURVE",
"210 354 CURVE SMOOTH",
"210 377 OFFCURVE",
"211 393 OFFCURVE",
"212 403 CURVE",
"539 403 LINE",
"564 461 LINE",
"222 461 LINE",
"255 592 OFFCURVE",
"352 658 OFFCURVE",
"485 658 CURVE SMOOTH",
"542 658 OFFCURVE",
"593 647 OFFCURVE",
"638 626 CURVE",
"661 696 LINE",
"610 715 OFFCURVE",
"551 724 OFFCURVE",
"484 724 CURVE SMOOTH",
"312 724 OFFCURVE",
"184 625 OFFCURVE",
"147 461 CURVE",
"35 461 LINE",
"35 403 LINE"
);
}
);
width = 719;
}
);
note = Euro;
unicode = 20AC;
},
{
glyphname = trademark;
lastChange = "2017-11-01 11:13:03 +0000";
layers = (
{
layerId = "A6EA9C16-C626-4B38-A32D-13618352FA56";
paths = (
{
closed = 1;
nodes = (
"643 556 OFFCURVE",
"642 462 OFFCURVE",
"642 336 CURVE",
"698 336 LINE",
"698 714 LINE",
"639 714 LINE",
"526 510 LINE",
"413 714 LINE",
"356 714 LINE",
"356 336 LINE",
"409 336 LINE",
"409 400 OFFCURVE",
"408 495 OFFCURVE",
"407 620 CURVE",
"503 438 LINE",
"547 438 LINE",
"644 619 LINE"
);
},
{
closed = 1;
nodes = (
"294 714 LINE",
"37 714 LINE",
"37 662 LINE",
"137 662 LINE",
"137 336 LINE",
"194 336 LINE",
"194 662 LINE",
"294 662 LINE"
);
}
);
width = 770;
}
);
note = trademark;
unicode = 2122;
},
{
glyphname = Omega;
lastChange = "2017-11-01 11:13:03 +0000";
layers = (
{
layerId = "A6EA9C16-C626-4B38-A32D-13618352FA56";
paths = (
{
closed = 1;
nodes = (
"729 578 OFFCURVE",
"598 724 OFFCURVE",
"407 724 CURVE SMOOTH",
"218 724 OFFCURVE",
"86 578 OFFCURVE",
"86 374 CURVE SMOOTH",
"86 245 OFFCURVE",
"142 140 OFFCURVE",
"254 59 CURVE",
"119 64 LINE",
"62 64 LINE",
"62 0 LINE",
"329 0 LINE",
"329 62 LINE",
"214 155 OFFCURVE",
"160 237 OFFCURVE",
"160 373 CURVE SMOOTH",
"160 552 OFFCURVE",
"259 658 OFFCURVE",
"407 658 CURVE SMOOTH",
"555 658 OFFCURVE",
"654 552 OFFCURVE",
"654 373 CURVE SMOOTH",
"654 238 OFFCURVE",
"600 157 OFFCURVE",
"485 62 CURVE",
"485 0 LINE",
"752 0 LINE",
"752 64 LINE",
"696 64 LINE",
"560 59 LINE",
"673 140 OFFCURVE",
"729 245 OFFCURVE",
"729 374 CURVE SMOOTH"
);
}
);
width = 814;
}
);
note = Omega;
unicode = 2126;
},
{
glyphname = arrowleft;
lastChange = "2017-11-01 11:13:03 +0000";
layers = (
{
layerId = "A6EA9C16-C626-4B38-A32D-13618352FA56";
paths = (
{
closed = 1;
nodes = (
"1015 387 LINE",
"371 387 LINE",
"106 382 LINE",
"313 551 LINE",
"313 626 LINE",
"15 377 LINE",
"15 337 LINE",
"313 88 LINE",
"313 163 LINE",
"106 332 LINE",
"371 327 LINE",
"1015 327 LINE"
);
}
);
width = 1030;
}
);
note = arrowleft;
unicode = 2190;
},
{
glyphname = arrowright;
lastChange = "2017-11-01 11:13:03 +0000";
layers = (
{
layerId = "A6EA9C16-C626-4B38-A32D-13618352FA56";
paths = (
{
closed = 1;
nodes = (
"717 88 LINE",
"1015 337 LINE",
"1015 377 LINE",
"717 626 LINE",
"717 551 LINE",
"924 382 LINE",
"659 387 LINE",
"15 387 LINE",
"15 327 LINE",
"659 327 LINE",
"924 332 LINE",
"717 163 LINE"
);
}
);
width = 1030;
}
);
note = arrowright;
unicode = 2192;
},
{
glyphname = arrowboth;
lastChange = "2017-11-01 11:13:03 +0000";
layers = (
{
layerId = "A6EA9C16-C626-4B38-A32D-13618352FA56";
paths = (
{
closed = 1;
nodes = (
"1073 88 LINE",
"1371 337 LINE",
"1371 377 LINE",
"1073 626 LINE",
"1073 551 LINE",
"1280 382 LINE",
"1015 387 LINE",
"371 387 LINE",
"106 382 LINE",
"313 551 LINE",
"313 626 LINE",
"15 377 LINE",
"15 337 LINE",
"313 88 LINE",
"313 163 LINE",
"106 332 LINE",
"371 327 LINE",
"1015 327 LINE",
"1280 332 LINE",
"1073 163 LINE"
);
}
);
width = 1386;
}
);
note = arrowboth;
unicode = 2194;
},
{
glyphname = partialdiff;
lastChange = "2017-11-01 11:13:03 +0000";
layers = (
{
layerId = "A6EA9C16-C626-4B38-A32D-13618352FA56";
paths = (
{
closed = 1;
nodes = (
"536 572 OFFCURVE",
"503 650 OFFCURVE",
"436 693 CURVE SMOOTH",
"404 714 OFFCURVE",
"366 724 OFFCURVE",
"321 724 CURVE SMOOTH",
"271 724 OFFCURVE",
"229 714 OFFCURVE",
"195 694 CURVE",
"202 626 LINE",
"243 648 OFFCURVE",
"282 659 OFFCURVE",
"319 659 CURVE SMOOTH",
"416 659 OFFCURVE",
"465 592 OFFCURVE",
"465 458 CURVE SMOOTH",
"465 442 OFFCURVE",
"464 423 OFFCURVE",
"463 402 CURVE",
"438 467 OFFCURVE",
"389 500 OFFCURVE",
"316 500 CURVE SMOOTH",
"260 500 OFFCURVE",
"211 481 OFFCURVE",
"169 442 CURVE SMOOTH",
"104 385 OFFCURVE",
"62 291 OFFCURVE",
"62 194 CURVE SMOOTH",
"62 67 OFFCURVE",
"131 -10 OFFCURVE",
"236 -10 CURVE SMOOTH",
"395 -10 OFFCURVE",
"536 152 OFFCURVE",
"536 459 CURVE SMOOTH"
);
},
{
closed = 1;
nodes = (
"174 55 OFFCURVE",
"137 103 OFFCURVE",
"137 186 CURVE SMOOTH",
"137 317 OFFCURVE",
"217 436 OFFCURVE",
"325 436 CURVE SMOOTH",
"401 436 OFFCURVE",
"438 385 OFFCURVE",
"438 314 CURVE SMOOTH",
"438 277 OFFCURVE",
"431 242 OFFCURVE",
"416 208 CURVE SMOOTH",
"379 120 OFFCURVE",
"317 55 OFFCURVE",
"242 55 CURVE SMOOTH"
);
}
);
width = 604;
}
);
note = partialdiff;
unicode = 2202;
},
{
glyphname = Delta;
lastChange = "2017-11-01 11:13:03 +0000";
layers = (
{
layerId = "A6EA9C16-C626-4B38-A32D-13618352FA56";
paths = (
{
closed = 1;
nodes = (
"304 714 LINE",
"23 0 LINE",
"649 0 LINE",
"368 714 LINE"
);
},
{
closed = 1;
nodes = (
"120 64 LINE",
"261 428 LINE",
"336 632 LINE",
"414 419 LINE",
"549 64 LINE"
);
}
);
width = 672;
}
);
note = Delta;
unicode = 2206;
},
{
glyphname = product;
lastChange = "2017-11-01 11:13:03 +0000";
layers = (
{
layerId = "A6EA9C16-C626-4B38-A32D-13618352FA56";
paths = (
{
closed = 1;
nodes = (
"115 -220 LINE",
"185 -220 LINE",
"185 650 LINE",
"562 650 LINE",
"562 -220 LINE",
"632 -220 LINE",
"632 714 LINE",
"115 714 LINE"
);
}
);
width = 747;
}
);
note = product;
unicode = 220F;
},
{
glyphname = summation;
lastChange = "2017-11-01 11:13:03 +0000";
layers = (
{
layerId = "A6EA9C16-C626-4B38-A32D-13618352FA56";
paths = (
{
closed = 1;
nodes = (
"545 650 LINE",
"545 714 LINE",
"61 714 LINE",
"61 655 LINE",
"330 271 LINE",
"48 -161 LINE",
"48 -220 LINE",
"575 -220 LINE",
"575 -156 LINE",
"132 -156 LINE",
"413 274 LINE",
"146 650 LINE"
);
}
);
width = 601;
}
);
note = summation;
unicode = 2211;
},
{
glyphname = minus;
lastChange = "2017-11-01 11:13:03 +0000";
layers = (
{
layerId = "A6EA9C16-C626-4B38-A32D-13618352FA56";
paths = (
{
closed = 1;
nodes = (
"520 328 LINE",
"520 387 LINE",
"51 387 LINE",
"51 328 LINE"
);
}
);
width = 572;
}
);
note = minus;
unicode = 2212;
},
{
glyphname = radical;
lastChange = "2017-11-01 11:13:03 +0000";
layers = (
{
layerId = "A6EA9C16-C626-4B38-A32D-13618352FA56";
paths = (
{
closed = 1;
nodes = (
"244 100 LINE",
"124 447 LINE",
"56 447 LINE",
"214 0 LINE",
"273 0 LINE",
"560 828 LINE",
"498 828 LINE"
);
}
);
width = 579;
}
);
note = radical;
unicode = 221A;
},
{
glyphname = infinity;
lastChange = "2017-11-01 11:13:03 +0000";
layers = (
{
layerId = "A6EA9C16-C626-4B38-A32D-13618352FA56";
paths = (
{
closed = 1;
nodes = (
"657 434 OFFCURVE",
"596 500 OFFCURVE",
"516 500 CURVE SMOOTH",
"456 500 OFFCURVE",
"411 468 OFFCURVE",
"370 395 CURVE",
"331 466 OFFCURVE",
"280 502 OFFCURVE",
"219 502 CURVE SMOOTH",
"136 502 OFFCURVE",
"76 433 OFFCURVE",
"76 352 CURVE SMOOTH",
"76 265 OFFCURVE",
"138 202 OFFCURVE",
"219 202 CURVE SMOOTH",
"274 202 OFFCURVE",
"321 237 OFFCURVE",
"362 308 CURVE",
"405 232 OFFCURVE",
"452 200 OFFCURVE",
"516 200 CURVE SMOOTH",
"596 200 OFFCURVE",
"657 270 OFFCURVE",
"657 350 CURVE SMOOTH"
);
},
{
closed = 1;
nodes = (
"170 258 OFFCURVE",
"134 299 OFFCURVE",
"134 351 CURVE SMOOTH",
"134 404 OFFCURVE",
"170 447 OFFCURVE",
"222 447 CURVE SMOOTH",
"265 447 OFFCURVE",
"303 415 OFFCURVE",
"337 352 CURVE",
"302 289 OFFCURVE",
"264 258 OFFCURVE",
"223 258 CURVE SMOOTH"
);
},
{
closed = 1;
nodes = (
"563 445 OFFCURVE",
"598 402 OFFCURVE",
"598 350 CURVE SMOOTH",
"598 297 OFFCURVE",
"562 256 OFFCURVE",
"511 256 CURVE SMOOTH",
"467 256 OFFCURVE",
"428 287 OFFCURVE",
"395 350 CURVE",
"429 413 OFFCURVE",
"467 445 OFFCURVE",
"510 445 CURVE SMOOTH"
);
}
);
width = 735;
}
);
note = infinity;
unicode = 221E;
},
{
glyphname = integral;
lastChange = "2017-11-01 11:13:03 +0000";
layers = (
{
layerId = "A6EA9C16-C626-4B38-A32D-13618352FA56";
paths = (
{
closed = 1;
nodes = (
"188 648 OFFCURVE",
"214 676 OFFCURVE",
"267 676 CURVE SMOOTH",
"282 676 OFFCURVE",
"299 674 OFFCURVE",
"317 671 CURVE",
"317 734 LINE",
"300 739 OFFCURVE",
"282 742 OFFCURVE",
"264 742 CURVE SMOOTH",
"171 742 OFFCURVE",
"119 690 OFFCURVE",
"119 593 CURVE SMOOTH",
"119 -70 LINE SMOOTH",
"119 -127 OFFCURVE",
"93 -155 OFFCURVE",
"40 -155 CURVE SMOOTH",
"25 -155 OFFCURVE",
"8 -153 OFFCURVE",
"-10 -150 CURVE",
"-10 -213 LINE",
"7 -218 OFFCURVE",
"25 -221 OFFCURVE",
"43 -221 CURVE SMOOTH",
"136 -221 OFFCURVE",
"188 -169 OFFCURVE",
"188 -72 CURVE SMOOTH",
"188 591 LINE SMOOTH"
);
}
);
width = 322;
}
);
note = integral;
unicode = 222B;
},
{
glyphname = approxequal;
lastChange = "2017-11-01 11:13:03 +0000";
layers = (
{
layerId = "A6EA9C16-C626-4B38-A32D-13618352FA56";
paths = (
{
closed = 1;
nodes = (
"127 308 OFFCURVE",
"90 296 OFFCURVE",
"55 273 CURVE",
"55 205 LINE",
"90 235 OFFCURVE",
"127 250 OFFCURVE",
"166 250 CURVE SMOOTH",
"193 250 OFFCURVE",
"228 241 OFFCURVE",
"271 223 CURVE SMOOTH",
"322 202 OFFCURVE",
"366 191 OFFCURVE",
"405 191 CURVE SMOOTH",
"443 191 OFFCURVE",
"480 202 OFFCURVE",
"516 225 CURVE",
"516 294 LINE",
"482 264 OFFCURVE",
"445 249 OFFCURVE",
"405 249 CURVE SMOOTH",
"378 249 OFFCURVE",
"343 258 OFFCURVE",
"300 276 CURVE SMOOTH",
"247 297 OFFCURVE",
"203 308 OFFCURVE",
"166 308 CURVE SMOOTH"
);
},
{
closed = 1;
nodes = (
"128 515 OFFCURVE",
"91 504 OFFCURVE",
"55 481 CURVE",
"55 412 LINE",
"89 442 OFFCURVE",
"126 457 OFFCURVE",
"166 457 CURVE SMOOTH",
"195 457 OFFCURVE",
"230 448 OFFCURVE",
"271 431 CURVE SMOOTH",
"320 409 OFFCURVE",
"365 398 OFFCURVE",
"405 398 CURVE SMOOTH",
"444 398 OFFCURVE",
"481 410 OFFCURVE",
"516 433 CURVE",
"516 501 LINE",
"481 471 OFFCURVE",
"444 456 OFFCURVE",
"405 456 CURVE SMOOTH",
"378 456 OFFCURVE",
"343 465 OFFCURVE",
"300 483 CURVE SMOOTH",
"247 504 OFFCURVE",
"203 515 OFFCURVE",
"166 515 CURVE SMOOTH"
);
}
);
width = 572;
}
);
note = approxequal;
unicode = 2248;
},
{
glyphname = notequal;
lastChange = "2017-11-01 11:13:03 +0000";
layers = (
{
layerId = "A6EA9C16-C626-4B38-A32D-13618352FA56";
paths = (
{
closed = 1;
nodes = (
"203 228 LINE",
"148 90 LINE",
"198 69 LINE",
"262 228 LINE",
"520 228 LINE",
"520 287 LINE",
"286 287 LINE",
"342 428 LINE",
"520 428 LINE",
"520 487 LINE",
"366 487 LINE",
"421 624 LINE",
"371 645 LINE",
"307 487 LINE",
"51 487 LINE",
"51 428 LINE",
"283 428 LINE",
"227 287 LINE",
"51 287 LINE",
"51 228 LINE"
);
}
);
width = 572;
}
);
note = notequal;
unicode = 2260;
},
{
glyphname = lessequal;
lastChange = "2017-11-01 11:13:03 +0000";
layers = (
{
layerId = "A6EA9C16-C626-4B38-A32D-13618352FA56";
paths = (
{
closed = 1;
nodes = (
"520 74 LINE",
"520 133 LINE",
"51 133 LINE",
"51 74 LINE"
);
},
{
closed = 1;
nodes = (
"520 237 LINE",
"132 398 LINE",
"520 559 LINE",
"520 628 LINE",
"51 420 LINE",
"51 376 LINE",
"520 168 LINE"
);
}
);
width = 572;
}
);
note = lessequal;
unicode = 2264;
},
{
glyphname = greaterequal;
lastChange = "2017-11-01 11:13:03 +0000";
layers = (
{
layerId = "A6EA9C16-C626-4B38-A32D-13618352FA56";
paths = (
{
closed = 1;
nodes = (
"52 559 LINE",
"440 398 LINE",
"52 237 LINE",
"52 168 LINE",
"521 376 LINE",
"521 420 LINE",
"52 628 LINE"
);
},
{
closed = 1;
nodes = (
"521 74 LINE",
"521 133 LINE",
"52 133 LINE",
"52 74 LINE"
);
}
);
width = 572;
}
);
note = greaterequal;
unicode = 2265;
},
{
glyphname = lozenge;
lastChange = "2017-11-01 11:13:03 +0000";
layers = (
{
layerId = "A6EA9C16-C626-4B38-A32D-13618352FA56";
paths = (
{
closed = 1;
nodes = (
"533 356 LINE",
"311 714 LINE",
"271 714 LINE",
"50 356 LINE",
"271 0 LINE",
"311 0 LINE"
);
},
{
closed = 1;
nodes = (
"291 631 LINE",
"457 357 LINE",
"291 82 LINE",
"126 357 LINE"
);
}
);
width = 583;
}
);
note = lozenge;
unicode = 25CA;
},
{
glyphname = commaaccent;
lastChange = "2017-11-01 11:13:03 +0000";
layers = (
{
layerId = "A6EA9C16-C626-4B38-A32D-13618352FA56";
paths = (
{
closed = 1;
nodes = (
"337 -50 LINE",
"246 -50 LINE",
"179 -230 LINE",
"227 -230 LINE"
);
}
);
width = 530;
}
);
note = commaaccent;
unicode = F6C3;
},
{
glyphname = ff;
lastChange = "2017-11-01 11:13:03 +0000";
layers = (
{
layerId = "A6EA9C16-C626-4B38-A32D-13618352FA56";
paths = (
{
closed = 1;
nodes = (
"205 582 LINE SMOOTH",
"205 658 OFFCURVE",
"240 696 OFFCURVE",
"311 696 CURVE SMOOTH",
"334 696 OFFCURVE",
"360 693 OFFCURVE",
"391 686 CURVE",
"393 751 LINE",
"367 758 OFFCURVE",
"339 762 OFFCURVE",
"310 762 CURVE SMOOTH",
"201 762 OFFCURVE",
"135 694 OFFCURVE",
"135 582 CURVE SMOOTH",
"135 552 LINE",
"24 552 LINE",
"24 492 LINE",
"135 492 LINE",
"135 0 LINE",
"205 0 LINE",
"205 492 LINE",
"474 492 LINE",
"474 0 LINE",
"543 0 LINE",
"543 492 LINE",
"717 492 LINE",
"726 552 LINE",
"543 552 LINE",
"543 582 LINE SMOOTH",
"543 658 OFFCURVE",
"578 696 OFFCURVE",
"649 696 CURVE SMOOTH",
"672 696 OFFCURVE",
"698 693 OFFCURVE",
"729 686 CURVE",
"731 751 LINE",
"706 758 OFFCURVE",
"678 762 OFFCURVE",
"648 762 CURVE SMOOTH",
"539 762 OFFCURVE",
"474 694 OFFCURVE",
"474 582 CURVE SMOOTH",
"474 552 LINE",
"205 552 LINE"
);
}
);
width = 738;
}
);
note = ff;
unicode = FB00;
},
{
glyphname = fi;
lastChange = "2017-11-01 11:13:03 +0000";
layers = (
{
layerId = "A6EA9C16-C626-4B38-A32D-13618352FA56";
paths = (
{
closed = 1;
nodes = (
"30 492 LINE",
"141 492 LINE",
"141 0 LINE",
"211 0 LINE",
"211 492 LINE",
"385 492 LINE",
"394 552 LINE",
"211 552 LINE",
"211 582 LINE SMOOTH",
"211 658 OFFCURVE",
"246 696 OFFCURVE",
"317 696 CURVE SMOOTH",
"348 696 OFFCURVE",
"373 692 OFFCURVE",
"394 684 CURVE",
"399 751 LINE",
"373 758 OFFCURVE",
"345 762 OFFCURVE",
"316 762 CURVE SMOOTH",
"207 762 OFFCURVE",
"141 694 OFFCURVE",
"141 582 CURVE SMOOTH",
"141 552 LINE",
"30 552 LINE"
);
},
{
closed = 1;
nodes = (
"482 552 LINE",
"482 0 LINE",
"551 0 LINE",
"551 552 LINE"
);
},
{
closed = 1;
nodes = (
"471 667 OFFCURVE",
"490 650 OFFCURVE",
"517 650 CURVE SMOOTH",
"542 650 OFFCURVE",
"562 667 OFFCURVE",
"562 696 CURVE SMOOTH",
"562 727 OFFCURVE",
"542 742 OFFCURVE",
"517 742 CURVE SMOOTH",
"490 742 OFFCURVE",
"471 727 OFFCURVE",
"471 696 CURVE SMOOTH"
);
}
);
width = 657;
}
);
note = fi;
unicode = FB01;
},
{
glyphname = fl;
lastChange = "2017-11-01 11:13:03 +0000";
layers = (
{
layerId = "A6EA9C16-C626-4B38-A32D-13618352FA56";
paths = (
{
closed = 1;
nodes = (
"30 492 LINE",
"141 492 LINE",
"141 0 LINE",
"211 0 LINE",
"211 492 LINE",
"385 492 LINE",
"394 552 LINE",
"211 552 LINE",
"211 582 LINE SMOOTH",
"211 658 OFFCURVE",
"246 696 OFFCURVE",
"317 696 CURVE SMOOTH",
"348 696 OFFCURVE",
"373 692 OFFCURVE",
"394 684 CURVE",
"399 751 LINE",
"373 758 OFFCURVE",
"345 762 OFFCURVE",
"316 762 CURVE SMOOTH",
"207 762 OFFCURVE",
"141 694 OFFCURVE",
"141 582 CURVE SMOOTH",
"141 552 LINE",
"30 552 LINE"
);
},
{
closed = 1;
nodes = (
"482 746 LINE",
"482 0 LINE",
"551 0 LINE",
"551 746 LINE"
);
}
);
width = 656;
}
);
note = fl;
unicode = FB02;
},
{
glyphname = ffi;
lastChange = "2017-11-01 11:13:03 +0000";
layers = (
{
layerId = "A6EA9C16-C626-4B38-A32D-13618352FA56";
paths = (
{
closed = 1;
nodes = (
"205 582 LINE SMOOTH",
"205 658 OFFCURVE",
"240 696 OFFCURVE",
"311 696 CURVE SMOOTH",
"334 696 OFFCURVE",
"360 693 OFFCURVE",
"391 686 CURVE",
"393 751 LINE",
"367 758 OFFCURVE",
"339 762 OFFCURVE",
"310 762 CURVE SMOOTH",
"201 762 OFFCURVE",
"135 694 OFFCURVE",
"135 582 CURVE SMOOTH",
"135 552 LINE",
"24 552 LINE",
"24 492 LINE",
"135 492 LINE",
"135 0 LINE",
"205 0 LINE",
"205 492 LINE",
"474 492 LINE",
"474 0 LINE",
"543 0 LINE",
"543 492 LINE",
"717 492 LINE",
"726 552 LINE",
"543 552 LINE",
"543 582 LINE SMOOTH",
"543 658 OFFCURVE",
"578 696 OFFCURVE",
"649 696 CURVE SMOOTH",
"672 696 OFFCURVE",
"698 693 OFFCURVE",
"729 686 CURVE",
"731 751 LINE",
"706 758 OFFCURVE",
"678 762 OFFCURVE",
"648 762 CURVE SMOOTH",
"539 762 OFFCURVE",
"474 694 OFFCURVE",
"474 582 CURVE SMOOTH",
"474 552 LINE",
"205 552 LINE"
);
},
{
closed = 1;
nodes = (
"814 552 LINE",
"814 0 LINE",
"883 0 LINE",
"883 552 LINE"
);
},
{
closed = 1;
nodes = (
"802 667 OFFCURVE",
"821 650 OFFCURVE",
"848 650 CURVE SMOOTH",
"873 650 OFFCURVE",
"893 667 OFFCURVE",
"893 696 CURVE SMOOTH",
"893 727 OFFCURVE",
"873 742 OFFCURVE",
"848 742 CURVE SMOOTH",
"821 742 OFFCURVE",
"802 727 OFFCURVE",
"802 696 CURVE SMOOTH"
);
}
);
width = 988;
}
);
note = ffi;
unicode = FB03;
},
{
glyphname = ffl;
lastChange = "2017-11-01 11:13:03 +0000";
layers = (
{
layerId = "A6EA9C16-C626-4B38-A32D-13618352FA56";
paths = (
{
closed = 1;
nodes = (
"814 746 LINE",
"814 0 LINE",
"883 0 LINE",
"883 746 LINE"
);
},
{
closed = 1;
nodes = (
"205 582 LINE SMOOTH",
"205 658 OFFCURVE",
"240 696 OFFCURVE",
"311 696 CURVE SMOOTH",
"334 696 OFFCURVE",
"360 693 OFFCURVE",
"391 686 CURVE",
"393 751 LINE",
"367 758 OFFCURVE",
"339 762 OFFCURVE",
"310 762 CURVE SMOOTH",
"201 762 OFFCURVE",
"135 694 OFFCURVE",
"135 582 CURVE SMOOTH",
"135 552 LINE",
"24 552 LINE",
"24 492 LINE",
"135 492 LINE",
"135 0 LINE",
"205 0 LINE",
"205 492 LINE",
"474 492 LINE",
"474 0 LINE",
"543 0 LINE",
"543 492 LINE",
"717 492 LINE",
"726 552 LINE",
"543 552 LINE",
"543 582 LINE SMOOTH",
"543 658 OFFCURVE",
"578 696 OFFCURVE",
"649 696 CURVE SMOOTH",
"672 696 OFFCURVE",
"698 693 OFFCURVE",
"729 686 CURVE",
"731 751 LINE",
"706 758 OFFCURVE",
"678 762 OFFCURVE",
"648 762 CURVE SMOOTH",
"539 762 OFFCURVE",
"474 694 OFFCURVE",
"474 582 CURVE SMOOTH",
"474 552 LINE",
"205 552 LINE"
);
}
);
width = 989;
}
);
note = ffl;
unicode = FB04;
},
{
glyphname = dotlessi.001;
lastChange = "2017-11-01 11:13:03 +0000";
layers = (
{
layerId = "A6EA9C16-C626-4B38-A32D-13618352FA56";
paths = (
{
closed = 1;
nodes = (
"106 552 LINE",
"106 0 LINE",
"175 0 LINE",
"175 552 LINE"
);
}
);
width = 281;
}
);
note = dotlessi.001;
},
{
glyphname = phonomark;
lastChange = "2017-11-01 11:13:03 +0000";
layers = (
{
layerId = "A6EA9C16-C626-4B38-A32D-13618352FA56";
paths = (
{
closed = 1;
nodes = (
"528 308 OFFCURVE",
"589 353 OFFCURVE",
"589 436 CURVE SMOOTH",
"589 515 OFFCURVE",
"535 563 OFFCURVE",
"435 563 CURVE SMOOTH",
"322 563 LINE",
"322 151 LINE",
"383 151 LINE",
"383 308 LINE",
"423 308 LINE SMOOTH"
);
},
{
closed = 1;
nodes = (
"493 507 OFFCURVE",
"527 481 OFFCURVE",
"527 437 CURVE SMOOTH",
"527 389 OFFCURVE",
"492 365 OFFCURVE",
"423 365 CURVE SMOOTH",
"383 365 LINE",
"383 507 LINE",
"429 507 LINE SMOOTH"
);
},
{
closed = 1;
nodes = (
"66 149 OFFCURVE",
"216 -10 OFFCURVE",
"433 -10 CURVE SMOOTH",
"646 -10 OFFCURVE",
"801 145 OFFCURVE",
"801 357 CURVE SMOOTH",
"801 565 OFFCURVE",
"649 724 OFFCURVE",
"433 724 CURVE SMOOTH",
"225 724 OFFCURVE",
"66 572 OFFCURVE",
"66 357 CURVE SMOOTH"
);
},
{
closed = 1;
nodes = (
"128 537 OFFCURVE",
"258 663 OFFCURVE",
"433 663 CURVE SMOOTH",
"613 663 OFFCURVE",
"739 532 OFFCURVE",
"739 357 CURVE SMOOTH",
"739 180 OFFCURVE",
"612 51 OFFCURVE",
"433 51 CURVE SMOOTH",
"252 51 OFFCURVE",
"128 184 OFFCURVE",
"128 357 CURVE SMOOTH"
);
}
);
width = 867;
}
);
note = phonomark;
},
